solid Untitled-55f0c83a
facet normal 0.0 -1.0 0.0
  outer loop
    vertex 51.68973278879388 26.127268398107844 10.214399999999982
    vertex 48.98973278879389 26.127268398107844 9.999999999999982
    vertex 44.72457278879388 26.127268398107844 3.6852799999999823
  endloop
endfacet
facet normal 0.0 1.0 0.0
  outer loop
    vertex 34.36473278879389 30.127268398107837 8.352399999999982
    vertex 34.825212788793884 30.127268398107837 2.9999999999999827
    vertex 32.48973278879389 30.127268398107837 7.849999999999983
  endloop
endfacet
facet normal 0.0 1.0 0.0
  outer loop
    vertex 50.61473278879388 30.127268398107837 8.352399999999982
    vertex 52.48973278879388 30.127268398107837 7.849999999999983
    vertex 41.462642788793886 30.127268398107837 5.816399999999981
  endloop
endfacet
facet normal 0.0 1.0 0.0
  outer loop
    vertex 35.73733278879388 30.127268398107837 9.72499999999998
    vertex 34.825212788793884 30.127268398107837 2.9999999999999827
    vertex 34.36473278879389 30.127268398107837 8.352399999999982
  endloop
endfacet
facet normal 0.0 1.0 0.0
  outer loop
    vertex 36.23973278879389 30.127268398107837 11.599999999999982
    vertex 34.825212788793884 30.127268398107837 2.9999999999999827
    vertex 35.73733278879388 30.127268398107837 9.72499999999998
  endloop
endfacet
facet normal 0.0 1.0 0.0
  outer loop
    vertex 36.23973278879389 30.127268398107837 11.599999999999982
    vertex 35.926042788793886 30.127268398107837 4.414339999999983
    vertex 34.825212788793884 30.127268398107837 2.9999999999999827
  endloop
endfacet
facet normal 0.0 1.0 0.0
  outer loop
    vertex 36.23973278879389 30.127268398107837 11.599999999999982
    vertex 37.57956278879388 30.127268398107837 5.4946399999999835
    vertex 35.926042788793886 30.127268398107837 4.414339999999983
  endloop
endfacet
facet normal 0.0 1.0 0.0
  outer loop
    vertex 36.23973278879389 30.127268398107837 11.599999999999982
    vertex 39.49425678879388 30.127268398107837 5.9795099999999834
    vertex 37.57956278879388 30.127268398107837 5.4946399999999835
  endloop
endfacet
facet normal 0.0 1.0 0.0
  outer loop
    vertex 48.73973278879389 30.127268398107837 11.599999999999982
    vertex 39.49425678879388 30.127268398107837 5.9795099999999834
    vertex 36.23973278879389 30.127268398107837 11.599999999999982
  endloop
endfacet
facet normal 0.0 1.0 0.0
  outer loop
    vertex 36.23973278879389 30.127268398107837 30.012640000000033
    vertex 48.73973278879389 30.127268398107837 11.599999999999982
    vertex 36.23973278879389 30.127268398107837 11.599999999999982
  endloop
endfacet
facet normal 0.0 1.0 0.0
  outer loop
    vertex 36.23973278879389 30.127268398107837 30.012640000000033
    vertex 48.73973278879389 30.127268398107837 45.01264000000003
    vertex 48.73973278879389 30.127268398107837 11.599999999999982
  endloop
endfacet
facet normal 0.0 1.0 0.0
  outer loop
    vertex 48.73973278879389 30.127268398107837 45.01264000000003
    vertex 36.23973278879389 30.127268398107837 30.012640000000033
    vertex 36.23973278879389 30.127268398107837 45.01264000000003
  endloop
endfacet
facet normal 0.0 1.0 0.0
  outer loop
    vertex 48.73973278879389 30.127268398107837 11.599999999999982
    vertex 49.24213278879389 30.127268398107837 9.72499999999998
    vertex 39.49425678879388 30.127268398107837 5.9795099999999834
  endloop
endfacet
facet normal 0.0 1.0 0.0
  outer loop
    vertex 49.24213278879389 30.127268398107837 9.72499999999998
    vertex 41.462642788793886 30.127268398107837 5.816399999999981
    vertex 39.49425678879388 30.127268398107837 5.9795099999999834
  endloop
endfacet
facet normal 0.0 1.0 0.0
  outer loop
    vertex 55.73733278879389 30.127268398107837 9.72499999999998
    vertex 64.98973278879387 30.127268398107837 2.9999999999999827
    vertex 54.36473278879388 30.127268398107837 8.352399999999982
  endloop
endfacet
facet normal 0.0 1.0 0.0
  outer loop
    vertex 64.98973278879387 30.127268398107837 30.009378999999985
    vertex 64.98973278879387 30.127268398107837 2.9999999999999827
    vertex 56.23973278879387 30.127268398107837 11.599999999999982
  endloop
endfacet
facet normal 0.0 1.0 0.0
  outer loop
    vertex 56.23973278879387 30.127268398107837 30.009378999999985
    vertex 64.98973278879387 30.127268398107837 30.009378999999985
    vertex 56.23973278879387 30.127268398107837 11.599999999999982
  endloop
endfacet
facet normal 0.0 1.0 0.0
  outer loop
    vertex 64.98973278879387 30.127268398107837 30.009378999999985
    vertex 56.23973278879387 30.127268398107837 30.009378999999985
    vertex 56.23973278879387 30.127268398107837 45.00937899999998
  endloop
endfacet
facet normal 0.0 1.0 0.0
  outer loop
    vertex 64.98973278879387 30.127268398107837 30.009378999999985
    vertex 56.23973278879387 30.127268398107837 45.00937899999998
    vertex 64.98973278879387 30.127268398107837 45.00937899999998
  endloop
endfacet
facet normal 0.0 1.0 0.0
  outer loop
    vertex 56.23973278879387 30.127268398107837 11.599999999999982
    vertex 64.98973278879387 30.127268398107837 2.9999999999999827
    vertex 55.73733278879389 30.127268398107837 9.72499999999998
  endloop
endfacet
facet normal 0.0 1.0 0.0
  outer loop
    vertex 54.36473278879388 30.127268398107837 8.352399999999982
    vertex 64.98973278879387 30.127268398107837 2.9999999999999827
    vertex 45.09543278879388 30.127268398107837 2.9999999999999827
  endloop
endfacet
facet normal 0.0 1.0 0.0
  outer loop
    vertex 54.36473278879388 30.127268398107837 8.352399999999982
    vertex 45.09543278879388 30.127268398107837 2.9999999999999827
    vertex 44.72457278879388 30.127268398107837 3.6852799999999823
  endloop
endfacet
facet normal 0.0 1.0 0.0
  outer loop
    vertex 54.36473278879388 30.127268398107837 8.352399999999982
    vertex 44.72457278879388 30.127268398107837 3.6852799999999823
    vertex 43.271422788793885 30.127268398107837 5.022999999999983
  endloop
endfacet
facet normal 0.0 1.0 0.0
  outer loop
    vertex 49.24213278879389 30.127268398107837 9.72499999999998
    vertex 50.61473278879388 30.127268398107837 8.352399999999982
    vertex 41.462642788793886 30.127268398107837 5.816399999999981
  endloop
endfacet
facet normal 0.0 1.0 0.0
  outer loop
    vertex 54.36473278879388 30.127268398107837 8.352399999999982
    vertex 43.271422788793885 30.127268398107837 5.022999999999983
    vertex 52.48973278879388 30.127268398107837 7.849999999999983
  endloop
endfacet
facet normal 0.0 -1.0 0.0
  outer loop
    vertex 34.08973278879388 26.127268398107844 11.599999999999982
    vertex 33.28973278879388 26.127268398107844 10.214399999999982
    vertex 35.926042788793886 26.127268398107844 4.414339999999983
  endloop
endfacet
facet normal 0.0 -1.0 0.0
  outer loop
    vertex 28.089432788793886 26.127268398107844 30.149739999999987
    vertex 28.089432788793886 26.127268398107844 9.999999999999982
    vertex 30.889732788793886 26.127268398107844 11.599999999999982
  endloop
endfacet
facet normal 0.0 -1.0 0.0
  outer loop
    vertex 30.889732788793886 26.127268398107844 30.149739999999987
    vertex 28.089432788793886 26.127268398107844 30.149739999999987
    vertex 30.889732788793886 26.127268398107844 11.599999999999982
  endloop
endfacet
facet normal 0.0 -1.0 0.0
  outer loop
    vertex 28.089432788793886 26.127268398107844 30.149739999999987
    vertex 30.889732788793886 26.127268398107844 30.149739999999987
    vertex 30.889732788793886 26.127268398107844 45.14973999999999
  endloop
endfacet
facet normal 0.0 -1.0 0.0
  outer loop
    vertex 28.089432788793886 26.127268398107844 30.149739999999987
    vertex 30.889732788793886 26.127268398107844 45.14973999999999
    vertex 28.089432788793886 26.127268398107844 45.14973999999999
  endloop
endfacet
facet normal 0.0 -1.0 0.0
  outer loop
    vertex 44.72457278879388 26.127268398107844 3.6852799999999823
    vertex 45.664632788793874 26.127268398107844 1.9481999999999828
    vertex 64.98973278879387 26.127268398107844 -1.6919798895287383e-14
  endloop
endfacet
facet normal 0.0 -1.0 0.0
  outer loop
    vertex 45.664632788793874 26.127268398107844 1.9481999999999828
    vertex 45.98973278879389 26.127268398107844 -1.5587528895287386e-14
    vertex 64.98973278879387 26.127268398107844 -1.6919798895287383e-14
  endloop
endfacet
facet normal 0.0 -1.0 0.0
  outer loop
    vertex 51.68973278879388 26.127268398107844 10.214399999999982
    vertex 44.72457278879388 26.127268398107844 3.6852799999999823
    vertex 53.28973278879389 26.127268398107844 10.214399999999982
  endloop
endfacet
facet normal 0.0 -1.0 0.0
  outer loop
    vertex 64.98973278879387 26.127268398107844 30.009378999999985
    vertex 54.08973278879389 26.127268398107844 11.599999999999982
    vertex 64.98973278879387 26.127268398107844 -1.6919798895287383e-14
  endloop
endfacet
facet normal 0.0 -1.0 0.0
  outer loop
    vertex 64.98973278879387 26.127268398107844 30.009378999999985
    vertex 54.08973278879389 26.127268398107844 45.00937899999998
    vertex 54.08973278879389 26.127268398107844 11.599999999999982
  endloop
endfacet
facet normal 0.0 -1.0 0.0
  outer loop
    vertex 54.08973278879389 26.127268398107844 45.00937899999998
    vertex 64.98973278879387 26.127268398107844 30.009378999999985
    vertex 64.98973278879387 26.127268398107844 45.00937899999998
  endloop
endfacet
facet normal 0.0 -1.0 0.0
  outer loop
    vertex 48.98973278879389 26.127268398107844 9.999999999999982
    vertex 41.462642788793886 26.127268398107844 5.816399999999981
    vertex 43.271422788793885 26.127268398107844 5.022999999999983
  endloop
endfacet
facet normal 0.0 -1.0 0.0
  outer loop
    vertex 53.28973278879389 26.127268398107844 10.214399999999982
    vertex 44.72457278879388 26.127268398107844 3.6852799999999823
    vertex 64.98973278879387 26.127268398107844 -1.6919798895287383e-14
  endloop
endfacet
facet normal 0.0 -1.0 0.0
  outer loop
    vertex 54.08973278879389 26.127268398107844 11.599999999999982
    vertex 53.28973278879389 26.127268398107844 10.214399999999982
    vertex 64.98973278879387 26.127268398107844 -1.6919798895287383e-14
  endloop
endfacet
facet normal 0.0 -1.0 0.0
  outer loop
    vertex 48.98973278879389 26.127268398107844 9.999999999999982
    vertex 43.271422788793885 26.127268398107844 5.022999999999983
    vertex 44.72457278879388 26.127268398107844 3.6852799999999823
  endloop
endfacet
facet normal 0.0 -1.0 0.0
  outer loop
    vertex 48.98973278879389 26.127268398107844 30.012640000000033
    vertex 48.98973278879389 26.127268398107844 9.999999999999982
    vertex 50.88973278879387 26.127268398107844 11.599999999999982
  endloop
endfacet
facet normal 0.0 -1.0 0.0
  outer loop
    vertex 50.88973278879387 26.127268398107844 30.012640000000033
    vertex 48.98973278879389 26.127268398107844 30.012640000000033
    vertex 50.88973278879387 26.127268398107844 11.599999999999982
  endloop
endfacet
facet normal 0.0 -1.0 0.0
  outer loop
    vertex 48.98973278879389 26.127268398107844 30.012640000000033
    vertex 50.88973278879387 26.127268398107844 30.012640000000033
    vertex 50.88973278879387 26.127268398107844 45.01264000000003
  endloop
endfacet
facet normal 0.0 -1.0 0.0
  outer loop
    vertex 48.98973278879389 26.127268398107844 30.012640000000033
    vertex 50.88973278879387 26.127268398107844 45.01264000000003
    vertex 48.98973278879389 26.127268398107844 45.01264000000003
  endloop
endfacet
facet normal 0.0 -1.0 0.0
  outer loop
    vertex 35.98973278879389 26.127268398107844 30.012640000000033
    vertex 34.08973278879388 26.127268398107844 11.599999999999982
    vertex 35.98973278879389 26.127268398107844 9.999999999999982
  endloop
endfacet
facet normal 0.0 -1.0 0.0
  outer loop
    vertex 35.98973278879389 26.127268398107844 30.012640000000033
    vertex 34.08973278879388 26.127268398107844 45.01264000000003
    vertex 34.08973278879388 26.127268398107844 11.599999999999982
  endloop
endfacet
facet normal 0.0 -1.0 0.0
  outer loop
    vertex 34.08973278879388 26.127268398107844 45.01264000000003
    vertex 35.98973278879389 26.127268398107844 30.012640000000033
    vertex 35.98973278879389 26.127268398107844 45.01264000000003
  endloop
endfacet
facet normal 0.0 -1.0 0.0
  outer loop
    vertex 35.98973278879389 26.127268398107844 9.999999999999982
    vertex 37.57956278879388 26.127268398107844 5.4946399999999835
    vertex 39.49425678879388 26.127268398107844 5.9795099999999834
  endloop
endfacet
facet normal 0.0 -1.0 0.0
  outer loop
    vertex 34.08973278879388 26.127268398107844 11.599999999999982
    vertex 35.926042788793886 26.127268398107844 4.414339999999983
    vertex 37.57956278879388 26.127268398107844 5.4946399999999835
  endloop
endfacet
facet normal 0.0 -1.0 0.0
  outer loop
    vertex 30.889732788793886 26.127268398107844 11.599999999999982
    vertex 28.089432788793886 26.127268398107844 9.999999999999982
    vertex 34.071562788793884 26.127268398107844 -1.6919798895287383e-14
  endloop
endfacet
facet normal 0.0 -1.0 0.0
  outer loop
    vertex 33.28973278879388 26.127268398107844 10.214399999999982
    vertex 34.71289278879389 26.127268398107844 2.855679999999983
    vertex 35.926042788793886 26.127268398107844 4.414339999999983
  endloop
endfacet
facet normal 0.0 -1.0 0.0
  outer loop
    vertex 31.689732788793883 26.127268398107844 10.214399999999982
    vertex 34.071562788793884 26.127268398107844 0.9875679999999828
    vertex 34.71289278879389 26.127268398107844 2.855679999999983
  endloop
endfacet
facet normal 0.0 -1.0 0.0
  outer loop
    vertex 30.889732788793886 26.127268398107844 11.599999999999982
    vertex 34.071562788793884 26.127268398107844 0.9875679999999828
    vertex 31.689732788793883 26.127268398107844 10.214399999999982
  endloop
endfacet
facet normal 0.0 -1.0 0.0
  outer loop
    vertex 35.98973278879389 26.127268398107844 9.999999999999982
    vertex 39.49425678879388 26.127268398107844 5.9795099999999834
    vertex 48.98973278879389 26.127268398107844 9.999999999999982
  endloop
endfacet
facet normal 0.0 -1.0 0.0
  outer loop
    vertex 48.98973278879389 26.127268398107844 9.999999999999982
    vertex 39.49425678879388 26.127268398107844 5.9795099999999834
    vertex 41.462642788793886 26.127268398107844 5.816399999999981
  endloop
endfacet
facet normal 0.0 -1.0 0.0
  outer loop
    vertex 50.88973278879387 26.127268398107844 11.599999999999982
    vertex 48.98973278879389 26.127268398107844 9.999999999999982
    vertex 51.68973278879388 26.127268398107844 10.214399999999982
  endloop
endfacet
facet normal 0.0 -1.0 0.0
  outer loop
    vertex 30.889732788793886 26.127268398107844 11.599999999999982
    vertex 34.071562788793884 26.127268398107844 -1.6919798895287383e-14
    vertex 34.071562788793884 26.127268398107844 0.9875679999999828
  endloop
endfacet
facet normal 0.0 -1.0 0.0
  outer loop
    vertex 34.08973278879388 26.127268398107844 11.599999999999982
    vertex 37.57956278879388 26.127268398107844 5.4946399999999835
    vertex 35.98973278879389 26.127268398107844 9.999999999999982
  endloop
endfacet
facet normal 0.0 0.0 -1.0
  outer loop
    vertex 34.071562788793884 26.127268398107844 -1.6919798895287383e-14
    vertex 14.989732788793885 26.127268398107844 -1.6919798895287383e-14
    vertex 14.989732788793885 41.12726839810783 -1.6919798895287383e-14
  endloop
endfacet
facet normal 0.0 0.0 -1.0
  outer loop
    vertex 32.98973278879389 41.12726839810783 -1.6919798895287383e-14
    vertex 28.075432788793886 38.38228839810784 -1.6919798895287383e-14
    vertex 14.989732788793885 41.12726839810783 -1.6919798895287383e-14
  endloop
endfacet
facet normal 0.0 0.0 -1.0
  outer loop
    vertex 34.071562788793884 26.127268398107844 -1.6919798895287383e-14
    vertex 14.989732788793885 41.12726839810783 -1.6919798895287383e-14
    vertex 32.98973278879389 31.12726839810784 -1.6919798895287383e-14
  endloop
endfacet
facet normal 0.0 0.0 -1.0
  outer loop
    vertex 32.98973278879389 31.12726839810784 -1.6919798895287383e-14
    vertex 28.075432788793886 35.215108398107844 -1.6919798895287383e-14
    vertex 29.90403278879388 35.215108398107844 -1.6919798895287383e-14
  endloop
endfacet
facet normal 0.0 0.0 -1.0
  outer loop
    vertex 28.075432788793886 35.215108398107844 -1.6919798895287383e-14
    vertex 14.989732788793885 41.12726839810783 -1.6919798895287383e-14
    vertex 27.161132788793882 36.798698398107845 -1.6919798895287383e-14
  endloop
endfacet
facet normal 0.0 0.0 -1.0
  outer loop
    vertex 32.98973278879389 31.12726839810784 -1.6919798895287383e-14
    vertex 14.989732788793885 41.12726839810783 -1.6919798895287383e-14
    vertex 28.075432788793886 35.215108398107844 -1.6919798895287383e-14
  endloop
endfacet
facet normal 0.0 0.0 -1.0
  outer loop
    vertex 32.98973278879389 41.12726839810783 -1.6919798895287383e-14
    vertex 30.81830278879388 36.798698398107845 -1.6919798895287383e-14
    vertex 29.90403278879388 38.38228839810784 -1.6919798895287383e-14
  endloop
endfacet
facet normal 0.0 0.0 -1.0
  outer loop
    vertex 32.98973278879389 31.12726839810784 -1.6919798895287383e-14
    vertex 29.90403278879388 35.215108398107844 -1.6919798895287383e-14
    vertex 30.81830278879388 36.798698398107845 -1.6919798895287383e-14
  endloop
endfacet
facet normal 0.0 0.0 -1.0
  outer loop
    vertex 32.98973278879389 31.12726839810784 -1.6919798895287383e-14
    vertex 30.81830278879388 36.798698398107845 -1.6919798895287383e-14
    vertex 32.98973278879389 41.12726839810783 -1.6919798895287383e-14
  endloop
endfacet
facet normal 0.0 0.0 -1.0
  outer loop
    vertex 32.98973278879389 41.12726839810783 -1.6919798895287383e-14
    vertex 29.90403278879388 38.38228839810784 -1.6919798895287383e-14
    vertex 28.075432788793886 38.38228839810784 -1.6919798895287383e-14
  endloop
endfacet
facet normal 0.0 0.0 -1.0
  outer loop
    vertex 28.075432788793886 38.38228839810784 -1.6919798895287383e-14
    vertex 27.161132788793882 36.798698398107845 -1.6919798895287383e-14
    vertex 14.989732788793885 41.12726839810783 -1.6919798895287383e-14
  endloop
endfacet
facet normal 0.0 0.0 -1.0
  outer loop
    vertex 34.071562788793884 26.127268398107844 -1.6919798895287383e-14
    vertex 32.98973278879389 31.12726839810784 -1.6919798895287383e-14
    vertex 34.071562788793884 31.12726839810784 -1.6919798895287383e-14
  endloop
endfacet
facet normal 0.0 1.0 0.0
  outer loop
    vertex 14.989732788793885 41.12726839810783 2.9999999999999827
    vertex 32.98973278879389 41.12726839810783 -1.6919798895287383e-14
    vertex 14.989732788793885 41.12726839810783 -1.6919798895287383e-14
  endloop
endfacet
facet normal 0.0 1.0 0.0
  outer loop
    vertex 32.98973278879389 41.12726839810783 2.9999999999999827
    vertex 32.98973278879389 41.12726839810783 -1.6919798895287383e-14
    vertex 14.989732788793885 41.12726839810783 2.9999999999999827
  endloop
endfacet
facet normal 0.0 0.0 1.0
  outer loop
    vertex 34.825212788793884 30.127268398107837 2.9999999999999827
    vertex 32.98973278879389 31.12726839810784 2.9999999999999827
    vertex 14.989732788793885 30.127268398107837 2.9999999999999827
  endloop
endfacet
facet normal 0.0 0.0 1.0
  outer loop
    vertex 32.98973278879389 31.12726839810784 2.9999999999999827
    vertex 28.075432788793886 35.215108398107844 2.9999999999999827
    vertex 14.989732788793885 41.12726839810783 2.9999999999999827
  endloop
endfacet
facet normal 0.0 0.0 1.0
  outer loop
    vertex 32.98973278879389 31.12726839810784 2.9999999999999827
    vertex 14.989732788793885 41.12726839810783 2.9999999999999827
    vertex 14.989732788793885 30.127268398107837 2.9999999999999827
  endloop
endfacet
facet normal 0.0 0.0 1.0
  outer loop
    vertex 28.075432788793886 35.215108398107844 2.9999999999999827
    vertex 27.161132788793882 36.798698398107845 2.9999999999999827
    vertex 14.989732788793885 41.12726839810783 2.9999999999999827
  endloop
endfacet
facet normal 0.0 0.0 1.0
  outer loop
    vertex 28.075432788793886 38.38228839810784 2.9999999999999827
    vertex 14.989732788793885 41.12726839810783 2.9999999999999827
    vertex 27.161132788793882 36.798698398107845 2.9999999999999827
  endloop
endfacet
facet normal 0.0 0.0 1.0
  outer loop
    vertex 32.98973278879389 41.12726839810783 2.9999999999999827
    vertex 29.90403278879388 38.38228839810784 2.9999999999999827
    vertex 30.81830278879388 36.798698398107845 2.9999999999999827
  endloop
endfacet
facet normal 0.0 0.0 1.0
  outer loop
    vertex 32.98973278879389 41.12726839810783 2.9999999999999827
    vertex 14.989732788793885 41.12726839810783 2.9999999999999827
    vertex 28.075432788793886 38.38228839810784 2.9999999999999827
  endloop
endfacet
facet normal 0.0 0.0 1.0
  outer loop
    vertex 32.98973278879389 41.12726839810783 2.9999999999999827
    vertex 28.075432788793886 38.38228839810784 2.9999999999999827
    vertex 29.90403278879388 38.38228839810784 2.9999999999999827
  endloop
endfacet
facet normal 0.0 0.0 1.0
  outer loop
    vertex 34.825212788793884 31.12726839810784 2.9999999999999827
    vertex 32.98973278879389 31.12726839810784 2.9999999999999827
    vertex 34.825212788793884 30.127268398107837 2.9999999999999827
  endloop
endfacet
facet normal 0.0 0.0 1.0
  outer loop
    vertex 32.98973278879389 31.12726839810784 2.9999999999999827
    vertex 29.90403278879388 35.215108398107844 2.9999999999999827
    vertex 28.075432788793886 35.215108398107844 2.9999999999999827
  endloop
endfacet
facet normal 0.0 0.0 1.0
  outer loop
    vertex 32.98973278879389 31.12726839810784 2.9999999999999827
    vertex 30.81830278879388 36.798698398107845 2.9999999999999827
    vertex 29.90403278879388 35.215108398107844 2.9999999999999827
  endloop
endfacet
facet normal 0.0 0.0 1.0
  outer loop
    vertex 32.98973278879389 41.12726839810783 2.9999999999999827
    vertex 30.81830278879388 36.798698398107845 2.9999999999999827
    vertex 32.98973278879389 31.12726839810784 2.9999999999999827
  endloop
endfacet
facet normal 0.0 1.0 0.0
  outer loop
    vertex 52.48973278879388 30.127268398107837 7.849999999999983
    vertex 43.271422788793885 30.127268398107837 5.022999999999983
    vertex 41.462642788793886 30.127268398107837 5.816399999999981
  endloop
endfacet
facet normal 0.0 1.0 0.0
  outer loop
    vertex 14.989732788793885 30.127268398107837 30.149739999999987
    vertex 28.739732788793884 30.127268398107837 11.599999999999982
    vertex 14.989732788793885 30.127268398107837 2.9999999999999827
  endloop
endfacet
facet normal 0.0 1.0 0.0
  outer loop
    vertex 14.989732788793885 30.127268398107837 30.149739999999987
    vertex 28.739732788793884 30.127268398107837 45.14973999999999
    vertex 28.739732788793884 30.127268398107837 11.599999999999982
  endloop
endfacet
facet normal 0.0 1.0 0.0
  outer loop
    vertex 28.739732788793884 30.127268398107837 45.14973999999999
    vertex 14.989732788793885 30.127268398107837 30.149739999999987
    vertex 14.989732788793885 30.127268398107837 45.14973999999999
  endloop
endfacet
facet normal 0.0 1.0 0.0
  outer loop
    vertex 28.739732788793884 30.127268398107837 11.599999999999982
    vertex 29.242132788793878 30.127268398107837 9.72499999999998
    vertex 14.989732788793885 30.127268398107837 2.9999999999999827
  endloop
endfacet
facet normal 0.0 1.0 0.0
  outer loop
    vertex 29.242132788793878 30.127268398107837 9.72499999999998
    vertex 34.825212788793884 30.127268398107837 2.9999999999999827
    vertex 14.989732788793885 30.127268398107837 2.9999999999999827
  endloop
endfacet
facet normal 0.0 1.0 0.0
  outer loop
    vertex 29.242132788793878 30.127268398107837 9.72499999999998
    vertex 30.61473278879388 30.127268398107837 8.352399999999982
    vertex 34.825212788793884 30.127268398107837 2.9999999999999827
  endloop
endfacet
facet normal 0.0 1.0 0.0
  outer loop
    vertex 30.61473278879388 30.127268398107837 8.352399999999982
    vertex 32.48973278879389 30.127268398107837 7.849999999999983
    vertex 34.825212788793884 30.127268398107837 2.9999999999999827
  endloop
endfacet
facet normal 0.7071143044394764 -0.7070992578535744 1.0676129080731632e-17
  outer loop
    vertex 25.739732788793884 28.477018398107845 9.999999999999982
    vertex 23.390032788793885 26.127268398107844 30.149739999999987
    vertex 23.390032788793885 26.127268398107844 9.999999999999982
  endloop
endfacet
facet normal 0.7071143044394763 -0.7070992578535745 0.0
  outer loop
    vertex 25.739732788793884 28.477018398107845 9.999999999999982
    vertex 23.390032788793885 26.127268398107844 45.14973999999999
    vertex 23.390032788793885 26.127268398107844 30.149739999999987
  endloop
endfacet
facet normal 0.7071143044394763 -0.7070992578535745 0.0
  outer loop
    vertex 23.390032788793885 26.127268398107844 45.14973999999999
    vertex 25.739732788793884 28.477018398107845 9.999999999999982
    vertex 25.739732788793884 28.477018398107845 45.14973999999999
  endloop
endfacet
facet normal 0.7071143044394763 -0.7070992578535745 0.0
  outer loop
    vertex 25.739732788793884 28.477018398107845 45.14973999999999
    vertex 25.739732788793884 28.477018398107845 9.999999999999982
    vertex 25.739732788793884 28.477018398107845 30.149739999999987
  endloop
endfacet
facet normal 1.0 0.0 0.0
  outer loop
    vertex 64.98973278879387 41.12726839810783 2.9999999999999827
    vertex 64.98973278879387 30.127268398107837 2.9999999999999827
    vertex 64.98973278879387 41.12726839810783 -1.6919798895287383e-14
  endloop
endfacet
facet normal -7.01194736842105e-17 -2.664539999999998e-16 -1.0
  outer loop
    vertex 64.98973278879387 26.127268398107844 -1.6919798895287383e-14
    vertex 45.98973278879389 26.127268398107844 -1.5587528895287386e-14
    vertex 45.98973278879389 31.12726839810784 -1.6919798895287383e-14
  endloop
endfacet
facet normal 0.0 0.0 -1.0
  outer loop
    vertex 64.98973278879387 26.127268398107844 -1.6919798895287383e-14
    vertex 45.98973278879389 31.12726839810784 -1.6919798895287383e-14
    vertex 54.98973278879389 31.12726839810784 -1.6919798895287383e-14
  endloop
endfacet
facet normal 0.0 0.0 -1.0
  outer loop
    vertex 64.98973278879387 26.127268398107844 -1.6919798895287383e-14
    vertex 54.98973278879389 31.12726839810784 -1.6919798895287383e-14
    vertex 54.98973278879389 41.12726839810783 -1.6919798895287383e-14
  endloop
endfacet
facet normal 0.0 0.0 -1.0
  outer loop
    vertex 64.98973278879387 41.12726839810783 -1.6919798895287383e-14
    vertex 59.075432788793876 38.38228839810784 -1.6919798895287383e-14
    vertex 54.98973278879389 41.12726839810783 -1.6919798895287383e-14
  endloop
endfacet
facet normal 0.0 0.0 -1.0
  outer loop
    vertex 59.075432788793876 35.215108398107844 -1.6919798895287383e-14
    vertex 54.98973278879389 41.12726839810783 -1.6919798895287383e-14
    vertex 58.161132788793886 36.798698398107845 -1.6919798895287383e-14
  endloop
endfacet
facet normal 0.0 0.0 -1.0
  outer loop
    vertex 64.98973278879387 26.127268398107844 -1.6919798895287383e-14
    vertex 54.98973278879389 41.12726839810783 -1.6919798895287383e-14
    vertex 59.075432788793876 35.215108398107844 -1.6919798895287383e-14
  endloop
endfacet
facet normal 0.0 0.0 -1.0
  outer loop
    vertex 64.98973278879387 41.12726839810783 -1.6919798895287383e-14
    vertex 60.90403278879389 38.38228839810784 -1.6919798895287383e-14
    vertex 59.075432788793876 38.38228839810784 -1.6919798895287383e-14
  endloop
endfacet
facet normal 0.0 0.0 -1.0
  outer loop
    vertex 64.98973278879387 26.127268398107844 -1.6919798895287383e-14
    vertex 60.90403278879389 35.215108398107844 -1.6919798895287383e-14
    vertex 64.98973278879387 41.12726839810783 -1.6919798895287383e-14
  endloop
endfacet
facet normal 0.0 0.0 -1.0
  outer loop
    vertex 64.98973278879387 41.12726839810783 -1.6919798895287383e-14
    vertex 60.90403278879389 35.215108398107844 -1.6919798895287383e-14
    vertex 61.81833278879388 36.798698398107845 -1.6919798895287383e-14
  endloop
endfacet
facet normal 0.0 0.0 -1.0
  outer loop
    vertex 64.98973278879387 41.12726839810783 -1.6919798895287383e-14
    vertex 61.81833278879388 36.798698398107845 -1.6919798895287383e-14
    vertex 60.90403278879389 38.38228839810784 -1.6919798895287383e-14
  endloop
endfacet
facet normal 0.0 0.0 -1.0
  outer loop
    vertex 59.075432788793876 38.38228839810784 -1.6919798895287383e-14
    vertex 58.161132788793886 36.798698398107845 -1.6919798895287383e-14
    vertex 54.98973278879389 41.12726839810783 -1.6919798895287383e-14
  endloop
endfacet
facet normal 0.0 0.0 -1.0
  outer loop
    vertex 64.98973278879387 26.127268398107844 -1.6919798895287383e-14
    vertex 59.075432788793876 35.215108398107844 -1.6919798895287383e-14
    vertex 60.90403278879389 35.215108398107844 -1.6919798895287383e-14
  endloop
endfacet
facet normal -0.9863610634895161 -4.947636354551588e-17 -0.16459602799530346
  outer loop
    vertex 45.98973278879389 31.12726839810784 -1.6919798895287383e-14
    vertex 45.98973278879389 26.127268398107844 -1.5587528895287386e-14
    vertex 45.664632788793874 31.12726839810784 1.9481999999999828
  endloop
endfacet
facet normal -0.9863610634895161 -1.0994747454559099e-17 -0.16459602799530357
  outer loop
    vertex 45.664632788793874 31.12726839810784 1.9481999999999828
    vertex 45.98973278879389 26.127268398107844 -1.5587528895287386e-14
    vertex 45.664632788793874 26.127268398107844 1.9481999999999828
  endloop
endfacet
facet normal -0.8794757445516234 1.0510514389746356e-16 -0.475943709639457
  outer loop
    vertex 45.664632788793874 31.12726839810784 1.9481999999999828
    vertex 45.09543278879388 30.127268398107837 2.9999999999999827
    vertex 45.09543278879388 31.12726839810784 2.9999999999999827
  endloop
endfacet
facet normal -0.8794757445516234 0.0 -0.4759437096394572
  outer loop
    vertex 45.664632788793874 31.12726839810784 1.9481999999999828
    vertex 45.664632788793874 26.127268398107844 1.9481999999999828
    vertex 45.09543278879388 30.127268398107837 2.9999999999999827
  endloop
endfacet
facet normal -0.879471059998851 2.9427783399709855e-06 -0.475952365910537
  outer loop
    vertex 45.09543278879388 30.127268398107837 2.9999999999999827
    vertex 45.664632788793874 26.127268398107844 1.9481999999999828
    vertex 44.72457278879388 30.127268398107837 3.6852799999999823
  endloop
endfacet
facet normal -0.8794738964960405 -1.9267251029606246e-17 -0.47594712456539945
  outer loop
    vertex 44.72457278879388 30.127268398107837 3.6852799999999823
    vertex 45.664632788793874 26.127268398107844 1.9481999999999828
    vertex 44.72457278879388 26.127268398107844 3.6852799999999823
  endloop
endfacet
facet normal -0.6772818971770078 2.3031925299994068e-17 -0.7357236109819454
  outer loop
    vertex 44.72457278879388 26.127268398107844 3.6852799999999823
    vertex 43.271422788793885 30.127268398107837 5.022999999999983
    vertex 44.72457278879388 30.127268398107837 3.6852799999999823
  endloop
endfacet
facet normal -0.6772818971770078 2.3031925299994068e-17 -0.7357236109819454
  outer loop
    vertex 44.72457278879388 26.127268398107844 3.6852799999999823
    vertex 43.271422788793885 26.127268398107844 5.022999999999983
    vertex 43.271422788793885 30.127268398107837 5.022999999999983
  endloop
endfacet
facet normal -0.4016935270072597 3.7006952932129964e-17 -0.9157741590372968
  outer loop
    vertex 43.271422788793885 26.127268398107844 5.022999999999983
    vertex 41.462642788793886 30.127268398107837 5.816399999999981
    vertex 43.271422788793885 30.127268398107837 5.022999999999983
  endloop
endfacet
facet normal -0.4016935270072597 0.0 -0.9157741590372968
  outer loop
    vertex 43.271422788793885 26.127268398107844 5.022999999999983
    vertex 41.462642788793886 26.127268398107844 5.816399999999981
    vertex 41.462642788793886 30.127268398107837 5.816399999999981
  endloop
endfacet
facet normal -0.0825818022727723 4.250792956170892e-18 -0.9965842894273322
  outer loop
    vertex 41.462642788793886 26.127268398107844 5.816399999999981
    vertex 39.49425678879388 30.127268398107837 5.9795099999999834
    vertex 41.462642788793886 30.127268398107837 5.816399999999981
  endloop
endfacet
facet normal -0.0825818022727723 4.250792956170892e-18 -0.9965842894273322
  outer loop
    vertex 41.462642788793886 26.127268398107844 5.816399999999981
    vertex 39.49425678879388 26.127268398107844 5.9795099999999834
    vertex 39.49425678879388 30.127268398107837 5.9795099999999834
  endloop
endfacet
facet normal 0.24548721360194736 8.73998389458211e-18 -0.9693998287383551
  outer loop
    vertex 39.49425678879388 26.127268398107844 5.9795099999999834
    vertex 37.57956278879388 30.127268398107837 5.4946399999999835
    vertex 39.49425678879388 30.127268398107837 5.9795099999999834
  endloop
endfacet
facet normal 0.24548721360194725 -8.739983894582109e-18 -0.9693998287383551
  outer loop
    vertex 39.49425678879388 26.127268398107844 5.9795099999999834
    vertex 37.57956278879388 26.127268398107844 5.4946399999999835
    vertex 37.57956278879388 30.127268398107837 5.4946399999999835
  endloop
endfacet
facet normal 0.5469486786328522 -2.024087072813212e-17 -0.8371661381958644
  outer loop
    vertex 37.57956278879388 26.127268398107844 5.4946399999999835
    vertex 35.926042788793886 30.127268398107837 4.414339999999983
    vertex 37.57956278879388 30.127268398107837 5.4946399999999835
  endloop
endfacet
facet normal 0.5469486786328522 0.0 -0.8371661381958643
  outer loop
    vertex 37.57956278879388 26.127268398107844 5.4946399999999835
    vertex 35.926042788793886 26.127268398107844 4.414339999999983
    vertex 35.926042788793886 30.127268398107837 4.414339999999983
  endloop
endfacet
facet normal 0.789163739253193 0.0 -0.614182865804573
  outer loop
    vertex 34.825212788793884 31.12726839810784 2.9999999999999827
    vertex 34.825212788793884 30.127268398107837 2.9999999999999827
    vertex 34.71289278879389 31.12726839810784 2.855679999999983
  endloop
endfacet
facet normal 0.789163739253193 0.0 -0.614182865804573
  outer loop
    vertex 34.71289278879389 31.12726839810784 2.855679999999983
    vertex 34.825212788793884 30.127268398107837 2.9999999999999827
    vertex 34.71289278879389 26.127268398107844 2.855679999999983
  endloop
endfacet
facet normal 0.7891391595218586 -2.607848684720837e-17 -0.6142144470045738
  outer loop
    vertex 35.926042788793886 30.127268398107837 4.414339999999983
    vertex 35.926042788793886 26.127268398107844 4.414339999999983
    vertex 34.825212788793884 30.127268398107837 2.9999999999999827
  endloop
endfacet
facet normal 0.7891414354047489 1.6602418718133564e-06 -0.6142115229500146
  outer loop
    vertex 34.825212788793884 30.127268398107837 2.9999999999999827
    vertex 35.926042788793886 26.127268398107844 4.414339999999983
    vertex 34.71289278879389 26.127268398107844 2.855679999999983
  endloop
endfacet
facet normal 0.9458162558586996 0.0 -0.32470234084994054
  outer loop
    vertex 34.71289278879389 31.12726839810784 2.855679999999983
    vertex 34.71289278879389 26.127268398107844 2.855679999999983
    vertex 34.071562788793884 31.12726839810784 0.9875679999999828
  endloop
endfacet
facet normal 0.9458162558586996 0.0 -0.32470234084994054
  outer loop
    vertex 34.071562788793884 31.12726839810784 0.9875679999999828
    vertex 34.71289278879389 26.127268398107844 2.855679999999983
    vertex 34.071562788793884 26.127268398107844 0.9875679999999828
  endloop
endfacet
facet normal 1.0 0.0 0.0
  outer loop
    vertex 34.071562788793884 31.12726839810784 0.9875679999999828
    vertex 34.071562788793884 26.127268398107844 0.9875679999999828
    vertex 34.071562788793884 31.12726839810784 -1.6919798895287383e-14
  endloop
endfacet
facet normal 1.0 0.0 0.0
  outer loop
    vertex 34.071562788793884 31.12726839810784 -1.6919798895287383e-14
    vertex 34.071562788793884 26.127268398107844 0.9875679999999828
    vertex 34.071562788793884 26.127268398107844 -1.6919798895287383e-14
  endloop
endfacet
facet normal 0.0 1.0 0.0
  outer loop
    vertex 34.825212788793884 31.12726839810784 2.9999999999999827
    vertex 34.71289278879389 31.12726839810784 2.855679999999983
    vertex 32.98973278879389 31.12726839810784 2.9999999999999827
  endloop
endfacet
facet normal 0.0 1.0 0.0
  outer loop
    vertex 32.98973278879389 31.12726839810784 2.9999999999999827
    vertex 34.71289278879389 31.12726839810784 2.855679999999983
    vertex 34.071562788793884 31.12726839810784 0.9875679999999828
  endloop
endfacet
facet normal 0.0 1.0 0.0
  outer loop
    vertex 32.98973278879389 31.12726839810784 2.9999999999999827
    vertex 34.071562788793884 31.12726839810784 0.9875679999999828
    vertex 34.071562788793884 31.12726839810784 -1.6919798895287383e-14
  endloop
endfacet
facet normal 0.0 1.0 0.0
  outer loop
    vertex 32.98973278879389 31.12726839810784 2.9999999999999827
    vertex 34.071562788793884 31.12726839810784 -1.6919798895287383e-14
    vertex 32.98973278879389 31.12726839810784 -1.6919798895287383e-14
  endloop
endfacet
facet normal 1.0 0.0 0.0
  outer loop
    vertex 32.98973278879389 41.12726839810783 2.9999999999999827
    vertex 32.98973278879389 31.12726839810784 2.9999999999999827
    vertex 32.98973278879389 41.12726839810783 -1.6919798895287383e-14
  endloop
endfacet
facet normal 1.0 0.0 0.0
  outer loop
    vertex 32.98973278879389 41.12726839810783 -1.6919798895287383e-14
    vertex 32.98973278879389 31.12726839810784 2.9999999999999827
    vertex 32.98973278879389 31.12726839810784 -1.6919798895287383e-14
  endloop
endfacet
facet normal 0.8660221152342837 -0.5000056958926938 0.0
  outer loop
    vertex 28.075432788793886 38.38228839810784 2.9999999999999827
    vertex 27.161132788793882 36.798698398107845 2.9999999999999827
    vertex 28.075432788793886 38.38228839810784 -1.6919798895287383e-14
  endloop
endfacet
facet normal 0.8660221152342836 -0.500005695892694 -4.058423803926987e-17
  outer loop
    vertex 28.075432788793886 38.38228839810784 -1.6919798895287383e-14
    vertex 27.161132788793882 36.798698398107845 2.9999999999999827
    vertex 27.161132788793882 36.798698398107845 -1.6919798895287383e-14
  endloop
endfacet
facet normal 0.8660221152342846 0.5000056958926925 2.0292119019634814e-17
  outer loop
    vertex 27.161132788793882 36.798698398107845 2.9999999999999827
    vertex 28.075432788793886 35.215108398107844 2.9999999999999827
    vertex 28.075432788793886 35.215108398107844 -1.6919798895287383e-14
  endloop
endfacet
facet normal -1.0 0.0 0.0
  outer loop
    vertex 14.989732788793885 41.12726839810783 -1.6919798895287383e-14
    vertex 14.989732788793885 30.127268398107837 2.9999999999999827
    vertex 14.989732788793885 41.12726839810783 2.9999999999999827
  endloop
endfacet
facet normal -1.0 0.0 0.0
  outer loop
    vertex 14.989732788793885 30.127268398107837 45.14973999999999
    vertex 14.989732788793885 26.127268398107844 30.149739999999987
    vertex 14.989732788793885 26.127268398107844 45.14973999999999
  endloop
endfacet
facet normal -1.0 0.0 0.0
  outer loop
    vertex 14.989732788793885 26.127268398107844 30.149739999999987
    vertex 14.989732788793885 30.127268398107837 45.14973999999999
    vertex 14.989732788793885 26.127268398107844 -1.6919798895287383e-14
  endloop
endfacet
facet normal -1.0 0.0 0.0
  outer loop
    vertex 14.989732788793885 26.127268398107844 -1.6919798895287383e-14
    vertex 14.989732788793885 30.127268398107837 45.14973999999999
    vertex 14.989732788793885 30.127268398107837 30.149739999999987
  endloop
endfacet
facet normal -1.0 0.0 0.0
  outer loop
    vertex 14.989732788793885 30.127268398107837 2.9999999999999827
    vertex 14.989732788793885 26.127268398107844 -1.6919798895287383e-14
    vertex 14.989732788793885 30.127268398107837 30.149739999999987
  endloop
endfacet
facet normal -1.0 0.0 0.0
  outer loop
    vertex 14.989732788793885 41.12726839810783 -1.6919798895287383e-14
    vertex 14.989732788793885 26.127268398107844 -1.6919798895287383e-14
    vertex 14.989732788793885 30.127268398107837 2.9999999999999827
  endloop
endfacet
facet normal 0.0 -1.0 0.0
  outer loop
    vertex 28.089432788793886 26.127268398107844 9.999999999999982
    vertex 14.989732788793885 26.127268398107844 -1.6919798895287383e-14
    vertex 34.071562788793884 26.127268398107844 -1.6919798895287383e-14
  endloop
endfacet
facet normal 0.0 -1.0 0.0
  outer loop
    vertex 23.390032788793885 26.127268398107844 9.999999999999982
    vertex 14.989732788793885 26.127268398107844 -1.6919798895287383e-14
    vertex 28.089432788793886 26.127268398107844 9.999999999999982
  endloop
endfacet
facet normal 0.0 -1.0 0.0
  outer loop
    vertex 14.989732788793885 26.127268398107844 30.149739999999987
    vertex 14.989732788793885 26.127268398107844 -1.6919798895287383e-14
    vertex 23.390032788793885 26.127268398107844 9.999999999999982
  endloop
endfacet
facet normal 0.0 -1.0 0.0
  outer loop
    vertex 23.390032788793885 26.127268398107844 30.149739999999987
    vertex 14.989732788793885 26.127268398107844 30.149739999999987
    vertex 23.390032788793885 26.127268398107844 9.999999999999982
  endloop
endfacet
facet normal 0.0 -1.0 0.0
  outer loop
    vertex 14.989732788793885 26.127268398107844 30.149739999999987
    vertex 23.390032788793885 26.127268398107844 30.149739999999987
    vertex 23.390032788793885 26.127268398107844 45.14973999999999
  endloop
endfacet
facet normal 0.0 -1.0 0.0
  outer loop
    vertex 14.989732788793885 26.127268398107844 30.149739999999987
    vertex 23.390032788793885 26.127268398107844 45.14973999999999
    vertex 14.989732788793885 26.127268398107844 45.14973999999999
  endloop
endfacet
facet normal 0.0 -1.0 0.0
  outer loop
    vertex 31.689732788793883 26.127268398107844 10.214399999999982
    vertex 34.71289278879389 26.127268398107844 2.855679999999983
    vertex 33.28973278879388 26.127268398107844 10.214399999999982
  endloop
endfacet
facet normal 0.0 0.0 1.0
  outer loop
    vertex 28.089432788793886 26.127268398107844 9.999999999999982
    vertex 25.739732788793884 28.477018398107845 9.999999999999982
    vertex 23.390032788793885 26.127268398107844 9.999999999999982
  endloop
endfacet
facet normal -0.707114304439476 -0.7070992578535747 1.0676129080731624e-17
  outer loop
    vertex 25.739732788793884 28.477018398107845 45.14973999999999
    vertex 28.089432788793886 26.127268398107844 30.149739999999987
    vertex 28.089432788793886 26.127268398107844 45.14973999999999
  endloop
endfacet
facet normal -0.707114304439476 -0.7070992578535747 1.0676129080731624e-17
  outer loop
    vertex 28.089432788793886 26.127268398107844 30.149739999999987
    vertex 25.739732788793884 28.477018398107845 45.14973999999999
    vertex 28.089432788793886 26.127268398107844 9.999999999999982
  endloop
endfacet
facet normal -0.707114304439476 -0.7070992578535747 1.0676129080731624e-17
  outer loop
    vertex 28.089432788793886 26.127268398107844 9.999999999999982
    vertex 25.739732788793884 28.477018398107845 45.14973999999999
    vertex 25.739732788793884 28.477018398107845 30.149739999999987
  endloop
endfacet
facet normal -0.7071143044394759 -0.7070992578535747 1.0676129080731621e-17
  outer loop
    vertex 25.739732788793884 28.477018398107845 9.999999999999982
    vertex 28.089432788793886 26.127268398107844 9.999999999999982
    vertex 25.739732788793884 28.477018398107845 30.149739999999987
  endloop
endfacet
facet normal 1.0 0.0 0.0
  outer loop
    vertex 30.889732788793886 29.127268398107844 11.599999999999982
    vertex 30.889732788793886 26.127268398107844 30.149739999999987
    vertex 30.889732788793886 26.127268398107844 11.599999999999982
  endloop
endfacet
facet normal 1.0 0.0 0.0
  outer loop
    vertex 30.889732788793886 29.127268398107844 11.599999999999982
    vertex 30.889732788793886 26.127268398107844 45.14973999999999
    vertex 30.889732788793886 26.127268398107844 30.149739999999987
  endloop
endfacet
facet normal 1.0 0.0 0.0
  outer loop
    vertex 30.889732788793886 26.127268398107844 45.14973999999999
    vertex 30.889732788793886 29.127268398107844 11.599999999999982
    vertex 30.889732788793886 29.127268398107844 45.14973999999999
  endloop
endfacet
facet normal 0.8660190526287397 0.0 0.5000110003630124
  outer loop
    vertex 30.889732788793886 29.127268398107844 11.599999999999982
    vertex 31.689732788793883 26.127268398107844 10.214399999999982
    vertex 31.689732788793883 29.127268398107844 10.214399999999982
  endloop
endfacet
facet normal 0.8660190526287397 0.0 0.5000110003630124
  outer loop
    vertex 30.889732788793886 29.127268398107844 11.599999999999982
    vertex 30.889732788793886 26.127268398107844 11.599999999999982
    vertex 31.689732788793883 26.127268398107844 10.214399999999982
  endloop
endfacet
facet normal 0.0 0.0 1.0
  outer loop
    vertex 33.28973278879388 29.127268398107844 10.214399999999982
    vertex 31.689732788793883 29.127268398107844 10.214399999999982
    vertex 33.28973278879388 26.127268398107844 10.214399999999982
  endloop
endfacet
facet normal 0.0 0.0 1.0
  outer loop
    vertex 33.28973278879388 26.127268398107844 10.214399999999982
    vertex 31.689732788793883 29.127268398107844 10.214399999999982
    vertex 31.689732788793883 26.127268398107844 10.214399999999982
  endloop
endfacet
facet normal -0.8660190526287397 0.0 0.5000110003630124
  outer loop
    vertex 33.28973278879388 29.127268398107844 10.214399999999982
    vertex 34.08973278879388 26.127268398107844 11.599999999999982
    vertex 34.08973278879388 29.127268398107844 11.599999999999982
  endloop
endfacet
facet normal -0.8660190526287397 0.0 0.5000110003630124
  outer loop
    vertex 33.28973278879388 29.127268398107844 10.214399999999982
    vertex 33.28973278879388 26.127268398107844 10.214399999999982
    vertex 34.08973278879388 26.127268398107844 11.599999999999982
  endloop
endfacet
facet normal -1.0 0.0 0.0
  outer loop
    vertex 34.08973278879388 29.127268398107844 45.01264000000003
    vertex 34.08973278879388 26.127268398107844 11.599999999999982
    vertex 34.08973278879388 26.127268398107844 45.01264000000003
  endloop
endfacet
facet normal -1.0 0.0 0.0
  outer loop
    vertex 34.08973278879388 26.127268398107844 11.599999999999982
    vertex 34.08973278879388 29.127268398107844 45.01264000000003
    vertex 34.08973278879388 29.127268398107844 30.012640000000033
  endloop
endfacet
facet normal -1.0 0.0 0.0
  outer loop
    vertex 34.08973278879388 29.127268398107844 11.599999999999982
    vertex 34.08973278879388 26.127268398107844 11.599999999999982
    vertex 34.08973278879388 29.127268398107844 30.012640000000033
  endloop
endfacet
facet normal 1.0 0.0 0.0
  outer loop
    vertex 35.98973278879389 27.127268398107837 9.999999999999982
    vertex 35.98973278879389 26.127268398107844 30.012640000000033
    vertex 35.98973278879389 26.127268398107844 9.999999999999982
  endloop
endfacet
facet normal 1.0 0.0 0.0
  outer loop
    vertex 35.98973278879389 27.127268398107837 9.999999999999982
    vertex 35.98973278879389 26.127268398107844 45.01264000000003
    vertex 35.98973278879389 26.127268398107844 30.012640000000033
  endloop
endfacet
facet normal 1.0 0.0 0.0
  outer loop
    vertex 35.98973278879389 26.127268398107844 45.01264000000003
    vertex 35.98973278879389 27.127268398107837 9.999999999999982
    vertex 35.98973278879389 27.127268398107837 45.01264000000003
  endloop
endfacet
facet normal 0.0 0.0 1.0
  outer loop
    vertex 48.98973278879389 27.127268398107837 9.999999999999982
    vertex 35.98973278879389 27.127268398107837 9.999999999999982
    vertex 48.98973278879389 26.127268398107844 9.999999999999982
  endloop
endfacet
facet normal 0.0 0.0 1.0
  outer loop
    vertex 48.98973278879389 26.127268398107844 9.999999999999982
    vertex 35.98973278879389 27.127268398107837 9.999999999999982
    vertex 35.98973278879389 26.127268398107844 9.999999999999982
  endloop
endfacet
facet normal -1.0 0.0 0.0
  outer loop
    vertex 48.98973278879389 27.127268398107837 45.01264000000003
    vertex 48.98973278879389 26.127268398107844 30.012640000000033
    vertex 48.98973278879389 26.127268398107844 45.01264000000003
  endloop
endfacet
facet normal -1.0 0.0 0.0
  outer loop
    vertex 48.98973278879389 26.127268398107844 30.012640000000033
    vertex 48.98973278879389 27.127268398107837 45.01264000000003
    vertex 48.98973278879389 26.127268398107844 9.999999999999982
  endloop
endfacet
facet normal -1.0 0.0 0.0
  outer loop
    vertex 48.98973278879389 26.127268398107844 9.999999999999982
    vertex 48.98973278879389 27.127268398107837 45.01264000000003
    vertex 48.98973278879389 27.127268398107837 30.012640000000033
  endloop
endfacet
facet normal -1.0 0.0 0.0
  outer loop
    vertex 48.98973278879389 27.127268398107837 9.999999999999982
    vertex 48.98973278879389 26.127268398107844 9.999999999999982
    vertex 48.98973278879389 27.127268398107837 30.012640000000033
  endloop
endfacet
facet normal 1.0 0.0 0.0
  outer loop
    vertex 50.88973278879387 29.127268398107844 11.599999999999982
    vertex 50.88973278879387 26.127268398107844 30.012640000000033
    vertex 50.88973278879387 26.127268398107844 11.599999999999982
  endloop
endfacet
facet normal 1.0 0.0 0.0
  outer loop
    vertex 50.88973278879387 29.127268398107844 11.599999999999982
    vertex 50.88973278879387 26.127268398107844 45.01264000000003
    vertex 50.88973278879387 26.127268398107844 30.012640000000033
  endloop
endfacet
facet normal 1.0 0.0 0.0
  outer loop
    vertex 50.88973278879387 26.127268398107844 45.01264000000003
    vertex 50.88973278879387 29.127268398107844 11.599999999999982
    vertex 50.88973278879387 29.127268398107844 45.01264000000003
  endloop
endfacet
facet normal 0.8660190526287367 2.6505476551966084e-17 0.5000110003630176
  outer loop
    vertex 50.88973278879387 29.127268398107844 11.599999999999982
    vertex 51.68973278879388 26.127268398107844 10.214399999999982
    vertex 51.68973278879388 29.127268398107844 10.214399999999982
  endloop
endfacet
facet normal 0.8660190526287367 2.650547655196608e-17 0.5000110003630176
  outer loop
    vertex 50.88973278879387 29.127268398107844 11.599999999999982
    vertex 50.88973278879387 26.127268398107844 11.599999999999982
    vertex 51.68973278879388 26.127268398107844 10.214399999999982
  endloop
endfacet
facet normal 0.0 0.0 1.0
  outer loop
    vertex 53.28973278879389 29.127268398107844 10.214399999999982
    vertex 51.68973278879388 29.127268398107844 10.214399999999982
    vertex 53.28973278879389 26.127268398107844 10.214399999999982
  endloop
endfacet
facet normal 0.0 0.0 1.0
  outer loop
    vertex 53.28973278879389 26.127268398107844 10.214399999999982
    vertex 51.68973278879388 29.127268398107844 10.214399999999982
    vertex 51.68973278879388 26.127268398107844 10.214399999999982
  endloop
endfacet
facet normal -0.8660190526287395 2.6505476551966182e-17 0.5000110003630125
  outer loop
    vertex 53.28973278879389 29.127268398107844 10.214399999999982
    vertex 54.08973278879389 26.127268398107844 11.599999999999982
    vertex 54.08973278879389 29.127268398107844 11.599999999999982
  endloop
endfacet
facet normal -0.8660190526287397 0.0 0.5000110003630124
  outer loop
    vertex 53.28973278879389 29.127268398107844 10.214399999999982
    vertex 53.28973278879389 26.127268398107844 10.214399999999982
    vertex 54.08973278879389 26.127268398107844 11.599999999999982
  endloop
endfacet
facet normal -1.0 0.0 0.0
  outer loop
    vertex 54.08973278879389 29.127268398107844 45.00937899999998
    vertex 54.08973278879389 26.127268398107844 11.599999999999982
    vertex 54.08973278879389 26.127268398107844 45.00937899999998
  endloop
endfacet
facet normal -1.0 0.0 0.0
  outer loop
    vertex 54.08973278879389 26.127268398107844 11.599999999999982
    vertex 54.08973278879389 29.127268398107844 45.00937899999998
    vertex 54.08973278879389 29.127268398107844 30.009378999999985
  endloop
endfacet
facet normal -1.0 0.0 0.0
  outer loop
    vertex 54.08973278879389 29.127268398107844 11.599999999999982
    vertex 54.08973278879389 26.127268398107844 11.599999999999982
    vertex 54.08973278879389 29.127268398107844 30.009378999999985
  endloop
endfacet
facet normal 1.0 0.0 0.0
  outer loop
    vertex 64.98973278879387 41.12726839810783 -1.6919798895287383e-14
    vertex 64.98973278879387 30.127268398107837 2.9999999999999827
    vertex 64.98973278879387 26.127268398107844 -1.6919798895287383e-14
  endloop
endfacet
facet normal 1.0 0.0 0.0
  outer loop
    vertex 64.98973278879387 30.127268398107837 2.9999999999999827
    vertex 64.98973278879387 26.127268398107844 30.009378999999985
    vertex 64.98973278879387 26.127268398107844 -1.6919798895287383e-14
  endloop
endfacet
facet normal 1.0 0.0 0.0
  outer loop
    vertex 64.98973278879387 30.127268398107837 2.9999999999999827
    vertex 64.98973278879387 26.127268398107844 45.00937899999998
    vertex 64.98973278879387 26.127268398107844 30.009378999999985
  endloop
endfacet
facet normal 1.0 0.0 0.0
  outer loop
    vertex 64.98973278879387 26.127268398107844 45.00937899999998
    vertex 64.98973278879387 30.127268398107837 2.9999999999999827
    vertex 64.98973278879387 30.127268398107837 45.00937899999998
  endloop
endfacet
facet normal 1.0 0.0 0.0
  outer loop
    vertex 64.98973278879387 30.127268398107837 45.00937899999998
    vertex 64.98973278879387 30.127268398107837 2.9999999999999827
    vertex 64.98973278879387 30.127268398107837 30.009378999999985
  endloop
endfacet
facet normal 0.8660221152342844 0.5000056958926925 0.0
  outer loop
    vertex 27.161132788793882 36.798698398107845 2.9999999999999827
    vertex 28.075432788793886 35.215108398107844 -1.6919798895287383e-14
    vertex 27.161132788793882 36.798698398107845 -1.6919798895287383e-14
  endloop
endfacet
facet normal 0.0 -1.0 0.0
  outer loop
    vertex 28.075432788793886 38.38228839810784 2.9999999999999827
    vertex 29.90403278879388 38.38228839810784 -1.6919798895287383e-14
    vertex 29.90403278879388 38.38228839810784 2.9999999999999827
  endloop
endfacet
facet normal 0.0 -1.0 0.0
  outer loop
    vertex 28.075432788793886 38.38228839810784 2.9999999999999827
    vertex 28.075432788793886 38.38228839810784 -1.6919798895287383e-14
    vertex 29.90403278879388 38.38228839810784 -1.6919798895287383e-14
  endloop
endfacet
facet normal -0.8660292193436667 -0.4999933911993232 0.0
  outer loop
    vertex 29.90403278879388 38.38228839810784 2.9999999999999827
    vertex 30.81830278879388 36.798698398107845 -1.6919798895287383e-14
    vertex 30.81830278879388 36.798698398107845 2.9999999999999827
  endloop
endfacet
facet normal -0.8660292193436667 -0.4999933911993232 -2.0292285478932666e-17
  outer loop
    vertex 29.90403278879388 38.38228839810784 -1.6919798895287383e-14
    vertex 30.81830278879388 36.798698398107845 -1.6919798895287383e-14
    vertex 29.90403278879388 38.38228839810784 2.9999999999999827
  endloop
endfacet
facet normal -0.8660292193436674 0.49999339119932185 0.0
  outer loop
    vertex 30.81830278879388 36.798698398107845 -1.6919798895287383e-14
    vertex 29.90403278879388 35.215108398107844 2.9999999999999827
    vertex 30.81830278879388 36.798698398107845 2.9999999999999827
  endloop
endfacet
facet normal -0.8660292193436674 0.4999933911993219 0.0
  outer loop
    vertex 30.81830278879388 36.798698398107845 -1.6919798895287383e-14
    vertex 29.90403278879388 35.215108398107844 -1.6919798895287383e-14
    vertex 29.90403278879388 35.215108398107844 2.9999999999999827
  endloop
endfacet
facet normal 0.0 1.0 0.0
  outer loop
    vertex 29.90403278879388 35.215108398107844 2.9999999999999827
    vertex 29.90403278879388 35.215108398107844 -1.6919798895287383e-14
    vertex 28.075432788793886 35.215108398107844 2.9999999999999827
  endloop
endfacet
facet normal 0.0 1.0 0.0
  outer loop
    vertex 28.075432788793886 35.215108398107844 2.9999999999999827
    vertex 29.90403278879388 35.215108398107844 -1.6919798895287383e-14
    vertex 28.075432788793886 35.215108398107844 -1.6919798895287383e-14
  endloop
endfacet
facet normal 0.0 0.0 1.0
  outer loop
    vertex 54.98973278879389 31.12726839810784 2.9999999999999827
    vertex 45.09543278879388 31.12726839810784 2.9999999999999827
    vertex 45.09543278879388 30.127268398107837 2.9999999999999827
  endloop
endfacet
facet normal 0.0 0.0 1.0
  outer loop
    vertex 64.98973278879387 30.127268398107837 2.9999999999999827
    vertex 60.90403278879389 35.215108398107844 2.9999999999999827
    vertex 54.98973278879389 31.12726839810784 2.9999999999999827
  endloop
endfacet
facet normal 0.0 0.0 1.0
  outer loop
    vertex 64.98973278879387 30.127268398107837 2.9999999999999827
    vertex 54.98973278879389 31.12726839810784 2.9999999999999827
    vertex 45.09543278879388 30.127268398107837 2.9999999999999827
  endloop
endfacet
facet normal 0.0 0.0 1.0
  outer loop
    vertex 60.90403278879389 35.215108398107844 2.9999999999999827
    vertex 59.075432788793876 35.215108398107844 2.9999999999999827
    vertex 54.98973278879389 31.12726839810784 2.9999999999999827
  endloop
endfacet
facet normal 0.0 0.0 1.0
  outer loop
    vertex 64.98973278879387 41.12726839810783 2.9999999999999827
    vertex 54.98973278879389 41.12726839810783 2.9999999999999827
    vertex 59.075432788793876 38.38228839810784 2.9999999999999827
  endloop
endfacet
facet normal 0.0 0.0 1.0
  outer loop
    vertex 64.98973278879387 41.12726839810783 2.9999999999999827
    vertex 61.81833278879388 36.798698398107845 2.9999999999999827
    vertex 64.98973278879387 30.127268398107837 2.9999999999999827
  endloop
endfacet
facet normal 0.0 0.0 1.0
  outer loop
    vertex 64.98973278879387 41.12726839810783 2.9999999999999827
    vertex 59.075432788793876 38.38228839810784 2.9999999999999827
    vertex 60.90403278879389 38.38228839810784 2.9999999999999827
  endloop
endfacet
facet normal 0.0 0.0 1.0
  outer loop
    vertex 64.98973278879387 30.127268398107837 2.9999999999999827
    vertex 61.81833278879388 36.798698398107845 2.9999999999999827
    vertex 60.90403278879389 35.215108398107844 2.9999999999999827
  endloop
endfacet
facet normal 0.0 0.0 1.0
  outer loop
    vertex 64.98973278879387 41.12726839810783 2.9999999999999827
    vertex 60.90403278879389 38.38228839810784 2.9999999999999827
    vertex 61.81833278879388 36.798698398107845 2.9999999999999827
  endloop
endfacet
facet normal 0.0 0.0 1.0
  outer loop
    vertex 59.075432788793876 38.38228839810784 2.9999999999999827
    vertex 54.98973278879389 41.12726839810783 2.9999999999999827
    vertex 58.161132788793886 36.798698398107845 2.9999999999999827
  endloop
endfacet
facet normal 0.0 0.0 1.0
  outer loop
    vertex 59.075432788793876 35.215108398107844 2.9999999999999827
    vertex 58.161132788793886 36.798698398107845 2.9999999999999827
    vertex 54.98973278879389 41.12726839810783 2.9999999999999827
  endloop
endfacet
facet normal 0.0 0.0 1.0
  outer loop
    vertex 59.075432788793876 35.215108398107844 2.9999999999999827
    vertex 54.98973278879389 41.12726839810783 2.9999999999999827
    vertex 54.98973278879389 31.12726839810784 2.9999999999999827
  endloop
endfacet
facet normal -1.0 0.0 0.0
  outer loop
    vertex 56.23973278879387 30.127268398107837 45.00937899999998
    vertex 56.23973278879387 29.127268398107844 11.599999999999982
    vertex 56.23973278879387 29.127268398107844 45.00937899999998
  endloop
endfacet
facet normal -1.0 0.0 0.0
  outer loop
    vertex 56.23973278879387 29.127268398107844 11.599999999999982
    vertex 56.23973278879387 30.127268398107837 45.00937899999998
    vertex 56.23973278879387 30.127268398107837 30.009378999999985
  endloop
endfacet
facet normal -1.0 0.0 0.0
  outer loop
    vertex 56.23973278879387 30.127268398107837 11.599999999999982
    vertex 56.23973278879387 29.127268398107844 11.599999999999982
    vertex 56.23973278879387 30.127268398107837 30.009378999999985
  endloop
endfacet
facet normal -0.9659264362120534 3.6325194296508185e-17 0.25881676882822324
  outer loop
    vertex 55.73733278879389 30.127268398107837 9.72499999999998
    vertex 56.23973278879387 29.127268398107844 11.599999999999982
    vertex 56.23973278879387 30.127268398107837 11.599999999999982
  endloop
endfacet
facet normal -0.9659264362120534 -3.632519429650817e-17 0.25881676882822324
  outer loop
    vertex 55.73733278879389 30.127268398107837 9.72499999999998
    vertex 55.73733278879389 29.127268398107844 9.72499999999998
    vertex 56.23973278879387 29.127268398107844 11.599999999999982
  endloop
endfacet
facet normal -0.7071067811865455 0.0 0.7071067811865497
  outer loop
    vertex 55.73733278879389 30.127268398107837 9.72499999999998
    vertex 54.36473278879388 30.127268398107837 8.352399999999982
    vertex 55.73733278879389 29.127268398107844 9.72499999999998
  endloop
endfacet
facet normal -0.7071067811865454 9.924152892847126e-17 0.7071067811865498
  outer loop
    vertex 55.73733278879389 29.127268398107844 9.72499999999998
    vertex 54.36473278879388 30.127268398107837 8.352399999999982
    vertex 54.36473278879388 29.127268398107844 8.352399999999982
  endloop
endfacet
facet normal -0.25881676882823057 -3.632519429650805e-17 0.9659264362120515
  outer loop
    vertex 54.36473278879388 30.127268398107837 8.352399999999982
    vertex 52.48973278879388 30.127268398107837 7.849999999999983
    vertex 54.36473278879388 29.127268398107844 8.352399999999982
  endloop
endfacet
facet normal -0.2588167688282305 1.0897558288952415e-16 0.9659264362120515
  outer loop
    vertex 54.36473278879388 29.127268398107844 8.352399999999982
    vertex 52.48973278879388 30.127268398107837 7.849999999999983
    vertex 52.48973278879388 29.127268398107844 7.849999999999983
  endloop
endfacet
facet normal 0.2588167688282305 0.0 0.9659264362120515
  outer loop
    vertex 52.48973278879388 30.127268398107837 7.849999999999983
    vertex 50.61473278879388 30.127268398107837 8.352399999999982
    vertex 52.48973278879388 29.127268398107844 7.849999999999983
  endloop
endfacet
facet normal 0.2588167688282306 0.0 0.9659264362120515
  outer loop
    vertex 52.48973278879388 29.127268398107844 7.849999999999983
    vertex 50.61473278879388 30.127268398107837 8.352399999999982
    vertex 50.61473278879388 29.127268398107844 8.352399999999982
  endloop
endfacet
facet normal 0.7071067811865497 9.924152892847248e-17 0.7071067811865454
  outer loop
    vertex 49.24213278879389 30.127268398107837 9.72499999999998
    vertex 50.61473278879388 29.127268398107844 8.352399999999982
    vertex 50.61473278879388 30.127268398107837 8.352399999999982
  endloop
endfacet
facet normal 0.7071067811865497 0.0 0.7071067811865454
  outer loop
    vertex 49.24213278879389 30.127268398107837 9.72499999999998
    vertex 49.24213278879389 29.127268398107844 9.72499999999998
    vertex 50.61473278879388 29.127268398107844 8.352399999999982
  endloop
endfacet
facet normal 0.9659264362120511 -1.453007771860324e-16 0.25881676882823146
  outer loop
    vertex 48.73973278879389 30.127268398107837 11.599999999999982
    vertex 49.24213278879389 29.127268398107844 9.72499999999998
    vertex 49.24213278879389 30.127268398107837 9.72499999999998
  endloop
endfacet
facet normal 0.9659264362120513 -3.632519429650809e-17 0.2588167688282314
  outer loop
    vertex 48.73973278879389 30.127268398107837 11.599999999999982
    vertex 48.73973278879389 29.127268398107844 11.599999999999982
    vertex 49.24213278879389 29.127268398107844 9.72499999999998
  endloop
endfacet
facet normal 1.0 0.0 0.0
  outer loop
    vertex 48.73973278879389 30.127268398107837 11.599999999999982
    vertex 48.73973278879389 29.127268398107844 30.012640000000033
    vertex 48.73973278879389 29.127268398107844 11.599999999999982
  endloop
endfacet
facet normal 1.0 0.0 0.0
  outer loop
    vertex 48.73973278879389 30.127268398107837 11.599999999999982
    vertex 48.73973278879389 29.127268398107844 45.01264000000003
    vertex 48.73973278879389 29.127268398107844 30.012640000000033
  endloop
endfacet
facet normal 1.0 0.0 0.0
  outer loop
    vertex 48.73973278879389 29.127268398107844 45.01264000000003
    vertex 48.73973278879389 30.127268398107837 11.599999999999982
    vertex 48.73973278879389 30.127268398107837 45.01264000000003
  endloop
endfacet
facet normal -1.0 0.0 0.0
  outer loop
    vertex 36.23973278879389 30.127268398107837 45.01264000000003
    vertex 36.23973278879389 29.127268398107844 11.599999999999982
    vertex 36.23973278879389 29.127268398107844 45.01264000000003
  endloop
endfacet
facet normal -1.0 0.0 0.0
  outer loop
    vertex 36.23973278879389 29.127268398107844 11.599999999999982
    vertex 36.23973278879389 30.127268398107837 45.01264000000003
    vertex 36.23973278879389 30.127268398107837 30.012640000000033
  endloop
endfacet
facet normal -1.0 0.0 0.0
  outer loop
    vertex 36.23973278879389 30.127268398107837 11.599999999999982
    vertex 36.23973278879389 29.127268398107844 11.599999999999982
    vertex 36.23973278879389 30.127268398107837 30.012640000000033
  endloop
endfacet
facet normal -0.9659264362120504 1.0897558288952422e-16 0.25881676882823407
  outer loop
    vertex 35.73733278879388 30.127268398107837 9.72499999999998
    vertex 36.23973278879389 29.127268398107844 11.599999999999982
    vertex 36.23973278879389 30.127268398107837 11.599999999999982
  endloop
endfacet
facet normal -0.9659264362120504 0.0 0.25881676882823407
  outer loop
    vertex 35.73733278879388 30.127268398107837 9.72499999999998
    vertex 35.73733278879388 29.127268398107844 9.72499999999998
    vertex 36.23973278879389 29.127268398107844 11.599999999999982
  endloop
endfacet
facet normal -0.7071067811865482 0.0 0.7071067811865468
  outer loop
    vertex 34.36473278879389 30.127268398107837 8.352399999999982
    vertex 35.73733278879388 29.127268398107844 9.72499999999998
    vertex 35.73733278879388 30.127268398107837 9.72499999999998
  endloop
endfacet
facet normal -0.7071067811865482 0.0 0.7071067811865468
  outer loop
    vertex 34.36473278879389 30.127268398107837 8.352399999999982
    vertex 34.36473278879389 29.127268398107844 8.352399999999982
    vertex 35.73733278879388 29.127268398107844 9.72499999999998
  endloop
endfacet
facet normal -0.25881676882823124 0.0 0.9659264362120513
  outer loop
    vertex 34.36473278879389 30.127268398107837 8.352399999999982
    vertex 32.48973278879389 30.127268398107837 7.849999999999983
    vertex 34.36473278879389 29.127268398107844 8.352399999999982
  endloop
endfacet
facet normal -0.2588167688282313 7.26503885930165e-17 0.9659264362120513
  outer loop
    vertex 34.36473278879389 29.127268398107844 8.352399999999982
    vertex 32.48973278879389 30.127268398107837 7.849999999999983
    vertex 32.48973278879389 29.127268398107844 7.849999999999983
  endloop
endfacet
facet normal 0.2588167688282298 0.0 0.9659264362120518
  outer loop
    vertex 32.48973278879389 30.127268398107837 7.849999999999983
    vertex 30.61473278879388 30.127268398107837 8.352399999999982
    vertex 32.48973278879389 29.127268398107844 7.849999999999983
  endloop
endfacet
facet normal 0.2588167688282298 0.0 0.9659264362120518
  outer loop
    vertex 32.48973278879389 29.127268398107844 7.849999999999983
    vertex 30.61473278879388 30.127268398107837 8.352399999999982
    vertex 30.61473278879388 29.127268398107844 8.352399999999982
  endloop
endfacet
facet normal 0.7071067811865469 1.9848305785694377e-16 0.7071067811865481
  outer loop
    vertex 30.61473278879388 30.127268398107837 8.352399999999982
    vertex 29.242132788793878 30.127268398107837 9.72499999999998
    vertex 30.61473278879388 29.127268398107844 8.352399999999982
  endloop
endfacet
facet normal 0.7071067811865468 0.0 0.7071067811865482
  outer loop
    vertex 30.61473278879388 29.127268398107844 8.352399999999982
    vertex 29.242132788793878 30.127268398107837 9.72499999999998
    vertex 29.242132788793878 29.127268398107844 9.72499999999998
  endloop
endfacet
facet normal 0.965926436212052 0.0 0.25881676882822874
  outer loop
    vertex 28.739732788793884 30.127268398107837 11.599999999999982
    vertex 29.242132788793878 29.127268398107844 9.72499999999998
    vertex 29.242132788793878 30.127268398107837 9.72499999999998
  endloop
endfacet
facet normal 0.965926436212052 0.0 0.2588167688282287
  outer loop
    vertex 28.739732788793884 30.127268398107837 11.599999999999982
    vertex 28.739732788793884 29.127268398107844 11.599999999999982
    vertex 29.242132788793878 29.127268398107844 9.72499999999998
  endloop
endfacet
facet normal 1.0 0.0 0.0
  outer loop
    vertex 28.739732788793884 30.127268398107837 11.599999999999982
    vertex 28.739732788793884 29.127268398107844 30.149739999999987
    vertex 28.739732788793884 29.127268398107844 11.599999999999982
  endloop
endfacet
facet normal 1.0 0.0 0.0
  outer loop
    vertex 28.739732788793884 30.127268398107837 11.599999999999982
    vertex 28.739732788793884 29.127268398107844 45.14973999999999
    vertex 28.739732788793884 29.127268398107844 30.149739999999987
  endloop
endfacet
facet normal 1.0 0.0 0.0
  outer loop
    vertex 28.739732788793884 29.127268398107844 45.14973999999999
    vertex 28.739732788793884 30.127268398107837 11.599999999999982
    vertex 28.739732788793884 30.127268398107837 45.14973999999999
  endloop
endfacet
facet normal 0.0 1.0 0.0
  outer loop
    vertex 30.889732788793886 29.127268398107844 11.599999999999982
    vertex 30.61473278879388 29.127268398107844 8.352399999999982
    vertex 29.242132788793878 29.127268398107844 9.72499999999998
  endloop
endfacet
facet normal 0.0 1.0 0.0
  outer loop
    vertex 30.889732788793886 29.127268398107844 11.599999999999982
    vertex 29.242132788793878 29.127268398107844 9.72499999999998
    vertex 28.739732788793884 29.127268398107844 11.599999999999982
  endloop
endfacet
facet normal 0.0 1.0 0.0
  outer loop
    vertex 28.739732788793884 29.127268398107844 30.149739999999987
    vertex 30.889732788793886 29.127268398107844 11.599999999999982
    vertex 28.739732788793884 29.127268398107844 11.599999999999982
  endloop
endfacet
facet normal 0.0 1.0 0.0
  outer loop
    vertex 28.739732788793884 29.127268398107844 30.149739999999987
    vertex 30.889732788793886 29.127268398107844 45.14973999999999
    vertex 30.889732788793886 29.127268398107844 11.599999999999982
  endloop
endfacet
facet normal 0.0 1.0 0.0
  outer loop
    vertex 30.889732788793886 29.127268398107844 45.14973999999999
    vertex 28.739732788793884 29.127268398107844 30.149739999999987
    vertex 28.739732788793884 29.127268398107844 45.14973999999999
  endloop
endfacet
facet normal 0.0 1.0 0.0
  outer loop
    vertex 30.889732788793886 29.127268398107844 11.599999999999982
    vertex 32.48973278879389 29.127268398107844 7.849999999999983
    vertex 30.61473278879388 29.127268398107844 8.352399999999982
  endloop
endfacet
facet normal 0.0 1.0 0.0
  outer loop
    vertex 31.689732788793883 29.127268398107844 10.214399999999982
    vertex 35.73733278879388 29.127268398107844 9.72499999999998
    vertex 34.36473278879389 29.127268398107844 8.352399999999982
  endloop
endfacet
facet normal 0.0 1.0 0.0
  outer loop
    vertex 36.23973278879389 29.127268398107844 11.599999999999982
    vertex 35.73733278879388 29.127268398107844 9.72499999999998
    vertex 33.28973278879388 29.127268398107844 10.214399999999982
  endloop
endfacet
facet normal 0.0 1.0 0.0
  outer loop
    vertex 34.08973278879388 29.127268398107844 30.012640000000033
    vertex 36.23973278879389 29.127268398107844 11.599999999999982
    vertex 34.08973278879388 29.127268398107844 11.599999999999982
  endloop
endfacet
facet normal 0.0 1.0 0.0
  outer loop
    vertex 34.08973278879388 29.127268398107844 30.012640000000033
    vertex 36.23973278879389 29.127268398107844 45.01264000000003
    vertex 36.23973278879389 29.127268398107844 11.599999999999982
  endloop
endfacet
facet normal 0.0 1.0 0.0
  outer loop
    vertex 36.23973278879389 29.127268398107844 45.01264000000003
    vertex 34.08973278879388 29.127268398107844 30.012640000000033
    vertex 34.08973278879388 29.127268398107844 45.01264000000003
  endloop
endfacet
facet normal 0.0 1.0 0.0
  outer loop
    vertex 36.23973278879389 29.127268398107844 11.599999999999982
    vertex 33.28973278879388 29.127268398107844 10.214399999999982
    vertex 34.08973278879388 29.127268398107844 11.599999999999982
  endloop
endfacet
facet normal 0.0 1.0 0.0
  outer loop
    vertex 33.28973278879388 29.127268398107844 10.214399999999982
    vertex 35.73733278879388 29.127268398107844 9.72499999999998
    vertex 31.689732788793883 29.127268398107844 10.214399999999982
  endloop
endfacet
facet normal 0.0 1.0 0.0
  outer loop
    vertex 31.689732788793883 29.127268398107844 10.214399999999982
    vertex 34.36473278879389 29.127268398107844 8.352399999999982
    vertex 32.48973278879389 29.127268398107844 7.849999999999983
  endloop
endfacet
facet normal 0.0 1.0 0.0
  outer loop
    vertex 30.889732788793886 29.127268398107844 11.599999999999982
    vertex 31.689732788793883 29.127268398107844 10.214399999999982
    vertex 32.48973278879389 29.127268398107844 7.849999999999983
  endloop
endfacet
facet normal 0.0 1.0 0.0
  outer loop
    vertex 50.88973278879387 29.127268398107844 11.599999999999982
    vertex 50.61473278879388 29.127268398107844 8.352399999999982
    vertex 49.24213278879389 29.127268398107844 9.72499999999998
  endloop
endfacet
facet normal 0.0 1.0 0.0
  outer loop
    vertex 50.88973278879387 29.127268398107844 11.599999999999982
    vertex 49.24213278879389 29.127268398107844 9.72499999999998
    vertex 48.73973278879389 29.127268398107844 11.599999999999982
  endloop
endfacet
facet normal 0.0 1.0 0.0
  outer loop
    vertex 48.73973278879389 29.127268398107844 30.012640000000033
    vertex 50.88973278879387 29.127268398107844 11.599999999999982
    vertex 48.73973278879389 29.127268398107844 11.599999999999982
  endloop
endfacet
facet normal 0.0 1.0 0.0
  outer loop
    vertex 48.73973278879389 29.127268398107844 30.012640000000033
    vertex 50.88973278879387 29.127268398107844 45.01264000000003
    vertex 50.88973278879387 29.127268398107844 11.599999999999982
  endloop
endfacet
facet normal 0.0 1.0 0.0
  outer loop
    vertex 50.88973278879387 29.127268398107844 45.01264000000003
    vertex 48.73973278879389 29.127268398107844 30.012640000000033
    vertex 48.73973278879389 29.127268398107844 45.01264000000003
  endloop
endfacet
facet normal 0.0 1.0 0.0
  outer loop
    vertex 50.88973278879387 29.127268398107844 11.599999999999982
    vertex 52.48973278879388 29.127268398107844 7.849999999999983
    vertex 50.61473278879388 29.127268398107844 8.352399999999982
  endloop
endfacet
facet normal 0.0 1.0 0.0
  outer loop
    vertex 51.68973278879388 29.127268398107844 10.214399999999982
    vertex 55.73733278879389 29.127268398107844 9.72499999999998
    vertex 54.36473278879388 29.127268398107844 8.352399999999982
  endloop
endfacet
facet normal 0.0 1.0 0.0
  outer loop
    vertex 56.23973278879387 29.127268398107844 11.599999999999982
    vertex 55.73733278879389 29.127268398107844 9.72499999999998
    vertex 53.28973278879389 29.127268398107844 10.214399999999982
  endloop
endfacet
facet normal 0.0 1.0 0.0
  outer loop
    vertex 54.08973278879389 29.127268398107844 30.009378999999985
    vertex 56.23973278879387 29.127268398107844 11.599999999999982
    vertex 54.08973278879389 29.127268398107844 11.599999999999982
  endloop
endfacet
facet normal 0.0 1.0 0.0
  outer loop
    vertex 54.08973278879389 29.127268398107844 30.009378999999985
    vertex 56.23973278879387 29.127268398107844 45.00937899999998
    vertex 56.23973278879387 29.127268398107844 11.599999999999982
  endloop
endfacet
facet normal 0.0 1.0 0.0
  outer loop
    vertex 56.23973278879387 29.127268398107844 45.00937899999998
    vertex 54.08973278879389 29.127268398107844 30.009378999999985
    vertex 54.08973278879389 29.127268398107844 45.00937899999998
  endloop
endfacet
facet normal 0.0 1.0 0.0
  outer loop
    vertex 56.23973278879387 29.127268398107844 11.599999999999982
    vertex 53.28973278879389 29.127268398107844 10.214399999999982
    vertex 54.08973278879389 29.127268398107844 11.599999999999982
  endloop
endfacet
facet normal 0.0 1.0 0.0
  outer loop
    vertex 53.28973278879389 29.127268398107844 10.214399999999982
    vertex 55.73733278879389 29.127268398107844 9.72499999999998
    vertex 51.68973278879388 29.127268398107844 10.214399999999982
  endloop
endfacet
facet normal 0.0 1.0 0.0
  outer loop
    vertex 51.68973278879388 29.127268398107844 10.214399999999982
    vertex 54.36473278879388 29.127268398107844 8.352399999999982
    vertex 52.48973278879388 29.127268398107844 7.849999999999983
  endloop
endfacet
facet normal 0.0 1.0 0.0
  outer loop
    vertex 50.88973278879387 29.127268398107844 11.599999999999982
    vertex 51.68973278879388 29.127268398107844 10.214399999999982
    vertex 52.48973278879388 29.127268398107844 7.849999999999983
  endloop
endfacet
facet normal 0.0 -1.0 0.0
  outer loop
    vertex 48.98973278879389 27.127268398107837 30.012640000000033
    vertex 35.98973278879389 27.127268398107837 9.999999999999982
    vertex 48.98973278879389 27.127268398107837 9.999999999999982
  endloop
endfacet
facet normal 0.0 -1.0 0.0
  outer loop
    vertex 48.98973278879389 27.127268398107837 30.012640000000033
    vertex 35.98973278879389 27.127268398107837 45.01264000000003
    vertex 35.98973278879389 27.127268398107837 9.999999999999982
  endloop
endfacet
facet normal 0.0 -1.0 0.0
  outer loop
    vertex 35.98973278879389 27.127268398107837 45.01264000000003
    vertex 48.98973278879389 27.127268398107837 30.012640000000033
    vertex 48.98973278879389 27.127268398107837 45.01264000000003
  endloop
endfacet
facet normal 0.0 1.0 0.0
  outer loop
    vertex 54.98973278879389 41.12726839810783 2.9999999999999827
    vertex 64.98973278879387 41.12726839810783 -1.6919798895287383e-14
    vertex 54.98973278879389 41.12726839810783 -1.6919798895287383e-14
  endloop
endfacet
facet normal 0.0 1.0 0.0
  outer loop
    vertex 64.98973278879387 41.12726839810783 2.9999999999999827
    vertex 64.98973278879387 41.12726839810783 -1.6919798895287383e-14
    vertex 54.98973278879389 41.12726839810783 2.9999999999999827
  endloop
endfacet
facet normal -1.0 0.0 0.0
  outer loop
    vertex 54.98973278879389 41.12726839810783 -1.6919798895287383e-14
    vertex 54.98973278879389 31.12726839810784 2.9999999999999827
    vertex 54.98973278879389 41.12726839810783 2.9999999999999827
  endloop
endfacet
facet normal -1.0 0.0 0.0
  outer loop
    vertex 54.98973278879389 41.12726839810783 -1.6919798895287383e-14
    vertex 54.98973278879389 31.12726839810784 -1.6919798895287383e-14
    vertex 54.98973278879389 31.12726839810784 2.9999999999999827
  endloop
endfacet
facet normal 0.0 1.0 0.0
  outer loop
    vertex 54.98973278879389 31.12726839810784 2.9999999999999827
    vertex 54.98973278879389 31.12726839810784 -1.6919798895287383e-14
    vertex 45.98973278879389 31.12726839810784 -1.6919798895287383e-14
  endloop
endfacet
facet normal 0.0 1.0 0.0
  outer loop
    vertex 54.98973278879389 31.12726839810784 2.9999999999999827
    vertex 45.98973278879389 31.12726839810784 -1.6919798895287383e-14
    vertex 45.664632788793874 31.12726839810784 1.9481999999999828
  endloop
endfacet
facet normal 0.0 1.0 0.0
  outer loop
    vertex 54.98973278879389 31.12726839810784 2.9999999999999827
    vertex 45.664632788793874 31.12726839810784 1.9481999999999828
    vertex 45.09543278879388 31.12726839810784 2.9999999999999827
  endloop
endfacet
facet normal 0.8660221152342863 -0.5000056958926893 -2.0292119019634996e-17
  outer loop
    vertex 59.075432788793876 38.38228839810784 2.9999999999999827
    vertex 58.161132788793886 36.798698398107845 2.9999999999999827
    vertex 59.075432788793876 38.38228839810784 -1.6919798895287383e-14
  endloop
endfacet
facet normal 0.8660221152342863 -0.5000056958926893 -2.0292119019634996e-17
  outer loop
    vertex 59.075432788793876 38.38228839810784 -1.6919798895287383e-14
    vertex 58.161132788793886 36.798698398107845 2.9999999999999827
    vertex 58.161132788793886 36.798698398107845 -1.6919798895287383e-14
  endloop
endfacet
facet normal 0.8660221152342871 0.500005695892688 -2.0292119019634873e-17
  outer loop
    vertex 58.161132788793886 36.798698398107845 2.9999999999999827
    vertex 59.075432788793876 35.215108398107844 2.9999999999999827
    vertex 59.075432788793876 35.215108398107844 -1.6919798895287383e-14
  endloop
endfacet
facet normal 0.8660221152342871 0.500005695892688 2.029211901963487e-17
  outer loop
    vertex 58.161132788793886 36.798698398107845 2.9999999999999827
    vertex 59.075432788793876 35.215108398107844 -1.6919798895287383e-14
    vertex 58.161132788793886 36.798698398107845 -1.6919798895287383e-14
  endloop
endfacet
facet normal 0.0 -1.0 0.0
  outer loop
    vertex 59.075432788793876 38.38228839810784 2.9999999999999827
    vertex 60.90403278879389 38.38228839810784 -1.6919798895287383e-14
    vertex 60.90403278879389 38.38228839810784 2.9999999999999827
  endloop
endfacet
facet normal 0.0 -1.0 0.0
  outer loop
    vertex 59.075432788793876 38.38228839810784 2.9999999999999827
    vertex 59.075432788793876 38.38228839810784 -1.6919798895287383e-14
    vertex 60.90403278879389 38.38228839810784 -1.6919798895287383e-14
  endloop
endfacet
facet normal -0.8660221152342863 -0.5000056958926893 4.058423803927e-17
  outer loop
    vertex 60.90403278879389 38.38228839810784 2.9999999999999827
    vertex 61.81833278879388 36.798698398107845 -1.6919798895287383e-14
    vertex 61.81833278879388 36.798698398107845 2.9999999999999827
  endloop
endfacet
facet normal -0.8660221152342864 -0.5000056958926893 -2.0292119019634993e-17
  outer loop
    vertex 60.90403278879389 38.38228839810784 -1.6919798895287383e-14
    vertex 61.81833278879388 36.798698398107845 -1.6919798895287383e-14
    vertex 60.90403278879389 38.38228839810784 2.9999999999999827
  endloop
endfacet
facet normal -0.8660221152342871 0.500005695892688 2.0292119019634873e-17
  outer loop
    vertex 61.81833278879388 36.798698398107845 -1.6919798895287383e-14
    vertex 60.90403278879389 35.215108398107844 2.9999999999999827
    vertex 61.81833278879388 36.798698398107845 2.9999999999999827
  endloop
endfacet
facet normal -0.8660221152342871 0.500005695892688 -2.029211901963487e-17
  outer loop
    vertex 61.81833278879388 36.798698398107845 -1.6919798895287383e-14
    vertex 60.90403278879389 35.215108398107844 -1.6919798895287383e-14
    vertex 60.90403278879389 35.215108398107844 2.9999999999999827
  endloop
endfacet
facet normal 0.0 1.0 0.0
  outer loop
    vertex 60.90403278879389 35.215108398107844 2.9999999999999827
    vertex 60.90403278879389 35.215108398107844 -1.6919798895287383e-14
    vertex 59.075432788793876 35.215108398107844 2.9999999999999827
  endloop
endfacet
facet normal 0.0 1.0 0.0
  outer loop
    vertex 59.075432788793876 35.215108398107844 2.9999999999999827
    vertex 60.90403278879389 35.215108398107844 -1.6919798895287383e-14
    vertex 59.075432788793876 35.215108398107844 -1.6919798895287383e-14
  endloop
endfacet
facet normal 0.0 0.0 1.0
  outer loop
    vertex 30.889732788793886 26.127268398107844 45.14973999999999
    vertex 28.739732788793884 29.127268398107844 45.14973999999999
    vertex 28.089432788793886 26.127268398107844 45.14973999999999
  endloop
endfacet
facet normal 0.0 0.0 1.0
  outer loop
    vertex 28.739732788793884 29.127268398107844 45.14973999999999
    vertex 30.889732788793886 26.127268398107844 45.14973999999999
    vertex 30.889732788793886 29.127268398107844 45.14973999999999
  endloop
endfacet
facet normal 0.0 0.0 1.0
  outer loop
    vertex 23.390032788793885 26.127268398107844 45.14973999999999
    vertex 14.989732788793885 30.127268398107837 45.14973999999999
    vertex 14.989732788793885 26.127268398107844 45.14973999999999
  endloop
endfacet
facet normal 0.0 0.0 1.0
  outer loop
    vertex 14.989732788793885 30.127268398107837 45.14973999999999
    vertex 23.390032788793885 26.127268398107844 45.14973999999999
    vertex 25.739732788793884 28.477018398107845 45.14973999999999
  endloop
endfacet
facet normal 0.0 0.0 1.0
  outer loop
    vertex 14.989732788793885 30.127268398107837 45.14973999999999
    vertex 25.739732788793884 28.477018398107845 45.14973999999999
    vertex 28.739732788793884 30.127268398107837 45.14973999999999
  endloop
endfacet
facet normal 0.0 0.0 1.0
  outer loop
    vertex 28.739732788793884 30.127268398107837 45.14973999999999
    vertex 25.739732788793884 28.477018398107845 45.14973999999999
    vertex 28.089432788793886 26.127268398107844 45.14973999999999
  endloop
endfacet
facet normal 0.0 0.0 1.0
  outer loop
    vertex 28.739732788793884 30.127268398107837 45.14973999999999
    vertex 28.089432788793886 26.127268398107844 45.14973999999999
    vertex 28.739732788793884 29.127268398107844 45.14973999999999
  endloop
endfacet
facet normal 0.0 0.0 1.0
  outer loop
    vertex 50.88973278879387 26.127268398107844 45.01264000000003
    vertex 48.98973278879389 27.127268398107837 45.01264000000003
    vertex 48.98973278879389 26.127268398107844 45.01264000000003
  endloop
endfacet
facet normal 0.0 0.0 1.0
  outer loop
    vertex 35.98973278879389 26.127268398107844 45.01264000000003
    vertex 34.08973278879388 29.127268398107844 45.01264000000003
    vertex 34.08973278879388 26.127268398107844 45.01264000000003
  endloop
endfacet
facet normal 0.0 0.0 1.0
  outer loop
    vertex 34.08973278879388 29.127268398107844 45.01264000000003
    vertex 35.98973278879389 26.127268398107844 45.01264000000003
    vertex 35.98973278879389 27.127268398107837 45.01264000000003
  endloop
endfacet
facet normal 0.0 0.0 1.0
  outer loop
    vertex 34.08973278879388 29.127268398107844 45.01264000000003
    vertex 35.98973278879389 27.127268398107837 45.01264000000003
    vertex 36.23973278879389 29.127268398107844 45.01264000000003
  endloop
endfacet
facet normal 0.0 0.0 1.0
  outer loop
    vertex 36.23973278879389 29.127268398107844 45.01264000000003
    vertex 35.98973278879389 27.127268398107837 45.01264000000003
    vertex 48.98973278879389 27.127268398107837 45.01264000000003
  endloop
endfacet
facet normal 0.0 0.0 1.0
  outer loop
    vertex 36.23973278879389 29.127268398107844 45.01264000000003
    vertex 48.98973278879389 27.127268398107837 45.01264000000003
    vertex 36.23973278879389 30.127268398107837 45.01264000000003
  endloop
endfacet
facet normal 0.0 0.0 1.0
  outer loop
    vertex 36.23973278879389 30.127268398107837 45.01264000000003
    vertex 48.98973278879389 27.127268398107837 45.01264000000003
    vertex 48.73973278879389 29.127268398107844 45.01264000000003
  endloop
endfacet
facet normal 0.0 0.0 1.0
  outer loop
    vertex 48.73973278879389 29.127268398107844 45.01264000000003
    vertex 48.98973278879389 27.127268398107837 45.01264000000003
    vertex 50.88973278879387 29.127268398107844 45.01264000000003
  endloop
endfacet
facet normal 0.0 0.0 1.0
  outer loop
    vertex 50.88973278879387 29.127268398107844 45.01264000000003
    vertex 48.98973278879389 27.127268398107837 45.01264000000003
    vertex 50.88973278879387 26.127268398107844 45.01264000000003
  endloop
endfacet
facet normal 0.0 0.0 1.0
  outer loop
    vertex 48.73973278879389 30.127268398107837 45.01264000000003
    vertex 36.23973278879389 30.127268398107837 45.01264000000003
    vertex 48.73973278879389 29.127268398107844 45.01264000000003
  endloop
endfacet
facet normal 0.0 0.0 1.0
  outer loop
    vertex 64.98973278879387 26.127268398107844 45.00937899999998
    vertex 54.08973278879389 29.127268398107844 45.00937899999998
    vertex 54.08973278879389 26.127268398107844 45.00937899999998
  endloop
endfacet
facet normal 0.0 0.0 1.0
  outer loop
    vertex 54.08973278879389 29.127268398107844 45.00937899999998
    vertex 64.98973278879387 26.127268398107844 45.00937899999998
    vertex 56.23973278879387 29.127268398107844 45.00937899999998
  endloop
endfacet
facet normal 0.0 0.0 1.0
  outer loop
    vertex 56.23973278879387 29.127268398107844 45.00937899999998
    vertex 64.98973278879387 26.127268398107844 45.00937899999998
    vertex 56.23973278879387 30.127268398107837 45.00937899999998
  endloop
endfacet
facet normal 0.0 0.0 1.0
  outer loop
    vertex 56.23973278879387 30.127268398107837 45.00937899999998
    vertex 64.98973278879387 26.127268398107844 45.00937899999998
    vertex 64.98973278879387 30.127268398107837 45.00937899999998
  endloop
endfacet
endsolid Untitled-55f0c83a
