solid Untitled-56e8a0f2
facet normal 0.8208933403515893 -0.5710815386321028 0.0
  outer loop
    vertex 31.299400244173498 25.627126151702416 0.0
    vertex 30.616416481010926 24.645380490493775 7.5596070000000015
    vertex 30.616416481010926 24.645380490493775 0.0
  endloop
endfacet
facet normal 0.8208933403515893 -0.5710815386321028 0.0
  outer loop
    vertex 30.616416481010926 24.645380490493775 7.5596070000000015
    vertex 31.299400244173498 25.627126151702416 0.0
    vertex 31.299400244173498 25.627126151702416 7.5596070000000015
  endloop
endfacet
facet normal 0.42537371722589373 -0.9050177902634985 0.0
  outer loop
    vertex 29.70261035066853 23.873856206887375 7.5596070000000015
    vertex 28.620256230793128 23.36513140580682 0.0
    vertex 29.70261035066853 23.873856206887375 0.0
  endloop
endfacet
facet normal 0.42537371722589373 -0.9050177902634985 0.0
  outer loop
    vertex 28.620256230793128 23.36513140580682 0.0
    vertex 29.70261035066853 23.873856206887375 7.5596070000000015
    vertex 28.620256230793128 23.36513140580682 7.5596070000000015
  endloop
endfacet
facet normal 0.6451152995698578 -0.7640852375624677 0.0
  outer loop
    vertex 30.616416481010926 24.645380490493775 7.5596070000000015
    vertex 29.70261035066853 23.873856206887375 0.0
    vertex 30.616416481010926 24.645380490493775 0.0
  endloop
endfacet
facet normal 0.6451152995698578 -0.7640852375624677 0.0
  outer loop
    vertex 29.70261035066853 23.873856206887375 0.0
    vertex 30.616416481010926 24.645380490493775 7.5596070000000015
    vertex 29.70261035066853 23.873856206887375 7.5596070000000015
  endloop
endfacet
facet normal 0.1766436190162778 -0.9842748761706925 0.0
  outer loop
    vertex 28.620256230793128 23.36513140580682 7.5596070000000015
    vertex 27.443114765979455 23.153874841738283 0.0
    vertex 28.620256230793128 23.36513140580682 0.0
  endloop
endfacet
facet normal 0.1766436190162778 -0.9842748761706925 0.0
  outer loop
    vertex 27.443114765979455 23.153874841738283 0.0
    vertex 28.620256230793128 23.36513140580682 7.5596070000000015
    vertex 27.443114765979455 23.153874841738283 7.5596070000000015
  endloop
endfacet
facet normal -0.08412444991191254 -0.9964552558579929 -0.0
  outer loop
    vertex 27.443114765979455 23.153874841738283 7.5596070000000015
    vertex 26.25140620173634 23.254483300405045 0.0
    vertex 27.443114765979455 23.153874841738283 0.0
  endloop
endfacet
facet normal -0.08412444991191254 -0.9964552558579929 -0.0
  outer loop
    vertex 26.25140620173634 23.254483300405045 0.0
    vertex 27.443114765979455 23.153874841738283 7.5596070000000015
    vertex 26.25140620173634 23.254483300405045 7.5596070000000015
  endloop
endfacet
facet normal -0.3391595766008297 -0.9407288565787413 -0.0
  outer loop
    vertex 26.25140620173634 23.254483300405045 7.5596070000000015
    vertex 25.12634350732541 23.660100481612307 0.0
    vertex 26.25140620173634 23.254483300405045 0.0
  endloop
endfacet
facet normal -0.3391595766008297 -0.9407288565787413 -0.0
  outer loop
    vertex 25.12634350732541 23.660100481612307 0.0
    vertex 26.25140620173634 23.254483300405045 7.5596070000000015
    vertex 25.12634350732541 23.660100481612307 7.5596070000000015
  endloop
endfacet
facet normal 0.9964552558579937 -0.08412444991190353 0.0
  outer loop
    vertex 31.80562588404752 27.9438974103565 0.0
    vertex 31.705017425380767 26.752188846113356 7.5596070000000015
    vertex 31.705017425380767 26.752188846113356 0.0
  endloop
endfacet
facet normal 0.9964552558579937 -0.08412444991190353 0.0
  outer loop
    vertex 31.705017425380767 26.752188846113356 7.5596070000000015
    vertex 31.80562588404752 27.9438974103565 0.0
    vertex 31.80562588404752 27.9438974103565 7.5596070000000015
  endloop
endfacet
facet normal -0.5710815386321002 -0.8208933403515912 -0.0
  outer loop
    vertex 25.12634350732541 23.660100481612307 7.5596070000000015
    vertex 24.144597846116763 24.343084244774875 0.0
    vertex 25.12634350732541 23.660100481612307 0.0
  endloop
endfacet
facet normal -0.5710815386321002 -0.8208933403515912 -0.0
  outer loop
    vertex 24.144597846116763 24.343084244774875 0.0
    vertex 25.12634350732541 23.660100481612307 7.5596070000000015
    vertex 24.144597846116763 24.343084244774875 7.5596070000000015
  endloop
endfacet
facet normal 0.9407288565787406 -0.3391595766008316 0.0
  outer loop
    vertex 31.705017425380767 26.752188846113356 0.0
    vertex 31.299400244173498 25.627126151702416 7.5596070000000015
    vertex 31.299400244173498 25.627126151702416 0.0
  endloop
endfacet
facet normal 0.9407288565787406 -0.3391595766008316 0.0
  outer loop
    vertex 31.299400244173498 25.627126151702416 7.5596070000000015
    vertex 31.705017425380767 26.752188846113356 0.0
    vertex 31.705017425380767 26.752188846113356 7.5596070000000015
  endloop
endfacet
facet normal -0.7640852375624656 -0.6451152995698602 -0.0
  outer loop
    vertex 23.37307356251035 25.256890375117287 7.5596070000000015
    vertex 24.144597846116763 24.343084244774875 0.0
    vertex 24.144597846116763 24.343084244774875 7.5596070000000015
  endloop
endfacet
facet normal -0.7640852375624656 -0.6451152995698602 -0.0
  outer loop
    vertex 24.144597846116763 24.343084244774875 0.0
    vertex 23.37307356251035 25.256890375117287 7.5596070000000015
    vertex 23.37307356251035 25.256890375117287 0.0
  endloop
endfacet
facet normal -0.9050177902635003 -0.42537371722588935 -0.0
  outer loop
    vertex 22.86434876142981 26.33924449499267 7.5596070000000015
    vertex 23.37307356251035 25.256890375117287 0.0
    vertex 23.37307356251035 25.256890375117287 7.5596070000000015
  endloop
endfacet
facet normal -0.9050177902635003 -0.42537371722588935 -0.0
  outer loop
    vertex 23.37307356251035 25.256890375117287 0.0
    vertex 22.86434876142981 26.33924449499267 7.5596070000000015
    vertex 22.86434876142981 26.33924449499267 0.0
  endloop
endfacet
facet normal 0.0 0.0 1.0
  outer loop
    vertex 25.780470301270796 27.341913117427634 1.6000000000000003
    vertex 25.7804703012708 28.11837025273519 1.6000000000000003
    vertex 25.7293590407044 27.730141685081414 1.6000000000000003
  endloop
endfacet
facet normal 0.0 0.0 1.0
  outer loop
    vertex 25.7804703012708 28.11837025273519 1.6000000000000003
    vertex 25.780470301270796 27.341913117427634 1.6000000000000003
    vertex 25.93032093502774 26.980141685081414 1.6000000000000003
  endloop
endfacet
facet normal 0.0 0.0 1.0
  outer loop
    vertex 25.7804703012708 28.11837025273519 1.6000000000000003
    vertex 25.93032093502774 26.980141685081414 1.6000000000000003
    vertex 25.93032093502774 28.48014168508141 1.6000000000000003
  endloop
endfacet
facet normal 0.0 0.0 1.0
  outer loop
    vertex 25.93032093502774 28.48014168508141 1.6000000000000003
    vertex 25.93032093502774 26.980141685081414 1.6000000000000003
    vertex 26.16869886892458 26.669481513301594 1.6000000000000003
  endloop
endfacet
facet normal 0.0 0.0 1.0
  outer loop
    vertex 25.93032093502774 28.48014168508141 1.6000000000000003
    vertex 26.16869886892458 26.669481513301594 1.6000000000000003
    vertex 26.16869886892458 28.790801856861233 1.6000000000000003
  endloop
endfacet
facet normal 0.0 0.0 1.0
  outer loop
    vertex 26.16869886892458 28.790801856861233 1.6000000000000003
    vertex 26.16869886892458 26.669481513301594 1.6000000000000003
    vertex 26.4793590407044 26.431103579404756 1.6000000000000003
  endloop
endfacet
facet normal 0.0 0.0 1.0
  outer loop
    vertex 26.16869886892458 28.790801856861233 1.6000000000000003
    vertex 26.4793590407044 26.431103579404756 1.6000000000000003
    vertex 26.4793590407044 29.029179790758068 1.6000000000000003
  endloop
endfacet
facet normal 0.0 0.0 1.0
  outer loop
    vertex 26.4793590407044 29.029179790758068 1.6000000000000003
    vertex 26.4793590407044 26.431103579404756 1.6000000000000003
    vertex 26.84113047305061 26.281252945647815 1.6000000000000003
  endloop
endfacet
facet normal 0.0 0.0 1.0
  outer loop
    vertex 26.4793590407044 29.029179790758068 1.6000000000000003
    vertex 26.84113047305061 26.281252945647815 1.6000000000000003
    vertex 26.84113047305062 29.179030424515016 1.6000000000000003
  endloop
endfacet
facet normal 0.0 0.0 1.0
  outer loop
    vertex 26.84113047305062 29.179030424515016 1.6000000000000003
    vertex 26.84113047305061 26.281252945647815 1.6000000000000003
    vertex 27.2293590407044 26.230141685081417 1.6000000000000003
  endloop
endfacet
facet normal 0.0 0.0 1.0
  outer loop
    vertex 26.84113047305062 29.179030424515016 1.6000000000000003
    vertex 27.2293590407044 26.230141685081417 1.6000000000000003
    vertex 27.2293590407044 29.23014168508141 1.6000000000000003
  endloop
endfacet
facet normal 0.0 0.0 1.0
  outer loop
    vertex 27.2293590407044 29.23014168508141 1.6000000000000003
    vertex 27.2293590407044 26.230141685081417 1.6000000000000003
    vertex 27.617587608358175 26.28125294564781 1.6000000000000003
  endloop
endfacet
facet normal 0.0 0.0 1.0
  outer loop
    vertex 27.2293590407044 29.23014168508141 1.6000000000000003
    vertex 27.617587608358175 26.28125294564781 1.6000000000000003
    vertex 27.617587608358175 29.179030424515016 1.6000000000000003
  endloop
endfacet
facet normal 0.0 0.0 1.0
  outer loop
    vertex 27.617587608358175 29.179030424515016 1.6000000000000003
    vertex 27.617587608358175 26.28125294564781 1.6000000000000003
    vertex 27.979359040704395 26.431103579404756 1.6000000000000003
  endloop
endfacet
facet normal 0.0 0.0 1.0
  outer loop
    vertex 27.617587608358175 29.179030424515016 1.6000000000000003
    vertex 27.979359040704395 26.431103579404756 1.6000000000000003
    vertex 27.979359040704395 29.029179790758068 1.6000000000000003
  endloop
endfacet
facet normal 0.0 0.0 1.0
  outer loop
    vertex 27.979359040704395 29.029179790758068 1.6000000000000003
    vertex 27.979359040704395 26.431103579404756 1.6000000000000003
    vertex 28.290019212484214 26.669481513301594 1.6000000000000003
  endloop
endfacet
facet normal 0.0 0.0 1.0
  outer loop
    vertex 27.979359040704395 29.029179790758068 1.6000000000000003
    vertex 28.290019212484214 26.669481513301594 1.6000000000000003
    vertex 28.290019212484214 28.790801856861233 1.6000000000000003
  endloop
endfacet
facet normal 0.0 0.0 1.0
  outer loop
    vertex 28.290019212484214 28.790801856861233 1.6000000000000003
    vertex 28.290019212484214 26.669481513301594 1.6000000000000003
    vertex 28.528397146381053 26.980141685081414 1.6000000000000003
  endloop
endfacet
facet normal 0.0 0.0 1.0
  outer loop
    vertex 28.290019212484214 28.790801856861233 1.6000000000000003
    vertex 28.528397146381053 26.980141685081414 1.6000000000000003
    vertex 28.528397146381053 28.48014168508141 1.6000000000000003
  endloop
endfacet
facet normal 0.0 0.0 1.0
  outer loop
    vertex 28.528397146381053 28.48014168508141 1.6000000000000003
    vertex 28.528397146381053 26.980141685081414 1.6000000000000003
    vertex 28.678247780137994 27.34191311742763 1.6000000000000003
  endloop
endfacet
facet normal 0.0 0.0 1.0
  outer loop
    vertex 28.528397146381053 28.48014168508141 1.6000000000000003
    vertex 28.678247780137994 27.34191311742763 1.6000000000000003
    vertex 28.678247780138 28.11837025273519 1.6000000000000003
  endloop
endfacet
facet normal 0.0 0.0 1.0
  outer loop
    vertex 28.678247780138 28.11837025273519 1.6000000000000003
    vertex 28.678247780137994 27.34191311742763 1.6000000000000003
    vertex 28.729359040704395 27.730141685081414 1.6000000000000003
  endloop
endfacet
facet normal -0.9914448613738114 -0.13052619222004552 0.0
  outer loop
    vertex 28.678247780138 28.11837025273519 7.582352000000002
    vertex 28.729359040704395 27.730141685081414 1.6000000000000003
    vertex 28.729359040704395 27.730141685081414 7.582352000000002
  endloop
endfacet
facet normal -0.9914448613738114 -0.13052619222004552 0.0
  outer loop
    vertex 28.729359040704395 27.730141685081414 1.6000000000000003
    vertex 28.678247780138 28.11837025273519 7.582352000000002
    vertex 28.678247780138 28.11837025273519 1.6000000000000003
  endloop
endfacet
facet normal -0.8208933403515897 0.5710815386321021 0.0
  outer loop
    vertex 23.842301600397864 30.814902879669052 7.5596070000000015
    vertex 23.15931783723529 29.833157218460403 0.0
    vertex 23.15931783723529 29.833157218460403 7.5596070000000015
  endloop
endfacet
facet normal -0.8208933403515897 0.5710815386321021 0.0
  outer loop
    vertex 23.15931783723529 29.833157218460403 0.0
    vertex 23.842301600397864 30.814902879669052 7.5596070000000015
    vertex 23.842301600397864 30.814902879669052 0.0
  endloop
endfacet
facet normal -0.6451152995698606 0.7640852375624655 0.0
  outer loop
    vertex 23.842301600397864 30.814902879669052 7.5596070000000015
    vertex 24.75610773074026 31.586427163275456 0.0
    vertex 23.842301600397864 30.814902879669052 0.0
  endloop
endfacet
facet normal -0.6451152995698606 0.7640852375624655 0.0
  outer loop
    vertex 24.75610773074026 31.586427163275456 0.0
    vertex 23.842301600397864 30.814902879669052 7.5596070000000015
    vertex 24.75610773074026 31.586427163275456 7.5596070000000015
  endloop
endfacet
facet normal 0.7933533402912325 0.6087614290087243 -3.38166905148575e-32
  outer loop
    vertex 25.93032093502774 26.980141685081414 1.6000000000000003
    vertex 26.16869886892458 26.669481513301594 7.582352000000002
    vertex 26.16869886892458 26.669481513301594 1.6000000000000003
  endloop
endfacet
facet normal 0.7933533402912325 0.6087614290087243 -3.38166905148575e-32
  outer loop
    vertex 26.16869886892458 26.669481513301594 7.582352000000002
    vertex 25.93032093502774 26.980141685081414 1.6000000000000003
    vertex 25.93032093502774 26.980141685081414 7.582352000000002
  endloop
endfacet
facet normal -0.17664361901628775 0.9842748761706909 0.0
  outer loop
    vertex 25.83846185061565 32.09515196435599 7.5596070000000015
    vertex 27.015603315429317 32.30640852842455 0.0
    vertex 25.83846185061565 32.09515196435599 0.0
  endloop
endfacet
facet normal -0.17664361901628775 0.9842748761706909 0.0
  outer loop
    vertex 27.015603315429317 32.30640852842455 0.0
    vertex 25.83846185061565 32.09515196435599 7.5596070000000015
    vertex 27.015603315429317 32.30640852842455 7.5596070000000015
  endloop
endfacet
facet normal 0.3826834323650859 0.9238795325112884 2.1258060351369682e-32
  outer loop
    vertex 26.4793590407044 26.431103579404756 7.582352000000002
    vertex 26.84113047305061 26.281252945647815 1.6000000000000003
    vertex 26.4793590407044 26.431103579404756 1.6000000000000003
  endloop
endfacet
facet normal 0.3826834323650859 0.9238795325112884 2.1258060351369682e-32
  outer loop
    vertex 26.84113047305061 26.281252945647815 1.6000000000000003
    vertex 26.4793590407044 26.431103579404756 7.582352000000002
    vertex 26.84113047305061 26.281252945647815 7.582352000000002
  endloop
endfacet
facet normal 0.3826834323650931 -0.9238795325112854 -9.02857334033625e-19
  outer loop
    vertex 26.84113047305062 29.179030424515016 7.582352000000002
    vertex 26.4793590407044 29.029179790758068 1.6000000000000003
    vertex 26.84113047305062 29.179030424515016 1.6000000000000003
  endloop
endfacet
facet normal 0.3826834323650931 -0.9238795325112854 -9.02857334033625e-19
  outer loop
    vertex 26.4793590407044 29.029179790758068 1.6000000000000003
    vertex 26.84113047305062 29.179030424515016 7.582352000000002
    vertex 26.4793590407044 29.029179790758068 7.582352000000002
  endloop
endfacet
facet normal 0.13052619222005782 0.9914448613738096 4.78240223606844e-32
  outer loop
    vertex 26.84113047305061 26.281252945647815 7.582352000000002
    vertex 27.2293590407044 26.230141685081417 1.6000000000000003
    vertex 26.84113047305061 26.281252945647815 1.6000000000000003
  endloop
endfacet
facet normal 0.13052619222005782 0.9914448613738096 4.78240223606844e-32
  outer loop
    vertex 27.2293590407044 26.230141685081417 1.6000000000000003
    vertex 26.84113047305061 26.281252945647815 7.582352000000002
    vertex 27.2293590407044 26.230141685081417 7.582352000000002
  endloop
endfacet
facet normal -0.9407288565787417 0.33915957660082835 0.0
  outer loop
    vertex 23.15931783723529 29.833157218460403 7.5596070000000015
    vertex 22.75370065602803 28.708094524049475 0.0
    vertex 22.75370065602803 28.708094524049475 7.5596070000000015
  endloop
endfacet
facet normal -0.9407288565787417 0.33915957660082835 0.0
  outer loop
    vertex 22.75370065602803 28.708094524049475 0.0
    vertex 23.15931783723529 29.833157218460403 7.5596070000000015
    vertex 23.15931783723529 29.833157218460403 0.0
  endloop
endfacet
facet normal 0.13052619222004552 -0.9914448613738114 0.0
  outer loop
    vertex 27.2293590407044 29.23014168508141 7.582352000000002
    vertex 26.84113047305062 29.179030424515016 1.6000000000000003
    vertex 27.2293590407044 29.23014168508141 1.6000000000000003
  endloop
endfacet
facet normal 0.13052619222004552 -0.9914448613738114 0.0
  outer loop
    vertex 26.84113047305062 29.179030424515016 1.6000000000000003
    vertex 27.2293590407044 29.23014168508141 7.582352000000002
    vertex 26.84113047305062 29.179030424515016 7.582352000000002
  endloop
endfacet
facet normal -0.13052619222004552 -0.9914448613738114 0.0
  outer loop
    vertex 27.617587608358175 29.179030424515016 7.582352000000002
    vertex 27.2293590407044 29.23014168508141 1.6000000000000003
    vertex 27.617587608358175 29.179030424515016 1.6000000000000003
  endloop
endfacet
facet normal -0.13052619222004552 -0.9914448613738114 0.0
  outer loop
    vertex 27.2293590407044 29.23014168508141 1.6000000000000003
    vertex 27.617587608358175 29.179030424515016 7.582352000000002
    vertex 27.2293590407044 29.23014168508141 7.582352000000002
  endloop
endfacet
facet normal 0.9238795325112905 -0.3826834323650808 0.0
  outer loop
    vertex 25.93032093502774 28.48014168508141 1.6000000000000003
    vertex 25.7804703012708 28.11837025273519 7.582352000000002
    vertex 25.7804703012708 28.11837025273519 1.6000000000000003
  endloop
endfacet
facet normal 0.9238795325112905 -0.3826834323650808 0.0
  outer loop
    vertex 25.7804703012708 28.11837025273519 7.582352000000002
    vertex 25.93032093502774 28.48014168508141 1.6000000000000003
    vertex 25.93032093502774 28.48014168508141 7.582352000000002
  endloop
endfacet
facet normal 0.0841244499119133 0.996455255857993 0.0
  outer loop
    vertex 27.015603315429317 32.30640852842455 7.5596070000000015
    vertex 28.207311879672456 32.20580006975778 0.0
    vertex 27.015603315429317 32.30640852842455 0.0
  endloop
endfacet
facet normal 0.0841244499119133 0.996455255857993 0.0
  outer loop
    vertex 28.207311879672456 32.20580006975778 0.0
    vertex 27.015603315429317 32.30640852842455 7.5596070000000015
    vertex 28.207311879672456 32.20580006975778 7.5596070000000015
  endloop
endfacet
facet normal 0.9914448613738114 0.13052619222004552 0.0
  outer loop
    vertex 25.7293590407044 27.730141685081414 1.6000000000000003
    vertex 25.780470301270796 27.341913117427634 7.582352000000002
    vertex 25.780470301270796 27.341913117427634 1.6000000000000003
  endloop
endfacet
facet normal 0.9914448613738114 0.13052619222004552 0.0
  outer loop
    vertex 25.780470301270796 27.341913117427634 7.582352000000002
    vertex 25.7293590407044 27.730141685081414 1.6000000000000003
    vertex 25.7293590407044 27.730141685081414 7.582352000000002
  endloop
endfacet
facet normal 0.7933533402912325 -0.6087614290087243 -3.38166905148575e-32
  outer loop
    vertex 26.16869886892458 28.790801856861233 1.6000000000000003
    vertex 25.93032093502774 28.48014168508141 7.582352000000002
    vertex 25.93032093502774 28.48014168508141 1.6000000000000003
  endloop
endfacet
facet normal 0.7933533402912325 -0.6087614290087243 -3.38166905148575e-32
  outer loop
    vertex 25.93032093502774 28.48014168508141 7.582352000000002
    vertex 26.16869886892458 28.790801856861233 1.6000000000000003
    vertex 26.16869886892458 28.790801856861233 7.582352000000002
  endloop
endfacet
facet normal -0.13052619222004552 0.9914448613738114 0.0
  outer loop
    vertex 27.2293590407044 26.230141685081417 7.582352000000002
    vertex 27.617587608358175 26.28125294564781 1.6000000000000003
    vertex 27.2293590407044 26.230141685081417 1.6000000000000003
  endloop
endfacet
facet normal -0.13052619222004552 0.9914448613738114 0.0
  outer loop
    vertex 27.617587608358175 26.28125294564781 1.6000000000000003
    vertex 27.2293590407044 26.230141685081417 7.582352000000002
    vertex 27.617587608358175 26.28125294564781 7.582352000000002
  endloop
endfacet
facet normal -0.3826834323650931 0.9238795325112854 -9.02857334033625e-19
  outer loop
    vertex 27.617587608358175 26.28125294564781 7.582352000000002
    vertex 27.979359040704395 26.431103579404756 1.6000000000000003
    vertex 27.617587608358175 26.28125294564781 1.6000000000000003
  endloop
endfacet
facet normal -0.3826834323650931 0.9238795325112854 -9.02857334033625e-19
  outer loop
    vertex 27.979359040704395 26.431103579404756 1.6000000000000003
    vertex 27.617587608358175 26.28125294564781 7.582352000000002
    vertex 27.979359040704395 26.431103579404756 7.582352000000002
  endloop
endfacet
facet normal 0.0 0.0 1.0
  outer loop
    vertex 26.25140620173634 23.254483300405045 7.5596070000000015
    vertex 25.7293590407044 27.730141685081414 7.582352000000002
    vertex 25.12634350732541 23.660100481612307 7.5596070000000015
  endloop
endfacet
facet normal 0.0 0.0 1.0
  outer loop
    vertex 25.7293590407044 27.730141685081414 7.582352000000002
    vertex 26.25140620173634 23.254483300405045 7.5596070000000015
    vertex 25.780470301270796 27.341913117427634 7.582352000000002
  endloop
endfacet
facet normal 0.0 0.0 1.0
  outer loop
    vertex 25.780470301270796 27.341913117427634 7.582352000000002
    vertex 26.25140620173634 23.254483300405045 7.5596070000000015
    vertex 25.93032093502774 26.980141685081414 7.582352000000002
  endloop
endfacet
facet normal 0.0 0.0 1.0
  outer loop
    vertex 25.93032093502774 26.980141685081414 7.582352000000002
    vertex 26.25140620173634 23.254483300405045 7.5596070000000015
    vertex 26.16869886892458 26.669481513301594 7.582352000000002
  endloop
endfacet
facet normal 0.0 0.0 1.0
  outer loop
    vertex 26.16869886892458 26.669481513301594 7.582352000000002
    vertex 26.25140620173634 23.254483300405045 7.5596070000000015
    vertex 26.4793590407044 26.431103579404756 7.582352000000002
  endloop
endfacet
facet normal 0.0 0.0 1.0
  outer loop
    vertex 26.4793590407044 26.431103579404756 7.582352000000002
    vertex 26.25140620173634 23.254483300405045 7.5596070000000015
    vertex 27.443114765979455 23.153874841738283 7.5596070000000015
  endloop
endfacet
facet normal 0.0 0.0 1.0
  outer loop
    vertex 26.4793590407044 26.431103579404756 7.582352000000002
    vertex 27.443114765979455 23.153874841738283 7.5596070000000015
    vertex 26.84113047305061 26.281252945647815 7.582352000000002
  endloop
endfacet
facet normal 0.0 0.0 1.0
  outer loop
    vertex 26.84113047305061 26.281252945647815 7.582352000000002
    vertex 27.443114765979455 23.153874841738283 7.5596070000000015
    vertex 27.2293590407044 26.230141685081417 7.582352000000002
  endloop
endfacet
facet normal 0.0 0.0 1.0
  outer loop
    vertex 27.2293590407044 26.230141685081417 7.582352000000002
    vertex 27.443114765979455 23.153874841738283 7.5596070000000015
    vertex 27.617587608358175 26.28125294564781 7.582352000000002
  endloop
endfacet
facet normal 0.0 0.0 1.0
  outer loop
    vertex 27.617587608358175 26.28125294564781 7.582352000000002
    vertex 27.443114765979455 23.153874841738283 7.5596070000000015
    vertex 28.620256230793128 23.36513140580682 7.5596070000000015
  endloop
endfacet
facet normal 0.0 0.0 1.0
  outer loop
    vertex 27.617587608358175 26.28125294564781 7.582352000000002
    vertex 28.620256230793128 23.36513140580682 7.5596070000000015
    vertex 27.979359040704395 26.431103579404756 7.582352000000002
  endloop
endfacet
facet normal 0.0 0.0 1.0
  outer loop
    vertex 27.979359040704395 26.431103579404756 7.582352000000002
    vertex 28.620256230793128 23.36513140580682 7.5596070000000015
    vertex 28.290019212484214 26.669481513301594 7.582352000000002
  endloop
endfacet
facet normal 0.0 0.0 1.0
  outer loop
    vertex 28.290019212484214 26.669481513301594 7.582352000000002
    vertex 28.620256230793128 23.36513140580682 7.5596070000000015
    vertex 28.528397146381053 26.980141685081414 7.582352000000002
  endloop
endfacet
facet normal 0.0 0.0 1.0
  outer loop
    vertex 28.528397146381053 26.980141685081414 7.582352000000002
    vertex 28.620256230793128 23.36513140580682 7.5596070000000015
    vertex 28.678247780137994 27.34191311742763 7.582352000000002
  endloop
endfacet
facet normal 0.0 0.0 1.0
  outer loop
    vertex 28.678247780137994 27.34191311742763 7.582352000000002
    vertex 28.620256230793128 23.36513140580682 7.5596070000000015
    vertex 29.70261035066853 23.873856206887375 7.5596070000000015
  endloop
endfacet
facet normal 0.0 0.0 1.0
  outer loop
    vertex 28.678247780137994 27.34191311742763 7.582352000000002
    vertex 29.70261035066853 23.873856206887375 7.5596070000000015
    vertex 28.729359040704395 27.730141685081414 7.582352000000002
  endloop
endfacet
facet normal 0.0 0.0 1.0
  outer loop
    vertex 28.729359040704395 27.730141685081414 7.582352000000002
    vertex 29.70261035066853 23.873856206887375 7.5596070000000015
    vertex 29.332374574083392 31.800182888550513 7.5596070000000015
  endloop
endfacet
facet normal 0.0 0.0 1.0
  outer loop
    vertex 29.332374574083392 31.800182888550513 7.5596070000000015
    vertex 29.70261035066853 23.873856206887375 7.5596070000000015
    vertex 30.31412023529204 31.117199125387938 7.5596070000000015
  endloop
endfacet
facet normal 0.0 0.0 1.0
  outer loop
    vertex 30.31412023529204 31.117199125387938 7.5596070000000015
    vertex 29.70261035066853 23.873856206887375 7.5596070000000015
    vertex 30.616416481010926 24.645380490493775 7.5596070000000015
  endloop
endfacet
facet normal 0.0 0.0 1.0
  outer loop
    vertex 30.31412023529204 31.117199125387938 7.5596070000000015
    vertex 30.616416481010926 24.645380490493775 7.5596070000000015
    vertex 31.08564451889844 30.203392995045544 7.5596070000000015
  endloop
endfacet
facet normal 0.0 0.0 1.0
  outer loop
    vertex 31.08564451889844 30.203392995045544 7.5596070000000015
    vertex 30.616416481010926 24.645380490493775 7.5596070000000015
    vertex 31.299400244173498 25.627126151702416 7.5596070000000015
  endloop
endfacet
facet normal 0.0 0.0 1.0
  outer loop
    vertex 31.08564451889844 30.203392995045544 7.5596070000000015
    vertex 31.299400244173498 25.627126151702416 7.5596070000000015
    vertex 31.59436931997899 29.121038875170143 7.5596070000000015
  endloop
endfacet
facet normal 0.0 0.0 1.0
  outer loop
    vertex 31.59436931997899 29.121038875170143 7.5596070000000015
    vertex 31.299400244173498 25.627126151702416 7.5596070000000015
    vertex 31.705017425380767 26.752188846113356 7.5596070000000015
  endloop
endfacet
facet normal 0.0 0.0 1.0
  outer loop
    vertex 31.59436931997899 29.121038875170143 7.5596070000000015
    vertex 31.705017425380767 26.752188846113356 7.5596070000000015
    vertex 31.80562588404752 27.9438974103565 7.5596070000000015
  endloop
endfacet
facet normal 0.0 0.0 1.0
  outer loop
    vertex 22.86434876142981 26.33924449499267 7.5596070000000015
    vertex 22.75370065602803 28.708094524049475 7.5596070000000015
    vertex 22.653092197361264 27.516385959806335 7.5596070000000015
  endloop
endfacet
facet normal 0.0 0.0 1.0
  outer loop
    vertex 22.75370065602803 28.708094524049475 7.5596070000000015
    vertex 22.86434876142981 26.33924449499267 7.5596070000000015
    vertex 23.15931783723529 29.833157218460403 7.5596070000000015
  endloop
endfacet
facet normal 0.0 0.0 1.0
  outer loop
    vertex 23.15931783723529 29.833157218460403 7.5596070000000015
    vertex 22.86434876142981 26.33924449499267 7.5596070000000015
    vertex 23.37307356251035 25.256890375117287 7.5596070000000015
  endloop
endfacet
facet normal 0.0 0.0 1.0
  outer loop
    vertex 23.15931783723529 29.833157218460403 7.5596070000000015
    vertex 23.37307356251035 25.256890375117287 7.5596070000000015
    vertex 23.842301600397864 30.814902879669052 7.5596070000000015
  endloop
endfacet
facet normal 0.0 0.0 1.0
  outer loop
    vertex 23.842301600397864 30.814902879669052 7.5596070000000015
    vertex 23.37307356251035 25.256890375117287 7.5596070000000015
    vertex 24.144597846116763 24.343084244774875 7.5596070000000015
  endloop
endfacet
facet normal 0.0 0.0 1.0
  outer loop
    vertex 23.842301600397864 30.814902879669052 7.5596070000000015
    vertex 24.144597846116763 24.343084244774875 7.5596070000000015
    vertex 24.75610773074026 31.586427163275456 7.5596070000000015
  endloop
endfacet
facet normal 0.0 0.0 1.0
  outer loop
    vertex 24.75610773074026 31.586427163275456 7.5596070000000015
    vertex 24.144597846116763 24.343084244774875 7.5596070000000015
    vertex 25.12634350732541 23.660100481612307 7.5596070000000015
  endloop
endfacet
facet normal 0.0 0.0 1.0
  outer loop
    vertex 24.75610773074026 31.586427163275456 7.5596070000000015
    vertex 25.12634350732541 23.660100481612307 7.5596070000000015
    vertex 25.83846185061565 32.09515196435599 7.5596070000000015
  endloop
endfacet
facet normal 0.0 0.0 1.0
  outer loop
    vertex 25.83846185061565 32.09515196435599 7.5596070000000015
    vertex 25.12634350732541 23.660100481612307 7.5596070000000015
    vertex 25.7293590407044 27.730141685081414 7.582352000000002
  endloop
endfacet
facet normal 0.0 0.0 1.0
  outer loop
    vertex 25.83846185061565 32.09515196435599 7.5596070000000015
    vertex 25.7293590407044 27.730141685081414 7.582352000000002
    vertex 25.7804703012708 28.11837025273519 7.582352000000002
  endloop
endfacet
facet normal 0.0 0.0 1.0
  outer loop
    vertex 25.83846185061565 32.09515196435599 7.5596070000000015
    vertex 25.7804703012708 28.11837025273519 7.582352000000002
    vertex 25.93032093502774 28.48014168508141 7.582352000000002
  endloop
endfacet
facet normal 0.0 0.0 1.0
  outer loop
    vertex 25.83846185061565 32.09515196435599 7.5596070000000015
    vertex 25.93032093502774 28.48014168508141 7.582352000000002
    vertex 27.015603315429317 32.30640852842455 7.5596070000000015
  endloop
endfacet
facet normal 0.0 0.0 1.0
  outer loop
    vertex 27.015603315429317 32.30640852842455 7.5596070000000015
    vertex 25.93032093502774 28.48014168508141 7.582352000000002
    vertex 26.16869886892458 28.790801856861233 7.582352000000002
  endloop
endfacet
facet normal 0.0 0.0 1.0
  outer loop
    vertex 27.015603315429317 32.30640852842455 7.5596070000000015
    vertex 26.16869886892458 28.790801856861233 7.582352000000002
    vertex 26.4793590407044 29.029179790758068 7.582352000000002
  endloop
endfacet
facet normal 0.0 0.0 1.0
  outer loop
    vertex 27.015603315429317 32.30640852842455 7.5596070000000015
    vertex 26.4793590407044 29.029179790758068 7.582352000000002
    vertex 26.84113047305062 29.179030424515016 7.582352000000002
  endloop
endfacet
facet normal 0.0 0.0 1.0
  outer loop
    vertex 27.015603315429317 32.30640852842455 7.5596070000000015
    vertex 26.84113047305062 29.179030424515016 7.582352000000002
    vertex 27.2293590407044 29.23014168508141 7.582352000000002
  endloop
endfacet
facet normal 0.0 0.0 1.0
  outer loop
    vertex 27.015603315429317 32.30640852842455 7.5596070000000015
    vertex 27.2293590407044 29.23014168508141 7.582352000000002
    vertex 28.207311879672456 32.20580006975778 7.5596070000000015
  endloop
endfacet
facet normal 0.0 0.0 1.0
  outer loop
    vertex 28.207311879672456 32.20580006975778 7.5596070000000015
    vertex 27.2293590407044 29.23014168508141 7.582352000000002
    vertex 27.617587608358175 29.179030424515016 7.582352000000002
  endloop
endfacet
facet normal 0.0 0.0 1.0
  outer loop
    vertex 28.207311879672456 32.20580006975778 7.5596070000000015
    vertex 27.617587608358175 29.179030424515016 7.582352000000002
    vertex 27.979359040704395 29.029179790758068 7.582352000000002
  endloop
endfacet
facet normal 0.0 0.0 1.0
  outer loop
    vertex 28.207311879672456 32.20580006975778 7.5596070000000015
    vertex 27.979359040704395 29.029179790758068 7.582352000000002
    vertex 28.290019212484214 28.790801856861233 7.582352000000002
  endloop
endfacet
facet normal 0.0 0.0 1.0
  outer loop
    vertex 28.207311879672456 32.20580006975778 7.5596070000000015
    vertex 28.290019212484214 28.790801856861233 7.582352000000002
    vertex 29.332374574083392 31.800182888550513 7.5596070000000015
  endloop
endfacet
facet normal 0.0 0.0 1.0
  outer loop
    vertex 29.332374574083392 31.800182888550513 7.5596070000000015
    vertex 28.290019212484214 28.790801856861233 7.582352000000002
    vertex 28.528397146381053 28.48014168508141 7.582352000000002
  endloop
endfacet
facet normal 0.0 0.0 1.0
  outer loop
    vertex 29.332374574083392 31.800182888550513 7.5596070000000015
    vertex 28.528397146381053 28.48014168508141 7.582352000000002
    vertex 28.678247780138 28.11837025273519 7.582352000000002
  endloop
endfacet
facet normal 0.0 0.0 1.0
  outer loop
    vertex 29.332374574083392 31.800182888550513 7.5596070000000015
    vertex 28.678247780138 28.11837025273519 7.582352000000002
    vertex 28.729359040704395 27.730141685081414 7.582352000000002
  endloop
endfacet
facet normal -0.6087614290087243 -0.7933533402912325 -3.38166905148575e-32
  outer loop
    vertex 28.290019212484214 28.790801856861233 7.582352000000002
    vertex 27.979359040704395 29.029179790758068 1.6000000000000003
    vertex 28.290019212484214 28.790801856861233 1.6000000000000003
  endloop
endfacet
facet normal -0.6087614290087243 -0.7933533402912325 -3.38166905148575e-32
  outer loop
    vertex 27.979359040704395 29.029179790758068 1.6000000000000003
    vertex 28.290019212484214 28.790801856861233 7.582352000000002
    vertex 27.979359040704395 29.029179790758068 7.582352000000002
  endloop
endfacet
facet normal 0.9238795325112854 0.3826834323650931 -9.02857334033625e-19
  outer loop
    vertex 25.780470301270796 27.341913117427634 1.6000000000000003
    vertex 25.93032093502774 26.980141685081414 7.582352000000002
    vertex 25.93032093502774 26.980141685081414 1.6000000000000003
  endloop
endfacet
facet normal 0.9238795325112854 0.3826834323650931 -9.02857334033625e-19
  outer loop
    vertex 25.93032093502774 26.980141685081414 7.582352000000002
    vertex 25.780470301270796 27.341913117427634 1.6000000000000003
    vertex 25.780470301270796 27.341913117427634 7.582352000000002
  endloop
endfacet
facet normal 0.7640852375624657 0.6451152995698601 0.0
  outer loop
    vertex 30.31412023529204 31.117199125387938 0.0
    vertex 31.08564451889844 30.203392995045544 7.5596070000000015
    vertex 31.08564451889844 30.203392995045544 0.0
  endloop
endfacet
facet normal 0.7640852375624657 0.6451152995698601 0.0
  outer loop
    vertex 31.08564451889844 30.203392995045544 7.5596070000000015
    vertex 30.31412023529204 31.117199125387938 0.0
    vertex 30.31412023529204 31.117199125387938 7.5596070000000015
  endloop
endfacet
facet normal -0.3826834323650931 -0.9238795325112854 -9.02857334033625e-19
  outer loop
    vertex 27.979359040704395 29.029179790758068 7.582352000000002
    vertex 27.617587608358175 29.179030424515016 1.6000000000000003
    vertex 27.979359040704395 29.029179790758068 1.6000000000000003
  endloop
endfacet
facet normal -0.3826834323650931 -0.9238795325112854 -9.02857334033625e-19
  outer loop
    vertex 27.617587608358175 29.179030424515016 1.6000000000000003
    vertex 27.979359040704395 29.029179790758068 7.582352000000002
    vertex 27.617587608358175 29.179030424515016 7.582352000000002
  endloop
endfacet
facet normal 0.0 0.0 -1.0
  outer loop
    vertex 22.75370065602803 28.708094524049475 0.0
    vertex 22.86434876142981 26.33924449499267 0.0
    vertex 22.653092197361264 27.516385959806335 0.0
  endloop
endfacet
facet normal 0.0 0.0 -1.0
  outer loop
    vertex 22.86434876142981 26.33924449499267 0.0
    vertex 22.75370065602803 28.708094524049475 0.0
    vertex 23.15931783723529 29.833157218460403 0.0
  endloop
endfacet
facet normal 0.0 0.0 -1.0
  outer loop
    vertex 22.86434876142981 26.33924449499267 0.0
    vertex 23.15931783723529 29.833157218460403 0.0
    vertex 23.37307356251035 25.256890375117287 0.0
  endloop
endfacet
facet normal 0.0 0.0 -1.0
  outer loop
    vertex 23.37307356251035 25.256890375117287 0.0
    vertex 23.15931783723529 29.833157218460403 0.0
    vertex 23.842301600397864 30.814902879669052 0.0
  endloop
endfacet
facet normal 0.0 0.0 -1.0
  outer loop
    vertex 23.37307356251035 25.256890375117287 0.0
    vertex 23.842301600397864 30.814902879669052 0.0
    vertex 24.144597846116763 24.343084244774875 0.0
  endloop
endfacet
facet normal 0.0 0.0 -1.0
  outer loop
    vertex 24.144597846116763 24.343084244774875 0.0
    vertex 23.842301600397864 30.814902879669052 0.0
    vertex 24.75610773074026 31.586427163275456 0.0
  endloop
endfacet
facet normal 0.0 0.0 -1.0
  outer loop
    vertex 24.144597846116763 24.343084244774875 0.0
    vertex 24.75610773074026 31.586427163275456 0.0
    vertex 25.12634350732541 23.660100481612307 0.0
  endloop
endfacet
facet normal 0.0 0.0 -1.0
  outer loop
    vertex 25.12634350732541 23.660100481612307 0.0
    vertex 24.75610773074026 31.586427163275456 0.0
    vertex 25.83846185061565 32.09515196435599 0.0
  endloop
endfacet
facet normal 0.0 0.0 -1.0
  outer loop
    vertex 25.12634350732541 23.660100481612307 0.0
    vertex 25.83846185061565 32.09515196435599 0.0
    vertex 26.25140620173634 23.254483300405045 0.0
  endloop
endfacet
facet normal 0.0 0.0 -1.0
  outer loop
    vertex 26.25140620173634 23.254483300405045 0.0
    vertex 25.83846185061565 32.09515196435599 0.0
    vertex 27.015603315429317 32.30640852842455 0.0
  endloop
endfacet
facet normal 0.0 0.0 -1.0
  outer loop
    vertex 26.25140620173634 23.254483300405045 0.0
    vertex 27.015603315429317 32.30640852842455 0.0
    vertex 27.443114765979455 23.153874841738283 0.0
  endloop
endfacet
facet normal 0.0 0.0 -1.0
  outer loop
    vertex 27.443114765979455 23.153874841738283 0.0
    vertex 27.015603315429317 32.30640852842455 0.0
    vertex 28.207311879672456 32.20580006975778 0.0
  endloop
endfacet
facet normal 0.0 0.0 -1.0
  outer loop
    vertex 27.443114765979455 23.153874841738283 0.0
    vertex 28.207311879672456 32.20580006975778 0.0
    vertex 28.620256230793128 23.36513140580682 0.0
  endloop
endfacet
facet normal 0.0 0.0 -1.0
  outer loop
    vertex 28.620256230793128 23.36513140580682 0.0
    vertex 28.207311879672456 32.20580006975778 0.0
    vertex 29.332374574083392 31.800182888550513 0.0
  endloop
endfacet
facet normal 0.0 0.0 -1.0
  outer loop
    vertex 28.620256230793128 23.36513140580682 0.0
    vertex 29.332374574083392 31.800182888550513 0.0
    vertex 29.70261035066853 23.873856206887375 0.0
  endloop
endfacet
facet normal 0.0 0.0 -1.0
  outer loop
    vertex 29.70261035066853 23.873856206887375 0.0
    vertex 29.332374574083392 31.800182888550513 0.0
    vertex 30.31412023529204 31.117199125387938 0.0
  endloop
endfacet
facet normal 0.0 0.0 -1.0
  outer loop
    vertex 29.70261035066853 23.873856206887375 0.0
    vertex 30.31412023529204 31.117199125387938 0.0
    vertex 30.616416481010926 24.645380490493775 0.0
  endloop
endfacet
facet normal 0.0 0.0 -1.0
  outer loop
    vertex 30.616416481010926 24.645380490493775 0.0
    vertex 30.31412023529204 31.117199125387938 0.0
    vertex 31.08564451889844 30.203392995045544 0.0
  endloop
endfacet
facet normal 0.0 0.0 -1.0
  outer loop
    vertex 30.616416481010926 24.645380490493775 0.0
    vertex 31.08564451889844 30.203392995045544 0.0
    vertex 31.299400244173498 25.627126151702416 0.0
  endloop
endfacet
facet normal 0.0 0.0 -1.0
  outer loop
    vertex 31.299400244173498 25.627126151702416 0.0
    vertex 31.08564451889844 30.203392995045544 0.0
    vertex 31.59436931997899 29.121038875170143 0.0
  endloop
endfacet
facet normal 0.0 0.0 -1.0
  outer loop
    vertex 31.299400244173498 25.627126151702416 0.0
    vertex 31.59436931997899 29.121038875170143 0.0
    vertex 31.705017425380767 26.752188846113356 0.0
  endloop
endfacet
facet normal 0.0 0.0 -1.0
  outer loop
    vertex 31.705017425380767 26.752188846113356 0.0
    vertex 31.59436931997899 29.121038875170143 0.0
    vertex 31.80562588404752 27.9438974103565 0.0
  endloop
endfacet
facet normal 0.6087614290087243 -0.7933533402912325 -3.38166905148575e-32
  outer loop
    vertex 26.4793590407044 29.029179790758068 7.582352000000002
    vertex 26.16869886892458 28.790801856861233 1.6000000000000003
    vertex 26.4793590407044 29.029179790758068 1.6000000000000003
  endloop
endfacet
facet normal 0.6087614290087243 -0.7933533402912325 -3.38166905148575e-32
  outer loop
    vertex 26.16869886892458 28.790801856861233 1.6000000000000003
    vertex 26.4793590407044 29.029179790758068 7.582352000000002
    vertex 26.16869886892458 28.790801856861233 7.582352000000002
  endloop
endfacet
facet normal -0.996455255857993 0.0841244499119133 0.0
  outer loop
    vertex 22.75370065602803 28.708094524049475 7.5596070000000015
    vertex 22.653092197361264 27.516385959806335 0.0
    vertex 22.653092197361264 27.516385959806335 7.5596070000000015
  endloop
endfacet
facet normal -0.996455255857993 0.0841244499119133 0.0
  outer loop
    vertex 22.653092197361264 27.516385959806335 0.0
    vertex 22.75370065602803 28.708094524049475 7.5596070000000015
    vertex 22.75370065602803 28.708094524049475 0.0
  endloop
endfacet
facet normal -0.7933533402912325 0.6087614290087243 -3.38166905148575e-32
  outer loop
    vertex 28.528397146381053 26.980141685081414 7.582352000000002
    vertex 28.290019212484214 26.669481513301594 1.6000000000000003
    vertex 28.290019212484214 26.669481513301594 7.582352000000002
  endloop
endfacet
facet normal -0.7933533402912325 0.6087614290087243 -3.38166905148575e-32
  outer loop
    vertex 28.290019212484214 26.669481513301594 1.6000000000000003
    vertex 28.528397146381053 26.980141685081414 7.582352000000002
    vertex 28.528397146381053 26.980141685081414 1.6000000000000003
  endloop
endfacet
facet normal -0.9914448613738096 0.13052619222005782 4.78240223606844e-32
  outer loop
    vertex 28.729359040704395 27.730141685081414 7.582352000000002
    vertex 28.678247780137994 27.34191311742763 1.6000000000000003
    vertex 28.678247780137994 27.34191311742763 7.582352000000002
  endloop
endfacet
facet normal -0.9914448613738096 0.13052619222005782 4.78240223606844e-32
  outer loop
    vertex 28.678247780137994 27.34191311742763 1.6000000000000003
    vertex 28.729359040704395 27.730141685081414 7.582352000000002
    vertex 28.729359040704395 27.730141685081414 1.6000000000000003
  endloop
endfacet
facet normal 0.6087614290087243 0.7933533402912325 -3.38166905148575e-32
  outer loop
    vertex 26.16869886892458 26.669481513301594 7.582352000000002
    vertex 26.4793590407044 26.431103579404756 1.6000000000000003
    vertex 26.16869886892458 26.669481513301594 1.6000000000000003
  endloop
endfacet
facet normal 0.6087614290087243 0.7933533402912325 -3.38166905148575e-32
  outer loop
    vertex 26.4793590407044 26.431103579404756 1.6000000000000003
    vertex 26.16869886892458 26.669481513301594 7.582352000000002
    vertex 26.4793590407044 26.431103579404756 7.582352000000002
  endloop
endfacet
facet normal -0.9842748761706921 -0.17664361901628092 -0.0
  outer loop
    vertex 22.653092197361264 27.516385959806335 7.5596070000000015
    vertex 22.86434876142981 26.33924449499267 0.0
    vertex 22.86434876142981 26.33924449499267 7.5596070000000015
  endloop
endfacet
facet normal -0.9842748761706921 -0.17664361901628092 -0.0
  outer loop
    vertex 22.86434876142981 26.33924449499267 0.0
    vertex 22.653092197361264 27.516385959806335 7.5596070000000015
    vertex 22.653092197361264 27.516385959806335 0.0
  endloop
endfacet
facet normal -0.9238795325112854 -0.3826834323650931 -9.02857334033625e-19
  outer loop
    vertex 28.528397146381053 28.48014168508141 7.582352000000002
    vertex 28.678247780138 28.11837025273519 1.6000000000000003
    vertex 28.678247780138 28.11837025273519 7.582352000000002
  endloop
endfacet
facet normal -0.9238795325112854 -0.3826834323650931 -9.02857334033625e-19
  outer loop
    vertex 28.678247780138 28.11837025273519 1.6000000000000003
    vertex 28.528397146381053 28.48014168508141 7.582352000000002
    vertex 28.528397146381053 28.48014168508141 1.6000000000000003
  endloop
endfacet
facet normal -0.7933533402912325 -0.6087614290087243 -3.38166905148575e-32
  outer loop
    vertex 28.290019212484214 28.790801856861233 7.582352000000002
    vertex 28.528397146381053 28.48014168508141 1.6000000000000003
    vertex 28.528397146381053 28.48014168508141 7.582352000000002
  endloop
endfacet
facet normal -0.7933533402912325 -0.6087614290087243 -3.38166905148575e-32
  outer loop
    vertex 28.528397146381053 28.48014168508141 1.6000000000000003
    vertex 28.290019212484214 28.790801856861233 7.582352000000002
    vertex 28.290019212484214 28.790801856861233 1.6000000000000003
  endloop
endfacet
facet normal 0.9914448613738094 -0.1305261922200597 5.507475086622714e-32
  outer loop
    vertex 25.7804703012708 28.11837025273519 1.6000000000000003
    vertex 25.7293590407044 27.730141685081414 7.582352000000002
    vertex 25.7293590407044 27.730141685081414 1.6000000000000003
  endloop
endfacet
facet normal 0.9914448613738094 -0.1305261922200597 5.507475086622714e-32
  outer loop
    vertex 25.7293590407044 27.730141685081414 7.582352000000002
    vertex 25.7804703012708 28.11837025273519 1.6000000000000003
    vertex 25.7804703012708 28.11837025273519 7.582352000000002
  endloop
endfacet
facet normal -0.6087614290087243 0.7933533402912325 -3.38166905148575e-32
  outer loop
    vertex 27.979359040704395 26.431103579404756 7.582352000000002
    vertex 28.290019212484214 26.669481513301594 1.6000000000000003
    vertex 27.979359040704395 26.431103579404756 1.6000000000000003
  endloop
endfacet
facet normal -0.6087614290087243 0.7933533402912325 -3.38166905148575e-32
  outer loop
    vertex 28.290019212484214 26.669481513301594 1.6000000000000003
    vertex 27.979359040704395 26.431103579404756 7.582352000000002
    vertex 28.290019212484214 26.669481513301594 7.582352000000002
  endloop
endfacet
facet normal -0.4253737172258885 0.9050177902635007 0.0
  outer loop
    vertex 24.75610773074026 31.586427163275456 7.5596070000000015
    vertex 25.83846185061565 32.09515196435599 0.0
    vertex 24.75610773074026 31.586427163275456 0.0
  endloop
endfacet
facet normal -0.4253737172258885 0.9050177902635007 0.0
  outer loop
    vertex 25.83846185061565 32.09515196435599 0.0
    vertex 24.75610773074026 31.586427163275456 7.5596070000000015
    vertex 25.83846185061565 32.09515196435599 7.5596070000000015
  endloop
endfacet
facet normal 0.3391595766008316 0.9407288565787406 0.0
  outer loop
    vertex 28.207311879672456 32.20580006975778 7.5596070000000015
    vertex 29.332374574083392 31.800182888550513 0.0
    vertex 28.207311879672456 32.20580006975778 0.0
  endloop
endfacet
facet normal 0.3391595766008316 0.9407288565787406 0.0
  outer loop
    vertex 29.332374574083392 31.800182888550513 0.0
    vertex 28.207311879672456 32.20580006975778 7.5596070000000015
    vertex 29.332374574083392 31.800182888550513 7.5596070000000015
  endloop
endfacet
facet normal 0.5710815386321036 0.8208933403515886 0.0
  outer loop
    vertex 29.332374574083392 31.800182888550513 7.5596070000000015
    vertex 30.31412023529204 31.117199125387938 0.0
    vertex 29.332374574083392 31.800182888550513 0.0
  endloop
endfacet
facet normal 0.5710815386321036 0.8208933403515886 0.0
  outer loop
    vertex 30.31412023529204 31.117199125387938 0.0
    vertex 29.332374574083392 31.800182888550513 7.5596070000000015
    vertex 30.31412023529204 31.117199125387938 7.5596070000000015
  endloop
endfacet
facet normal 0.9050177902634993 0.4253737172258917 0.0
  outer loop
    vertex 31.08564451889844 30.203392995045544 0.0
    vertex 31.59436931997899 29.121038875170143 7.5596070000000015
    vertex 31.59436931997899 29.121038875170143 0.0
  endloop
endfacet
facet normal 0.9050177902634993 0.4253737172258917 0.0
  outer loop
    vertex 31.59436931997899 29.121038875170143 7.5596070000000015
    vertex 31.08564451889844 30.203392995045544 0.0
    vertex 31.08564451889844 30.203392995045544 7.5596070000000015
  endloop
endfacet
facet normal 0.9842748761706934 0.17664361901627276 0.0
  outer loop
    vertex 31.59436931997899 29.121038875170143 0.0
    vertex 31.80562588404752 27.9438974103565 7.5596070000000015
    vertex 31.80562588404752 27.9438974103565 0.0
  endloop
endfacet
facet normal 0.9842748761706934 0.17664361901627276 0.0
  outer loop
    vertex 31.80562588404752 27.9438974103565 7.5596070000000015
    vertex 31.59436931997899 29.121038875170143 0.0
    vertex 31.59436931997899 29.121038875170143 7.5596070000000015
  endloop
endfacet
facet normal -0.9238795325112884 0.3826834323650859 2.1258060351369682e-32
  outer loop
    vertex 28.678247780137994 27.34191311742763 7.582352000000002
    vertex 28.528397146381053 26.980141685081414 1.6000000000000003
    vertex 28.528397146381053 26.980141685081414 7.582352000000002
  endloop
endfacet
facet normal -0.9238795325112884 0.3826834323650859 2.1258060351369682e-32
  outer loop
    vertex 28.528397146381053 26.980141685081414 1.6000000000000003
    vertex 28.678247780137994 27.34191311742763 7.582352000000002
    vertex 28.678247780137994 27.34191311742763 1.6000000000000003
  endloop
endfacet
endsolid Untitled-56e8a0f2
