solid OpenSCAD_Model
  facet normal 0 0 -1
    outer loop
      vertex -4.5 0 -5
      vertex -4.47833 0.441077 -5
      vertex -4.47833 -0.441077 -5
    endloop
  endfacet
  facet normal 0 0 -1
    outer loop
      vertex -4.47833 -0.441077 -5
      vertex -4.47833 0.441077 -5
      vertex -4.41353 0.877906 -5
    endloop
  endfacet
  facet normal 0 0 -1
    outer loop
      vertex -4.47833 -0.441077 -5
      vertex -4.41353 0.877906 -5
      vertex -4.30623 1.30628 -5
    endloop
  endfacet
  facet normal 0 0 -1
    outer loop
      vertex -4.47833 -0.441077 -5
      vertex -4.30623 1.30628 -5
      vertex -4.15746 1.72208 -5
    endloop
  endfacet
  facet normal 0 0 -1
    outer loop
      vertex -4.47833 -0.441077 -5
      vertex -4.15746 1.72208 -5
      vertex -3.96865 2.12128 -5
    endloop
  endfacet
  facet normal 0 0 -1
    outer loop
      vertex -4.47833 -0.441077 -5
      vertex -3.96865 2.12128 -5
      vertex -3.74161 2.50007 -5
    endloop
  endfacet
  facet normal 0 0 -1
    outer loop
      vertex -4.47833 -0.441077 -5
      vertex -3.74161 2.50007 -5
      vertex -3.47855 2.85477 -5
    endloop
  endfacet
  facet normal 0 0 -1
    outer loop
      vertex -4.47833 -0.441077 -5
      vertex -3.47855 2.85477 -5
      vertex -3.18198 3.18198 -5
    endloop
  endfacet
  facet normal 0 0 -1
    outer loop
      vertex -4.47833 -0.441077 -5
      vertex -3.18198 3.18198 -5
      vertex -2.85477 3.47855 -5
    endloop
  endfacet
  facet normal 0 0 -1
    outer loop
      vertex -4.47833 -0.441077 -5
      vertex -2.85477 3.47855 -5
      vertex -2.50007 3.74161 -5
    endloop
  endfacet
  facet normal 0 0 -1
    outer loop
      vertex -4.47833 -0.441077 -5
      vertex -2.50007 3.74161 -5
      vertex -2.12128 3.96865 -5
    endloop
  endfacet
  facet normal 0 0 -1
    outer loop
      vertex -4.47833 -0.441077 -5
      vertex -2.12128 3.96865 -5
      vertex -1.72208 4.15746 -5
    endloop
  endfacet
  facet normal 0 0 -1
    outer loop
      vertex -4.47833 -0.441077 -5
      vertex -1.72208 4.15746 -5
      vertex -1.30628 4.30623 -5
    endloop
  endfacet
  facet normal 0 0 -1
    outer loop
      vertex -4.47833 -0.441077 -5
      vertex -1.30628 4.30623 -5
      vertex -0.877906 4.41353 -5
    endloop
  endfacet
  facet normal 0 0 -1
    outer loop
      vertex -4.47833 -0.441077 -5
      vertex -0.877906 4.41353 -5
      vertex -0.441077 4.47833 -5
    endloop
  endfacet
  facet normal 0 0 -1
    outer loop
      vertex -4.47833 -0.441077 -5
      vertex -0.441077 4.47833 -5
      vertex 0 4.5 -5
    endloop
  endfacet
  facet normal 0 0 -1
    outer loop
      vertex -4.47833 -0.441077 -5
      vertex 0 4.5 -5
      vertex 0.441077 4.47833 -5
    endloop
  endfacet
  facet normal 0 0 -1
    outer loop
      vertex -4.47833 -0.441077 -5
      vertex 0.441077 4.47833 -5
      vertex 0.877906 4.41353 -5
    endloop
  endfacet
  facet normal 0 0 -1
    outer loop
      vertex -4.47833 -0.441077 -5
      vertex 0.877906 4.41353 -5
      vertex 1.30628 4.30623 -5
    endloop
  endfacet
  facet normal 0 0 -1
    outer loop
      vertex -4.47833 -0.441077 -5
      vertex 1.30628 4.30623 -5
      vertex 1.72208 4.15746 -5
    endloop
  endfacet
  facet normal 0 0 -1
    outer loop
      vertex -4.47833 -0.441077 -5
      vertex 1.72208 4.15746 -5
      vertex 2.12128 3.96865 -5
    endloop
  endfacet
  facet normal 0 0 -1
    outer loop
      vertex -4.47833 -0.441077 -5
      vertex 2.12128 3.96865 -5
      vertex 2.50007 3.74161 -5
    endloop
  endfacet
  facet normal 0 0 -1
    outer loop
      vertex -0.669696 1.61679 -5
      vertex 2.50007 3.74161 -5
      vertex 2.85477 3.47855 -5
    endloop
  endfacet
  facet normal 0 0 -1
    outer loop
      vertex 0 1.75 -5
      vertex 2.85477 3.47855 -5
      vertex 3.18198 3.18198 -5
    endloop
  endfacet
  facet normal 0 0 -1
    outer loop
      vertex 0.507998 1.67465 -5
      vertex 3.18198 3.18198 -5
      vertex 3.47855 2.85477 -5
    endloop
  endfacet
  facet normal 0 0 -1
    outer loop
      vertex 0.824944 1.54336 -5
      vertex 3.47855 2.85477 -5
      vertex 3.74161 2.50007 -5
    endloop
  endfacet
  facet normal 0 0 -1
    outer loop
      vertex 1.11019 1.35277 -5
      vertex 3.74161 2.50007 -5
      vertex 3.96865 2.12128 -5
    endloop
  endfacet
  facet normal 0 0 -1
    outer loop
      vertex 1.35277 1.11019 -5
      vertex 3.96865 2.12128 -5
      vertex 4.15746 1.72208 -5
    endloop
  endfacet
  facet normal 0 0 -1
    outer loop
      vertex 1.54336 0.824944 -5
      vertex 4.15746 1.72208 -5
      vertex 4.30623 1.30628 -5
    endloop
  endfacet
  facet normal 0 0 -1
    outer loop
      vertex 1.67465 0.507998 -5
      vertex 4.30623 1.30628 -5
      vertex 4.41353 0.877906 -5
    endloop
  endfacet
  facet normal 0 0 -1
    outer loop
      vertex 1.74157 0.17153 -5
      vertex 4.41353 0.877906 -5
      vertex 4.47833 0.441077 -5
    endloop
  endfacet
  facet normal 0 0 -1
    outer loop
      vertex 1.75 0 -5
      vertex 4.47833 0.441077 -5
      vertex 4.5 0 -5
    endloop
  endfacet
  facet normal 0 0 -1
    outer loop
      vertex 1.71637 -0.341408 -5
      vertex 4.5 0 -5
      vertex 4.47833 -0.441077 -5
    endloop
  endfacet
  facet normal 0 0 -1
    outer loop
      vertex 1.61679 -0.669696 -5
      vertex 4.47833 -0.441077 -5
      vertex 4.41353 -0.877906 -5
    endloop
  endfacet
  facet normal 0 0 -1
    outer loop
      vertex 1.45507 -0.972248 -5
      vertex 4.41353 -0.877906 -5
      vertex 4.30623 -1.30628 -5
    endloop
  endfacet
  facet normal 0 0 -1
    outer loop
      vertex 1.23744 -1.23744 -5
      vertex 4.30623 -1.30628 -5
      vertex 4.15746 -1.72208 -5
    endloop
  endfacet
  facet normal 0 0 -1
    outer loop
      vertex 0.972248 -1.45507 -5
      vertex 4.15746 -1.72208 -5
      vertex 3.96865 -2.12128 -5
    endloop
  endfacet
  facet normal 0 0 -1
    outer loop
      vertex 0.669696 -1.61679 -5
      vertex 3.96865 -2.12128 -5
      vertex 3.74161 -2.50007 -5
    endloop
  endfacet
  facet normal 0 0 -1
    outer loop
      vertex 0.17153 -1.74157 -5
      vertex 3.74161 -2.50007 -5
      vertex 3.47855 -2.85477 -5
    endloop
  endfacet
  facet normal 0 0 -1
    outer loop
      vertex -0.507998 -1.67465 -5
      vertex 3.47855 -2.85477 -5
      vertex 3.18198 -3.18198 -5
    endloop
  endfacet
  facet normal 0 0 -1
    outer loop
      vertex -4.47833 -0.441077 -5
      vertex 3.18198 -3.18198 -5
      vertex 2.85477 -3.47855 -5
    endloop
  endfacet
  facet normal 0 0 -1
    outer loop
      vertex -4.47833 -0.441077 -5
      vertex 2.85477 -3.47855 -5
      vertex 2.50007 -3.74161 -5
    endloop
  endfacet
  facet normal 0 0 -1
    outer loop
      vertex -4.47833 -0.441077 -5
      vertex 2.50007 -3.74161 -5
      vertex 2.12128 -3.96865 -5
    endloop
  endfacet
  facet normal 0 0 -1
    outer loop
      vertex -4.47833 -0.441077 -5
      vertex 2.12128 -3.96865 -5
      vertex 1.72208 -4.15746 -5
    endloop
  endfacet
  facet normal 0 0 -1
    outer loop
      vertex -4.47833 -0.441077 -5
      vertex 1.72208 -4.15746 -5
      vertex 1.30628 -4.30623 -5
    endloop
  endfacet
  facet normal 0 0 -1
    outer loop
      vertex -4.47833 -0.441077 -5
      vertex 1.30628 -4.30623 -5
      vertex 0.877906 -4.41353 -5
    endloop
  endfacet
  facet normal 0 0 -1
    outer loop
      vertex -4.47833 -0.441077 -5
      vertex 0.877906 -4.41353 -5
      vertex 0.441077 -4.47833 -5
    endloop
  endfacet
  facet normal 0 0 -1
    outer loop
      vertex -4.47833 -0.441077 -5
      vertex 0.441077 -4.47833 -5
      vertex 0 -4.5 -5
    endloop
  endfacet
  facet normal 0 0 -1
    outer loop
      vertex -4.47833 -0.441077 -5
      vertex 0 -4.5 -5
      vertex -0.441077 -4.47833 -5
    endloop
  endfacet
  facet normal 0 0 -1
    outer loop
      vertex -4.47833 -0.441077 -5
      vertex -0.441077 -4.47833 -5
      vertex -0.877906 -4.41353 -5
    endloop
  endfacet
  facet normal 0 0 -1
    outer loop
      vertex -4.47833 -0.441077 -5
      vertex -0.877906 -4.41353 -5
      vertex -1.30628 -4.30623 -5
    endloop
  endfacet
  facet normal 0 0 -1
    outer loop
      vertex -4.47833 -0.441077 -5
      vertex -1.30628 -4.30623 -5
      vertex -1.72208 -4.15746 -5
    endloop
  endfacet
  facet normal 0 0 -1
    outer loop
      vertex -4.47833 -0.441077 -5
      vertex -1.72208 -4.15746 -5
      vertex -2.12128 -3.96865 -5
    endloop
  endfacet
  facet normal 0 0 -1
    outer loop
      vertex -4.47833 -0.441077 -5
      vertex -2.12128 -3.96865 -5
      vertex -2.50007 -3.74161 -5
    endloop
  endfacet
  facet normal 0 0 -1
    outer loop
      vertex -4.47833 -0.441077 -5
      vertex -2.50007 -3.74161 -5
      vertex -2.85477 -3.47855 -5
    endloop
  endfacet
  facet normal 0 0 -1
    outer loop
      vertex -4.47833 -0.441077 -5
      vertex -2.85477 -3.47855 -5
      vertex -3.18198 -3.18198 -5
    endloop
  endfacet
  facet normal 0 0 -1
    outer loop
      vertex -4.47833 -0.441077 -5
      vertex -3.18198 -3.18198 -5
      vertex -3.47855 -2.85477 -5
    endloop
  endfacet
  facet normal 0 0 -1
    outer loop
      vertex -4.47833 -0.441077 -5
      vertex -3.47855 -2.85477 -5
      vertex -3.74161 -2.50007 -5
    endloop
  endfacet
  facet normal 0 0 -1
    outer loop
      vertex -4.47833 -0.441077 -5
      vertex -3.74161 -2.50007 -5
      vertex -3.96865 -2.12128 -5
    endloop
  endfacet
  facet normal 0 0 -1
    outer loop
      vertex -4.47833 -0.441077 -5
      vertex -3.96865 -2.12128 -5
      vertex -4.15746 -1.72208 -5
    endloop
  endfacet
  facet normal 0 0 -1
    outer loop
      vertex -4.47833 -0.441077 -5
      vertex -4.15746 -1.72208 -5
      vertex -4.30623 -1.30628 -5
    endloop
  endfacet
  facet normal 0 0 -1
    outer loop
      vertex -4.47833 -0.441077 -5
      vertex -4.30623 -1.30628 -5
      vertex -4.41353 -0.877906 -5
    endloop
  endfacet
  facet normal 0 0 -1
    outer loop
      vertex -1.74157 -0.17153 -5
      vertex -4.47833 -0.441077 -5
      vertex -1.75 0 -5
    endloop
  endfacet
  facet normal 0 0 -1
    outer loop
      vertex -1.71637 -0.341408 -5
      vertex -4.47833 -0.441077 -5
      vertex -1.74157 -0.17153 -5
    endloop
  endfacet
  facet normal 0 0 -1
    outer loop
      vertex -1.67465 -0.507998 -5
      vertex -4.47833 -0.441077 -5
      vertex -1.71637 -0.341408 -5
    endloop
  endfacet
  facet normal 0 0 -1
    outer loop
      vertex -1.61679 -0.669696 -5
      vertex -4.47833 -0.441077 -5
      vertex -1.67465 -0.507998 -5
    endloop
  endfacet
  facet normal 0 0 -1
    outer loop
      vertex -1.54336 -0.824944 -5
      vertex -4.47833 -0.441077 -5
      vertex -1.61679 -0.669696 -5
    endloop
  endfacet
  facet normal 0 0 -1
    outer loop
      vertex -1.45507 -0.972248 -5
      vertex -4.47833 -0.441077 -5
      vertex -1.54336 -0.824944 -5
    endloop
  endfacet
  facet normal 0 0 -1
    outer loop
      vertex -1.35277 -1.11019 -5
      vertex -4.47833 -0.441077 -5
      vertex -1.45507 -0.972248 -5
    endloop
  endfacet
  facet normal 0 0 -1
    outer loop
      vertex -1.11019 -1.35277 -5
      vertex -4.47833 -0.441077 -5
      vertex -1.23744 -1.23744 -5
    endloop
  endfacet
  facet normal 0 0 -1
    outer loop
      vertex -4.47833 -0.441077 -5
      vertex -1.35277 -1.11019 -5
      vertex -1.23744 -1.23744 -5
    endloop
  endfacet
  facet normal 0 0 -1
    outer loop
      vertex -0.669696 -1.61679 -5
      vertex -4.47833 -0.441077 -5
      vertex -0.824944 -1.54336 -5
    endloop
  endfacet
  facet normal 0 0 -1
    outer loop
      vertex -4.47833 -0.441077 -5
      vertex -1.11019 -1.35277 -5
      vertex -0.972248 -1.45507 -5
    endloop
  endfacet
  facet normal 0 0 -1
    outer loop
      vertex -4.47833 -0.441077 -5
      vertex -0.972248 -1.45507 -5
      vertex -0.824944 -1.54336 -5
    endloop
  endfacet
  facet normal 0 0 -1
    outer loop
      vertex -0.17153 -1.74157 -5
      vertex 3.47855 -2.85477 -5
      vertex -0.341408 -1.71637 -5
    endloop
  endfacet
  facet normal 0 0 -1
    outer loop
      vertex -4.47833 -0.441077 -5
      vertex -0.669696 -1.61679 -5
      vertex 3.18198 -3.18198 -5
    endloop
  endfacet
  facet normal 0 0 -1
    outer loop
      vertex -0.341408 -1.71637 -5
      vertex 3.47855 -2.85477 -5
      vertex -0.507998 -1.67465 -5
    endloop
  endfacet
  facet normal 0 0 -1
    outer loop
      vertex -0.669696 -1.61679 -5
      vertex -0.507998 -1.67465 -5
      vertex 3.18198 -3.18198 -5
    endloop
  endfacet
  facet normal 0 0 -1
    outer loop
      vertex 0 -1.75 -5
      vertex 3.47855 -2.85477 -5
      vertex -0.17153 -1.74157 -5
    endloop
  endfacet
  facet normal 0 0 -1
    outer loop
      vertex 0.17153 -1.74157 -5
      vertex 3.47855 -2.85477 -5
      vertex 0 -1.75 -5
    endloop
  endfacet
  facet normal 0 0 -1
    outer loop
      vertex 0.341408 -1.71637 -5
      vertex 3.74161 -2.50007 -5
      vertex 0.17153 -1.74157 -5
    endloop
  endfacet
  facet normal 0 0 -1
    outer loop
      vertex 0.507998 -1.67465 -5
      vertex 3.74161 -2.50007 -5
      vertex 0.341408 -1.71637 -5
    endloop
  endfacet
  facet normal 0 0 -1
    outer loop
      vertex 0.669696 -1.61679 -5
      vertex 3.74161 -2.50007 -5
      vertex 0.507998 -1.67465 -5
    endloop
  endfacet
  facet normal 0 0 -1
    outer loop
      vertex 0.824944 -1.54336 -5
      vertex 3.96865 -2.12128 -5
      vertex 0.669696 -1.61679 -5
    endloop
  endfacet
  facet normal 0 0 -1
    outer loop
      vertex 0.972248 -1.45507 -5
      vertex 3.96865 -2.12128 -5
      vertex 0.824944 -1.54336 -5
    endloop
  endfacet
  facet normal 0 0 -1
    outer loop
      vertex 1.11019 -1.35277 -5
      vertex 4.15746 -1.72208 -5
      vertex 0.972248 -1.45507 -5
    endloop
  endfacet
  facet normal 0 0 -1
    outer loop
      vertex 1.23744 -1.23744 -5
      vertex 4.15746 -1.72208 -5
      vertex 1.11019 -1.35277 -5
    endloop
  endfacet
  facet normal 0 0 -1
    outer loop
      vertex 1.35277 -1.11019 -5
      vertex 4.30623 -1.30628 -5
      vertex 1.23744 -1.23744 -5
    endloop
  endfacet
  facet normal 0 0 -1
    outer loop
      vertex 1.45507 -0.972248 -5
      vertex 4.30623 -1.30628 -5
      vertex 1.35277 -1.11019 -5
    endloop
  endfacet
  facet normal 0 0 -1
    outer loop
      vertex 1.54336 -0.824944 -5
      vertex 4.41353 -0.877906 -5
      vertex 1.45507 -0.972248 -5
    endloop
  endfacet
  facet normal 0 0 -1
    outer loop
      vertex 1.61679 -0.669696 -5
      vertex 4.41353 -0.877906 -5
      vertex 1.54336 -0.824944 -5
    endloop
  endfacet
  facet normal 0 0 -1
    outer loop
      vertex 1.67465 -0.507998 -5
      vertex 4.47833 -0.441077 -5
      vertex 1.61679 -0.669696 -5
    endloop
  endfacet
  facet normal 0 0 -1
    outer loop
      vertex 1.71637 -0.341408 -5
      vertex 4.47833 -0.441077 -5
      vertex 1.67465 -0.507998 -5
    endloop
  endfacet
  facet normal 0 0 -1
    outer loop
      vertex 1.74157 -0.17153 -5
      vertex 4.5 0 -5
      vertex 1.71637 -0.341408 -5
    endloop
  endfacet
  facet normal 0 0 -1
    outer loop
      vertex 1.75 0 -5
      vertex 4.5 0 -5
      vertex 1.74157 -0.17153 -5
    endloop
  endfacet
  facet normal 0 0 -1
    outer loop
      vertex 1.74157 0.17153 -5
      vertex 4.47833 0.441077 -5
      vertex 1.75 0 -5
    endloop
  endfacet
  facet normal 0 0 -1
    outer loop
      vertex 1.71637 0.341408 -5
      vertex 4.41353 0.877906 -5
      vertex 1.74157 0.17153 -5
    endloop
  endfacet
  facet normal 0 0 -1
    outer loop
      vertex 1.61679 0.669696 -5
      vertex 4.30623 1.30628 -5
      vertex 1.67465 0.507998 -5
    endloop
  endfacet
  facet normal 0 0 -1
    outer loop
      vertex 1.54336 0.824944 -5
      vertex 4.30623 1.30628 -5
      vertex 1.61679 0.669696 -5
    endloop
  endfacet
  facet normal 0 0 -1
    outer loop
      vertex 1.45507 0.972248 -5
      vertex 4.15746 1.72208 -5
      vertex 1.54336 0.824944 -5
    endloop
  endfacet
  facet normal 0 0 -1
    outer loop
      vertex 1.23744 1.23744 -5
      vertex 3.96865 2.12128 -5
      vertex 1.35277 1.11019 -5
    endloop
  endfacet
  facet normal 0 0 -1
    outer loop
      vertex 1.11019 1.35277 -5
      vertex 3.96865 2.12128 -5
      vertex 1.23744 1.23744 -5
    endloop
  endfacet
  facet normal 0 0 -1
    outer loop
      vertex 0.972248 1.45507 -5
      vertex 3.74161 2.50007 -5
      vertex 1.11019 1.35277 -5
    endloop
  endfacet
  facet normal 0 0 -1
    outer loop
      vertex 0.824944 1.54336 -5
      vertex 3.74161 2.50007 -5
      vertex 0.972248 1.45507 -5
    endloop
  endfacet
  facet normal 0 0 -1
    outer loop
      vertex 0.669696 1.61679 -5
      vertex 3.47855 2.85477 -5
      vertex 0.824944 1.54336 -5
    endloop
  endfacet
  facet normal 0 0 -1
    outer loop
      vertex 0.507998 1.67465 -5
      vertex 3.47855 2.85477 -5
      vertex 0.669696 1.61679 -5
    endloop
  endfacet
  facet normal 0 0 -1
    outer loop
      vertex 0.341408 1.71637 -5
      vertex 3.18198 3.18198 -5
      vertex 0.507998 1.67465 -5
    endloop
  endfacet
  facet normal 0 0 -1
    outer loop
      vertex 0 1.75 -5
      vertex 3.18198 3.18198 -5
      vertex 0.17153 1.74157 -5
    endloop
  endfacet
  facet normal 0 0 -1
    outer loop
      vertex 0.17153 1.74157 -5
      vertex 3.18198 3.18198 -5
      vertex 0.341408 1.71637 -5
    endloop
  endfacet
  facet normal 0 0 -1
    outer loop
      vertex -0.17153 1.74157 -5
      vertex 2.85477 3.47855 -5
      vertex 0 1.75 -5
    endloop
  endfacet
  facet normal 0 0 -1
    outer loop
      vertex -0.669696 1.61679 -5
      vertex 2.85477 3.47855 -5
      vertex -0.507998 1.67465 -5
    endloop
  endfacet
  facet normal 0 0 -1
    outer loop
      vertex -0.341408 1.71637 -5
      vertex 2.85477 3.47855 -5
      vertex -0.17153 1.74157 -5
    endloop
  endfacet
  facet normal 0 0 -1
    outer loop
      vertex -0.507998 1.67465 -5
      vertex 2.85477 3.47855 -5
      vertex -0.341408 1.71637 -5
    endloop
  endfacet
  facet normal 0 0 -1
    outer loop
      vertex -0.824944 1.54336 -5
      vertex 2.50007 3.74161 -5
      vertex -0.669696 1.61679 -5
    endloop
  endfacet
  facet normal 0 0 -1
    outer loop
      vertex -1.11019 1.35277 -5
      vertex -4.47833 -0.441077 -5
      vertex -0.972248 1.45507 -5
    endloop
  endfacet
  facet normal 0 0 -1
    outer loop
      vertex -4.47833 -0.441077 -5
      vertex 2.50007 3.74161 -5
      vertex -0.824944 1.54336 -5
    endloop
  endfacet
  facet normal 0 0 -1
    outer loop
      vertex -4.47833 -0.441077 -5
      vertex -0.824944 1.54336 -5
      vertex -0.972248 1.45507 -5
    endloop
  endfacet
  facet normal 0 0 -1
    outer loop
      vertex -1.23744 1.23744 -5
      vertex -4.47833 -0.441077 -5
      vertex -1.11019 1.35277 -5
    endloop
  endfacet
  facet normal 0 0 -1
    outer loop
      vertex -1.35277 1.11019 -5
      vertex -4.47833 -0.441077 -5
      vertex -1.23744 1.23744 -5
    endloop
  endfacet
  facet normal 0 0 -1
    outer loop
      vertex -1.45507 0.972248 -5
      vertex -4.47833 -0.441077 -5
      vertex -1.35277 1.11019 -5
    endloop
  endfacet
  facet normal 0 0 -1
    outer loop
      vertex -1.54336 0.824944 -5
      vertex -4.47833 -0.441077 -5
      vertex -1.45507 0.972248 -5
    endloop
  endfacet
  facet normal 0 0 -1
    outer loop
      vertex -1.61679 0.669696 -5
      vertex -4.47833 -0.441077 -5
      vertex -1.54336 0.824944 -5
    endloop
  endfacet
  facet normal 0 0 -1
    outer loop
      vertex -1.67465 0.507998 -5
      vertex -4.47833 -0.441077 -5
      vertex -1.61679 0.669696 -5
    endloop
  endfacet
  facet normal 0 0 -1
    outer loop
      vertex -1.71637 0.341408 -5
      vertex -4.47833 -0.441077 -5
      vertex -1.67465 0.507998 -5
    endloop
  endfacet
  facet normal 0 0 -1
    outer loop
      vertex -1.74157 0.17153 -5
      vertex -4.47833 -0.441077 -5
      vertex -1.71637 0.341408 -5
    endloop
  endfacet
  facet normal 0 0 -1
    outer loop
      vertex -1.75 0 -5
      vertex -4.47833 -0.441077 -5
      vertex -1.74157 0.17153 -5
    endloop
  endfacet
  facet normal 0 0 -1
    outer loop
      vertex 1.35277 1.11019 -5
      vertex 4.15746 1.72208 -5
      vertex 1.45507 0.972248 -5
    endloop
  endfacet
  facet normal 0 0 -1
    outer loop
      vertex 1.67465 0.507998 -5
      vertex 4.41353 0.877906 -5
      vertex 1.71637 0.341408 -5
    endloop
  endfacet
  facet normal -0.998795 0.0490683 0
    outer loop
      vertex -4.5 0 -5
      vertex -4.5 0 5
      vertex -4.47833 0.441077 -5
    endloop
  endfacet
  facet normal -0.998795 0.0490683 0
    outer loop
      vertex -4.47833 0.441077 -5
      vertex -4.5 0 5
      vertex -4.47833 0.441077 5
    endloop
  endfacet
  facet normal -0.998795 -0.0490683 0
    outer loop
      vertex -4.5 0 -5
      vertex -4.47833 -0.441077 -5
      vertex -4.5 0 5
    endloop
  endfacet
  facet normal -0.998795 -0.0490683 0
    outer loop
      vertex -4.5 0 5
      vertex -4.47833 -0.441077 -5
      vertex -4.47833 -0.441077 5
    endloop
  endfacet
  facet normal -0.989177 -0.146729 0
    outer loop
      vertex -4.47833 -0.441077 -5
      vertex -4.41353 -0.877906 -5
      vertex -4.47833 -0.441077 5
    endloop
  endfacet
  facet normal -0.989177 -0.146729 0
    outer loop
      vertex -4.47833 -0.441077 5
      vertex -4.41353 -0.877906 -5
      vertex -4.41353 -0.877906 5
    endloop
  endfacet
  facet normal -0.970031 -0.242979 0
    outer loop
      vertex -4.41353 -0.877906 -5
      vertex -4.30623 -1.30628 -5
      vertex -4.41353 -0.877906 5
    endloop
  endfacet
  facet normal -0.970031 -0.242979 0
    outer loop
      vertex -4.41353 -0.877906 5
      vertex -4.30623 -1.30628 -5
      vertex -4.30623 -1.30628 5
    endloop
  endfacet
  facet normal -0.941544 -0.336891 0
    outer loop
      vertex -4.30623 -1.30628 -5
      vertex -4.15746 -1.72208 -5
      vertex -4.30623 -1.30628 5
    endloop
  endfacet
  facet normal -0.941544 -0.336891 0
    outer loop
      vertex -4.30623 -1.30628 5
      vertex -4.15746 -1.72208 -5
      vertex -4.15746 -1.72208 5
    endloop
  endfacet
  facet normal -0.90399 -0.427555 0
    outer loop
      vertex -4.15746 -1.72208 -5
      vertex -3.96865 -2.12128 -5
      vertex -4.15746 -1.72208 5
    endloop
  endfacet
  facet normal -0.90399 -0.427555 0
    outer loop
      vertex -4.15746 -1.72208 5
      vertex -3.96865 -2.12128 -5
      vertex -3.96865 -2.12128 5
    endloop
  endfacet
  facet normal -0.857728 -0.514103 0
    outer loop
      vertex -3.96865 -2.12128 -5
      vertex -3.74161 -2.50007 -5
      vertex -3.96865 -2.12128 5
    endloop
  endfacet
  facet normal -0.857728 -0.514103 0
    outer loop
      vertex -3.96865 -2.12128 5
      vertex -3.74161 -2.50007 -5
      vertex -3.74161 -2.50007 5
    endloop
  endfacet
  facet normal -0.803208 -0.595699 0
    outer loop
      vertex -3.74161 -2.50007 -5
      vertex -3.47855 -2.85477 -5
      vertex -3.74161 -2.50007 5
    endloop
  endfacet
  facet normal -0.803208 -0.595699 0
    outer loop
      vertex -3.74161 -2.50007 5
      vertex -3.47855 -2.85477 -5
      vertex -3.47855 -2.85477 5
    endloop
  endfacet
  facet normal -0.740952 -0.671558 0
    outer loop
      vertex -3.47855 -2.85477 -5
      vertex -3.18198 -3.18198 -5
      vertex -3.47855 -2.85477 5
    endloop
  endfacet
  facet normal -0.740952 -0.671558 0
    outer loop
      vertex -3.47855 -2.85477 5
      vertex -3.18198 -3.18198 -5
      vertex -3.18198 -3.18198 5
    endloop
  endfacet
  facet normal -0.671558 -0.740952 0
    outer loop
      vertex -3.18198 -3.18198 5
      vertex -3.18198 -3.18198 -5
      vertex -2.85477 -3.47855 -5
    endloop
  endfacet
  facet normal -0.671558 -0.740952 0
    outer loop
      vertex -2.85477 -3.47855 5
      vertex -3.18198 -3.18198 5
      vertex -2.85477 -3.47855 -5
    endloop
  endfacet
  facet normal -0.595699 -0.803208 0
    outer loop
      vertex -2.85477 -3.47855 5
      vertex -2.85477 -3.47855 -5
      vertex -2.50007 -3.74161 -5
    endloop
  endfacet
  facet normal -0.595699 -0.803208 0
    outer loop
      vertex -2.50007 -3.74161 5
      vertex -2.85477 -3.47855 5
      vertex -2.50007 -3.74161 -5
    endloop
  endfacet
  facet normal -0.514103 -0.857728 0
    outer loop
      vertex -2.50007 -3.74161 5
      vertex -2.50007 -3.74161 -5
      vertex -2.12128 -3.96865 -5
    endloop
  endfacet
  facet normal -0.514103 -0.857728 0
    outer loop
      vertex -2.12128 -3.96865 5
      vertex -2.50007 -3.74161 5
      vertex -2.12128 -3.96865 -5
    endloop
  endfacet
  facet normal -0.427555 -0.90399 0
    outer loop
      vertex -2.12128 -3.96865 5
      vertex -2.12128 -3.96865 -5
      vertex -1.72208 -4.15746 -5
    endloop
  endfacet
  facet normal -0.427555 -0.90399 0
    outer loop
      vertex -1.72208 -4.15746 5
      vertex -2.12128 -3.96865 5
      vertex -1.72208 -4.15746 -5
    endloop
  endfacet
  facet normal -0.336891 -0.941544 0
    outer loop
      vertex -1.72208 -4.15746 5
      vertex -1.72208 -4.15746 -5
      vertex -1.30628 -4.30623 -5
    endloop
  endfacet
  facet normal -0.336891 -0.941544 0
    outer loop
      vertex -1.30628 -4.30623 5
      vertex -1.72208 -4.15746 5
      vertex -1.30628 -4.30623 -5
    endloop
  endfacet
  facet normal -0.242979 -0.970031 0
    outer loop
      vertex -1.30628 -4.30623 5
      vertex -1.30628 -4.30623 -5
      vertex -0.877906 -4.41353 -5
    endloop
  endfacet
  facet normal -0.242979 -0.970031 0
    outer loop
      vertex -0.877906 -4.41353 5
      vertex -1.30628 -4.30623 5
      vertex -0.877906 -4.41353 -5
    endloop
  endfacet
  facet normal -0.146729 -0.989177 0
    outer loop
      vertex -0.877906 -4.41353 5
      vertex -0.877906 -4.41353 -5
      vertex -0.441077 -4.47833 -5
    endloop
  endfacet
  facet normal -0.146729 -0.989177 0
    outer loop
      vertex -0.441077 -4.47833 5
      vertex -0.877906 -4.41353 5
      vertex -0.441077 -4.47833 -5
    endloop
  endfacet
  facet normal -0.0490683 -0.998795 0
    outer loop
      vertex -0.441077 -4.47833 5
      vertex -0.441077 -4.47833 -5
      vertex 0 -4.5 -5
    endloop
  endfacet
  facet normal -0.0490683 -0.998795 0
    outer loop
      vertex 0 -4.5 5
      vertex -0.441077 -4.47833 5
      vertex 0 -4.5 -5
    endloop
  endfacet
  facet normal 0.0490683 -0.998795 0
    outer loop
      vertex 0 -4.5 5
      vertex 0 -4.5 -5
      vertex 0.441077 -4.47833 -5
    endloop
  endfacet
  facet normal 0.0490683 -0.998795 0
    outer loop
      vertex 0.441077 -4.47833 5
      vertex 0 -4.5 5
      vertex 0.441077 -4.47833 -5
    endloop
  endfacet
  facet normal 0.146729 -0.989177 0
    outer loop
      vertex 0.441077 -4.47833 5
      vertex 0.441077 -4.47833 -5
      vertex 0.877906 -4.41353 -5
    endloop
  endfacet
  facet normal 0.146729 -0.989177 0
    outer loop
      vertex 0.877906 -4.41353 5
      vertex 0.441077 -4.47833 5
      vertex 0.877906 -4.41353 -5
    endloop
  endfacet
  facet normal 0.242979 -0.970031 0
    outer loop
      vertex 0.877906 -4.41353 5
      vertex 0.877906 -4.41353 -5
      vertex 1.30628 -4.30623 -5
    endloop
  endfacet
  facet normal 0.242979 -0.970031 0
    outer loop
      vertex 1.30628 -4.30623 5
      vertex 0.877906 -4.41353 5
      vertex 1.30628 -4.30623 -5
    endloop
  endfacet
  facet normal 0.336891 -0.941544 0
    outer loop
      vertex 1.30628 -4.30623 5
      vertex 1.30628 -4.30623 -5
      vertex 1.72208 -4.15746 -5
    endloop
  endfacet
  facet normal 0.336891 -0.941544 0
    outer loop
      vertex 1.72208 -4.15746 5
      vertex 1.30628 -4.30623 5
      vertex 1.72208 -4.15746 -5
    endloop
  endfacet
  facet normal 0.427555 -0.90399 0
    outer loop
      vertex 1.72208 -4.15746 5
      vertex 1.72208 -4.15746 -5
      vertex 2.12128 -3.96865 -5
    endloop
  endfacet
  facet normal 0.427555 -0.90399 0
    outer loop
      vertex 2.12128 -3.96865 5
      vertex 1.72208 -4.15746 5
      vertex 2.12128 -3.96865 -5
    endloop
  endfacet
  facet normal 0.514103 -0.857728 0
    outer loop
      vertex 2.12128 -3.96865 5
      vertex 2.12128 -3.96865 -5
      vertex 2.50007 -3.74161 -5
    endloop
  endfacet
  facet normal 0.514103 -0.857728 0
    outer loop
      vertex 2.50007 -3.74161 5
      vertex 2.12128 -3.96865 5
      vertex 2.50007 -3.74161 -5
    endloop
  endfacet
  facet normal 0.595699 -0.803208 0
    outer loop
      vertex 2.50007 -3.74161 5
      vertex 2.50007 -3.74161 -5
      vertex 2.85477 -3.47855 -5
    endloop
  endfacet
  facet normal 0.595699 -0.803208 0
    outer loop
      vertex 2.85477 -3.47855 5
      vertex 2.50007 -3.74161 5
      vertex 2.85477 -3.47855 -5
    endloop
  endfacet
  facet normal 0.671558 -0.740952 0
    outer loop
      vertex 2.85477 -3.47855 5
      vertex 2.85477 -3.47855 -5
      vertex 3.18198 -3.18198 -5
    endloop
  endfacet
  facet normal 0.671558 -0.740952 0
    outer loop
      vertex 3.18198 -3.18198 5
      vertex 2.85477 -3.47855 5
      vertex 3.18198 -3.18198 -5
    endloop
  endfacet
  facet normal 0.740952 -0.671558 0
    outer loop
      vertex 3.18198 -3.18198 5
      vertex 3.18198 -3.18198 -5
      vertex 3.47855 -2.85477 -5
    endloop
  endfacet
  facet normal 0.740952 -0.671558 0
    outer loop
      vertex 3.47855 -2.85477 5
      vertex 3.18198 -3.18198 5
      vertex 3.47855 -2.85477 -5
    endloop
  endfacet
  facet normal 0.803208 -0.595699 0
    outer loop
      vertex 3.47855 -2.85477 5
      vertex 3.47855 -2.85477 -5
      vertex 3.74161 -2.50007 -5
    endloop
  endfacet
  facet normal 0.803208 -0.595699 0
    outer loop
      vertex 3.74161 -2.50007 5
      vertex 3.47855 -2.85477 5
      vertex 3.74161 -2.50007 -5
    endloop
  endfacet
  facet normal 0.857728 -0.514103 0
    outer loop
      vertex 3.74161 -2.50007 5
      vertex 3.74161 -2.50007 -5
      vertex 3.96865 -2.12128 -5
    endloop
  endfacet
  facet normal 0.857728 -0.514103 0
    outer loop
      vertex 3.96865 -2.12128 5
      vertex 3.74161 -2.50007 5
      vertex 3.96865 -2.12128 -5
    endloop
  endfacet
  facet normal 0.90399 -0.427555 0
    outer loop
      vertex 3.96865 -2.12128 5
      vertex 3.96865 -2.12128 -5
      vertex 4.15746 -1.72208 -5
    endloop
  endfacet
  facet normal 0.90399 -0.427555 0
    outer loop
      vertex 4.15746 -1.72208 5
      vertex 3.96865 -2.12128 5
      vertex 4.15746 -1.72208 -5
    endloop
  endfacet
  facet normal 0.941544 -0.336891 0
    outer loop
      vertex 4.15746 -1.72208 5
      vertex 4.15746 -1.72208 -5
      vertex 4.30623 -1.30628 -5
    endloop
  endfacet
  facet normal 0.941544 -0.336891 0
    outer loop
      vertex 4.30623 -1.30628 5
      vertex 4.15746 -1.72208 5
      vertex 4.30623 -1.30628 -5
    endloop
  endfacet
  facet normal 0.970031 -0.242979 0
    outer loop
      vertex 4.30623 -1.30628 5
      vertex 4.30623 -1.30628 -5
      vertex 4.41353 -0.877906 -5
    endloop
  endfacet
  facet normal 0.970031 -0.242979 0
    outer loop
      vertex 4.41353 -0.877906 5
      vertex 4.30623 -1.30628 5
      vertex 4.41353 -0.877906 -5
    endloop
  endfacet
  facet normal 0.989177 -0.146729 0
    outer loop
      vertex 4.41353 -0.877906 5
      vertex 4.41353 -0.877906 -5
      vertex 4.47833 -0.441077 -5
    endloop
  endfacet
  facet normal 0.989177 -0.146729 0
    outer loop
      vertex 4.47833 -0.441077 5
      vertex 4.41353 -0.877906 5
      vertex 4.47833 -0.441077 -5
    endloop
  endfacet
  facet normal 0.998795 -0.0490683 0
    outer loop
      vertex 4.47833 -0.441077 5
      vertex 4.47833 -0.441077 -5
      vertex 4.5 0 -5
    endloop
  endfacet
  facet normal 0.998795 -0.0490683 0
    outer loop
      vertex 4.5 0 5
      vertex 4.47833 -0.441077 5
      vertex 4.5 0 -5
    endloop
  endfacet
  facet normal 0.998795 0.0490683 0
    outer loop
      vertex 4.5 0 -5
      vertex 4.47833 0.441077 -5
      vertex 4.47833 0.441077 5
    endloop
  endfacet
  facet normal 0.998795 0.0490683 0
    outer loop
      vertex 4.5 0 5
      vertex 4.5 0 -5
      vertex 4.47833 0.441077 5
    endloop
  endfacet
  facet normal 0.989177 0.146729 0
    outer loop
      vertex 4.47833 0.441077 -5
      vertex 4.41353 0.877906 -5
      vertex 4.41353 0.877906 5
    endloop
  endfacet
  facet normal 0.989177 0.146729 0
    outer loop
      vertex 4.47833 0.441077 5
      vertex 4.47833 0.441077 -5
      vertex 4.41353 0.877906 5
    endloop
  endfacet
  facet normal 0.970031 0.242979 0
    outer loop
      vertex 4.41353 0.877906 -5
      vertex 4.30623 1.30628 -5
      vertex 4.30623 1.30628 5
    endloop
  endfacet
  facet normal 0.970031 0.242979 0
    outer loop
      vertex 4.41353 0.877906 5
      vertex 4.41353 0.877906 -5
      vertex 4.30623 1.30628 5
    endloop
  endfacet
  facet normal 0.941544 0.336891 0
    outer loop
      vertex 4.30623 1.30628 -5
      vertex 4.15746 1.72208 -5
      vertex 4.15746 1.72208 5
    endloop
  endfacet
  facet normal 0.941544 0.336891 0
    outer loop
      vertex 4.30623 1.30628 5
      vertex 4.30623 1.30628 -5
      vertex 4.15746 1.72208 5
    endloop
  endfacet
  facet normal 0.90399 0.427555 0
    outer loop
      vertex 4.15746 1.72208 -5
      vertex 3.96865 2.12128 -5
      vertex 3.96865 2.12128 5
    endloop
  endfacet
  facet normal 0.90399 0.427555 0
    outer loop
      vertex 4.15746 1.72208 5
      vertex 4.15746 1.72208 -5
      vertex 3.96865 2.12128 5
    endloop
  endfacet
  facet normal 0.857728 0.514103 0
    outer loop
      vertex 3.96865 2.12128 -5
      vertex 3.74161 2.50007 -5
      vertex 3.74161 2.50007 5
    endloop
  endfacet
  facet normal 0.857728 0.514103 0
    outer loop
      vertex 3.96865 2.12128 5
      vertex 3.96865 2.12128 -5
      vertex 3.74161 2.50007 5
    endloop
  endfacet
  facet normal 0.803208 0.595699 0
    outer loop
      vertex 3.74161 2.50007 -5
      vertex 3.47855 2.85477 -5
      vertex 3.47855 2.85477 5
    endloop
  endfacet
  facet normal 0.803208 0.595699 0
    outer loop
      vertex 3.74161 2.50007 5
      vertex 3.74161 2.50007 -5
      vertex 3.47855 2.85477 5
    endloop
  endfacet
  facet normal 0.740952 0.671558 0
    outer loop
      vertex 3.47855 2.85477 -5
      vertex 3.18198 3.18198 -5
      vertex 3.18198 3.18198 5
    endloop
  endfacet
  facet normal 0.740952 0.671558 0
    outer loop
      vertex 3.47855 2.85477 5
      vertex 3.47855 2.85477 -5
      vertex 3.18198 3.18198 5
    endloop
  endfacet
  facet normal 0.671558 0.740952 0
    outer loop
      vertex 2.85477 3.47855 -5
      vertex 2.85477 3.47855 5
      vertex 3.18198 3.18198 -5
    endloop
  endfacet
  facet normal 0.671558 0.740952 0
    outer loop
      vertex 3.18198 3.18198 -5
      vertex 2.85477 3.47855 5
      vertex 3.18198 3.18198 5
    endloop
  endfacet
  facet normal 0.595699 0.803208 0
    outer loop
      vertex 2.50007 3.74161 -5
      vertex 2.50007 3.74161 5
      vertex 2.85477 3.47855 -5
    endloop
  endfacet
  facet normal 0.595699 0.803208 0
    outer loop
      vertex 2.85477 3.47855 -5
      vertex 2.50007 3.74161 5
      vertex 2.85477 3.47855 5
    endloop
  endfacet
  facet normal 0.514103 0.857728 0
    outer loop
      vertex 2.12128 3.96865 -5
      vertex 2.12128 3.96865 5
      vertex 2.50007 3.74161 -5
    endloop
  endfacet
  facet normal 0.514103 0.857728 0
    outer loop
      vertex 2.50007 3.74161 -5
      vertex 2.12128 3.96865 5
      vertex 2.50007 3.74161 5
    endloop
  endfacet
  facet normal 0.427555 0.90399 0
    outer loop
      vertex 1.72208 4.15746 -5
      vertex 1.72208 4.15746 5
      vertex 2.12128 3.96865 -5
    endloop
  endfacet
  facet normal 0.427555 0.90399 0
    outer loop
      vertex 2.12128 3.96865 -5
      vertex 1.72208 4.15746 5
      vertex 2.12128 3.96865 5
    endloop
  endfacet
  facet normal 0.336891 0.941544 0
    outer loop
      vertex 1.30628 4.30623 -5
      vertex 1.30628 4.30623 5
      vertex 1.72208 4.15746 -5
    endloop
  endfacet
  facet normal 0.336891 0.941544 0
    outer loop
      vertex 1.72208 4.15746 -5
      vertex 1.30628 4.30623 5
      vertex 1.72208 4.15746 5
    endloop
  endfacet
  facet normal 0.242979 0.970031 0
    outer loop
      vertex 0.877906 4.41353 -5
      vertex 0.877906 4.41353 5
      vertex 1.30628 4.30623 -5
    endloop
  endfacet
  facet normal 0.242979 0.970031 0
    outer loop
      vertex 1.30628 4.30623 -5
      vertex 0.877906 4.41353 5
      vertex 1.30628 4.30623 5
    endloop
  endfacet
  facet normal 0.146729 0.989177 0
    outer loop
      vertex 0.441077 4.47833 -5
      vertex 0.441077 4.47833 5
      vertex 0.877906 4.41353 -5
    endloop
  endfacet
  facet normal 0.146729 0.989177 0
    outer loop
      vertex 0.877906 4.41353 -5
      vertex 0.441077 4.47833 5
      vertex 0.877906 4.41353 5
    endloop
  endfacet
  facet normal 0.0490683 0.998795 0
    outer loop
      vertex 0 4.5 -5
      vertex 0 4.5 5
      vertex 0.441077 4.47833 -5
    endloop
  endfacet
  facet normal 0.0490683 0.998795 0
    outer loop
      vertex 0.441077 4.47833 -5
      vertex 0 4.5 5
      vertex 0.441077 4.47833 5
    endloop
  endfacet
  facet normal -0.0490683 0.998795 0
    outer loop
      vertex -0.441077 4.47833 -5
      vertex -0.441077 4.47833 5
      vertex 0 4.5 -5
    endloop
  endfacet
  facet normal -0.0490683 0.998795 0
    outer loop
      vertex 0 4.5 -5
      vertex -0.441077 4.47833 5
      vertex 0 4.5 5
    endloop
  endfacet
  facet normal -0.146729 0.989177 0
    outer loop
      vertex -0.877906 4.41353 -5
      vertex -0.877906 4.41353 5
      vertex -0.441077 4.47833 -5
    endloop
  endfacet
  facet normal -0.146729 0.989177 0
    outer loop
      vertex -0.441077 4.47833 -5
      vertex -0.877906 4.41353 5
      vertex -0.441077 4.47833 5
    endloop
  endfacet
  facet normal -0.242979 0.970031 0
    outer loop
      vertex -1.30628 4.30623 -5
      vertex -1.30628 4.30623 5
      vertex -0.877906 4.41353 -5
    endloop
  endfacet
  facet normal -0.242979 0.970031 0
    outer loop
      vertex -0.877906 4.41353 -5
      vertex -1.30628 4.30623 5
      vertex -0.877906 4.41353 5
    endloop
  endfacet
  facet normal -0.336891 0.941544 0
    outer loop
      vertex -1.72208 4.15746 -5
      vertex -1.72208 4.15746 5
      vertex -1.30628 4.30623 -5
    endloop
  endfacet
  facet normal -0.336891 0.941544 0
    outer loop
      vertex -1.30628 4.30623 -5
      vertex -1.72208 4.15746 5
      vertex -1.30628 4.30623 5
    endloop
  endfacet
  facet normal -0.427555 0.90399 0
    outer loop
      vertex -2.12128 3.96865 -5
      vertex -2.12128 3.96865 5
      vertex -1.72208 4.15746 -5
    endloop
  endfacet
  facet normal -0.427555 0.90399 0
    outer loop
      vertex -1.72208 4.15746 -5
      vertex -2.12128 3.96865 5
      vertex -1.72208 4.15746 5
    endloop
  endfacet
  facet normal -0.514103 0.857728 0
    outer loop
      vertex -2.50007 3.74161 -5
      vertex -2.50007 3.74161 5
      vertex -2.12128 3.96865 -5
    endloop
  endfacet
  facet normal -0.514103 0.857728 0
    outer loop
      vertex -2.12128 3.96865 -5
      vertex -2.50007 3.74161 5
      vertex -2.12128 3.96865 5
    endloop
  endfacet
  facet normal -0.595699 0.803208 0
    outer loop
      vertex -2.85477 3.47855 -5
      vertex -2.85477 3.47855 5
      vertex -2.50007 3.74161 -5
    endloop
  endfacet
  facet normal -0.595699 0.803208 0
    outer loop
      vertex -2.50007 3.74161 -5
      vertex -2.85477 3.47855 5
      vertex -2.50007 3.74161 5
    endloop
  endfacet
  facet normal -0.671558 0.740952 0
    outer loop
      vertex -3.18198 3.18198 -5
      vertex -3.18198 3.18198 5
      vertex -2.85477 3.47855 -5
    endloop
  endfacet
  facet normal -0.671558 0.740952 0
    outer loop
      vertex -2.85477 3.47855 -5
      vertex -3.18198 3.18198 5
      vertex -2.85477 3.47855 5
    endloop
  endfacet
  facet normal -0.740952 0.671558 0
    outer loop
      vertex -3.47855 2.85477 -5
      vertex -3.47855 2.85477 5
      vertex -3.18198 3.18198 -5
    endloop
  endfacet
  facet normal -0.740952 0.671558 0
    outer loop
      vertex -3.18198 3.18198 -5
      vertex -3.47855 2.85477 5
      vertex -3.18198 3.18198 5
    endloop
  endfacet
  facet normal -0.803208 0.595699 0
    outer loop
      vertex -3.74161 2.50007 -5
      vertex -3.74161 2.50007 5
      vertex -3.47855 2.85477 -5
    endloop
  endfacet
  facet normal -0.803208 0.595699 0
    outer loop
      vertex -3.47855 2.85477 -5
      vertex -3.74161 2.50007 5
      vertex -3.47855 2.85477 5
    endloop
  endfacet
  facet normal -0.857728 0.514103 0
    outer loop
      vertex -3.96865 2.12128 -5
      vertex -3.96865 2.12128 5
      vertex -3.74161 2.50007 -5
    endloop
  endfacet
  facet normal -0.857728 0.514103 0
    outer loop
      vertex -3.74161 2.50007 -5
      vertex -3.96865 2.12128 5
      vertex -3.74161 2.50007 5
    endloop
  endfacet
  facet normal -0.90399 0.427555 0
    outer loop
      vertex -4.15746 1.72208 -5
      vertex -4.15746 1.72208 5
      vertex -3.96865 2.12128 -5
    endloop
  endfacet
  facet normal -0.90399 0.427555 0
    outer loop
      vertex -3.96865 2.12128 -5
      vertex -4.15746 1.72208 5
      vertex -3.96865 2.12128 5
    endloop
  endfacet
  facet normal -0.941544 0.336891 0
    outer loop
      vertex -4.30623 1.30628 -5
      vertex -4.30623 1.30628 5
      vertex -4.15746 1.72208 -5
    endloop
  endfacet
  facet normal -0.941544 0.336891 0
    outer loop
      vertex -4.15746 1.72208 -5
      vertex -4.30623 1.30628 5
      vertex -4.15746 1.72208 5
    endloop
  endfacet
  facet normal -0.970031 0.242979 0
    outer loop
      vertex -4.41353 0.877906 -5
      vertex -4.41353 0.877906 5
      vertex -4.30623 1.30628 -5
    endloop
  endfacet
  facet normal -0.970031 0.242979 0
    outer loop
      vertex -4.30623 1.30628 -5
      vertex -4.41353 0.877906 5
      vertex -4.30623 1.30628 5
    endloop
  endfacet
  facet normal -0.989177 0.146729 0
    outer loop
      vertex -4.47833 0.441077 -5
      vertex -4.47833 0.441077 5
      vertex -4.41353 0.877906 -5
    endloop
  endfacet
  facet normal -0.989177 0.146729 0
    outer loop
      vertex -4.41353 0.877906 -5
      vertex -4.47833 0.441077 5
      vertex -4.41353 0.877906 5
    endloop
  endfacet
  facet normal 0.998795 0.0490693 0
    outer loop
      vertex -1.75 0 5
      vertex -1.74157 -0.17153 5
      vertex -1.74157 -0.17153 -5
    endloop
  endfacet
  facet normal 0.998795 0.0490693 0
    outer loop
      vertex -1.75 0 -5
      vertex -1.75 0 5
      vertex -1.74157 -0.17153 -5
    endloop
  endfacet
  facet normal 0.998795 -0.0490693 0
    outer loop
      vertex -1.74157 0.17153 -5
      vertex -1.74157 0.17153 5
      vertex -1.75 0 5
    endloop
  endfacet
  facet normal 0.998795 -0.0490693 0
    outer loop
      vertex -1.75 0 -5
      vertex -1.74157 0.17153 -5
      vertex -1.75 0 5
    endloop
  endfacet
  facet normal 0.989177 -0.14673 0
    outer loop
      vertex -1.71637 0.341408 -5
      vertex -1.71637 0.341408 5
      vertex -1.74157 0.17153 5
    endloop
  endfacet
  facet normal 0.989177 -0.14673 0
    outer loop
      vertex -1.74157 0.17153 -5
      vertex -1.71637 0.341408 -5
      vertex -1.74157 0.17153 5
    endloop
  endfacet
  facet normal 0.970032 -0.242977 0
    outer loop
      vertex -1.67465 0.507998 -5
      vertex -1.67465 0.507998 5
      vertex -1.71637 0.341408 5
    endloop
  endfacet
  facet normal 0.970032 -0.242977 0
    outer loop
      vertex -1.71637 0.341408 -5
      vertex -1.67465 0.507998 -5
      vertex -1.71637 0.341408 5
    endloop
  endfacet
  facet normal 0.941543 -0.336893 0
    outer loop
      vertex -1.61679 0.669696 -5
      vertex -1.61679 0.669696 5
      vertex -1.67465 0.507998 5
    endloop
  endfacet
  facet normal 0.941543 -0.336893 0
    outer loop
      vertex -1.67465 0.507998 -5
      vertex -1.61679 0.669696 -5
      vertex -1.67465 0.507998 5
    endloop
  endfacet
  facet normal 0.903989 -0.427556 0
    outer loop
      vertex -1.54336 0.824944 -5
      vertex -1.54336 0.824944 5
      vertex -1.61679 0.669696 5
    endloop
  endfacet
  facet normal 0.903989 -0.427556 0
    outer loop
      vertex -1.61679 0.669696 -5
      vertex -1.54336 0.824944 -5
      vertex -1.61679 0.669696 5
    endloop
  endfacet
  facet normal 0.85773 -0.5141 0
    outer loop
      vertex -1.45507 0.972248 -5
      vertex -1.45507 0.972248 5
      vertex -1.54336 0.824944 5
    endloop
  endfacet
  facet normal 0.85773 -0.5141 0
    outer loop
      vertex -1.54336 0.824944 -5
      vertex -1.45507 0.972248 -5
      vertex -1.54336 0.824944 5
    endloop
  endfacet
  facet normal 0.803206 -0.595702 0
    outer loop
      vertex -1.35277 1.11019 -5
      vertex -1.35277 1.11019 5
      vertex -1.45507 0.972248 5
    endloop
  endfacet
  facet normal 0.803206 -0.595702 0
    outer loop
      vertex -1.45507 0.972248 -5
      vertex -1.35277 1.11019 -5
      vertex -1.45507 0.972248 5
    endloop
  endfacet
  facet normal 0.740953 -0.671556 0
    outer loop
      vertex -1.23744 1.23744 -5
      vertex -1.23744 1.23744 5
      vertex -1.35277 1.11019 5
    endloop
  endfacet
  facet normal 0.740953 -0.671556 0
    outer loop
      vertex -1.35277 1.11019 -5
      vertex -1.23744 1.23744 -5
      vertex -1.35277 1.11019 5
    endloop
  endfacet
  facet normal 0.671556 -0.740953 0
    outer loop
      vertex -1.11019 1.35277 -5
      vertex -1.11019 1.35277 5
      vertex -1.23744 1.23744 5
    endloop
  endfacet
  facet normal 0.671556 -0.740953 0
    outer loop
      vertex -1.23744 1.23744 -5
      vertex -1.11019 1.35277 -5
      vertex -1.23744 1.23744 5
    endloop
  endfacet
  facet normal 0.595702 -0.803206 0
    outer loop
      vertex -0.972248 1.45507 -5
      vertex -0.972248 1.45507 5
      vertex -1.11019 1.35277 5
    endloop
  endfacet
  facet normal 0.595702 -0.803206 0
    outer loop
      vertex -1.11019 1.35277 -5
      vertex -0.972248 1.45507 -5
      vertex -1.11019 1.35277 5
    endloop
  endfacet
  facet normal 0.5141 -0.85773 0
    outer loop
      vertex -0.824944 1.54336 -5
      vertex -0.824944 1.54336 5
      vertex -0.972248 1.45507 5
    endloop
  endfacet
  facet normal 0.5141 -0.85773 0
    outer loop
      vertex -0.972248 1.45507 -5
      vertex -0.824944 1.54336 -5
      vertex -0.972248 1.45507 5
    endloop
  endfacet
  facet normal 0.427556 -0.903989 0
    outer loop
      vertex -0.669696 1.61679 -5
      vertex -0.669696 1.61679 5
      vertex -0.824944 1.54336 5
    endloop
  endfacet
  facet normal 0.427556 -0.903989 0
    outer loop
      vertex -0.824944 1.54336 -5
      vertex -0.669696 1.61679 -5
      vertex -0.824944 1.54336 5
    endloop
  endfacet
  facet normal 0.336893 -0.941543 0
    outer loop
      vertex -0.507998 1.67465 -5
      vertex -0.507998 1.67465 5
      vertex -0.669696 1.61679 5
    endloop
  endfacet
  facet normal 0.336893 -0.941543 0
    outer loop
      vertex -0.669696 1.61679 -5
      vertex -0.507998 1.67465 -5
      vertex -0.669696 1.61679 5
    endloop
  endfacet
  facet normal 0.242977 -0.970032 0
    outer loop
      vertex -0.341408 1.71637 -5
      vertex -0.341408 1.71637 5
      vertex -0.507998 1.67465 5
    endloop
  endfacet
  facet normal 0.242977 -0.970032 0
    outer loop
      vertex -0.507998 1.67465 -5
      vertex -0.341408 1.71637 -5
      vertex -0.507998 1.67465 5
    endloop
  endfacet
  facet normal 0.14673 -0.989177 0
    outer loop
      vertex -0.17153 1.74157 -5
      vertex -0.17153 1.74157 5
      vertex -0.341408 1.71637 5
    endloop
  endfacet
  facet normal 0.14673 -0.989177 0
    outer loop
      vertex -0.341408 1.71637 -5
      vertex -0.17153 1.74157 -5
      vertex -0.341408 1.71637 5
    endloop
  endfacet
  facet normal 0.0490693 -0.998795 0
    outer loop
      vertex 0 1.75 -5
      vertex 0 1.75 5
      vertex -0.17153 1.74157 5
    endloop
  endfacet
  facet normal 0.0490693 -0.998795 0
    outer loop
      vertex -0.17153 1.74157 -5
      vertex 0 1.75 -5
      vertex -0.17153 1.74157 5
    endloop
  endfacet
  facet normal -0.0490693 -0.998795 0
    outer loop
      vertex 0.17153 1.74157 -5
      vertex 0.17153 1.74157 5
      vertex 0 1.75 5
    endloop
  endfacet
  facet normal -0.0490693 -0.998795 0
    outer loop
      vertex 0 1.75 -5
      vertex 0.17153 1.74157 -5
      vertex 0 1.75 5
    endloop
  endfacet
  facet normal -0.14673 -0.989177 0
    outer loop
      vertex 0.341408 1.71637 -5
      vertex 0.341408 1.71637 5
      vertex 0.17153 1.74157 5
    endloop
  endfacet
  facet normal -0.14673 -0.989177 0
    outer loop
      vertex 0.17153 1.74157 -5
      vertex 0.341408 1.71637 -5
      vertex 0.17153 1.74157 5
    endloop
  endfacet
  facet normal -0.242977 -0.970032 0
    outer loop
      vertex 0.507998 1.67465 -5
      vertex 0.507998 1.67465 5
      vertex 0.341408 1.71637 5
    endloop
  endfacet
  facet normal -0.242977 -0.970032 0
    outer loop
      vertex 0.341408 1.71637 -5
      vertex 0.507998 1.67465 -5
      vertex 0.341408 1.71637 5
    endloop
  endfacet
  facet normal -0.336893 -0.941543 0
    outer loop
      vertex 0.669696 1.61679 -5
      vertex 0.669696 1.61679 5
      vertex 0.507998 1.67465 5
    endloop
  endfacet
  facet normal -0.336893 -0.941543 0
    outer loop
      vertex 0.507998 1.67465 -5
      vertex 0.669696 1.61679 -5
      vertex 0.507998 1.67465 5
    endloop
  endfacet
  facet normal -0.427556 -0.903989 0
    outer loop
      vertex 0.824944 1.54336 -5
      vertex 0.824944 1.54336 5
      vertex 0.669696 1.61679 5
    endloop
  endfacet
  facet normal -0.427556 -0.903989 0
    outer loop
      vertex 0.669696 1.61679 -5
      vertex 0.824944 1.54336 -5
      vertex 0.669696 1.61679 5
    endloop
  endfacet
  facet normal -0.5141 -0.85773 0
    outer loop
      vertex 0.972248 1.45507 -5
      vertex 0.972248 1.45507 5
      vertex 0.824944 1.54336 5
    endloop
  endfacet
  facet normal -0.5141 -0.85773 0
    outer loop
      vertex 0.824944 1.54336 -5
      vertex 0.972248 1.45507 -5
      vertex 0.824944 1.54336 5
    endloop
  endfacet
  facet normal -0.595702 -0.803206 0
    outer loop
      vertex 1.11019 1.35277 -5
      vertex 1.11019 1.35277 5
      vertex 0.972248 1.45507 5
    endloop
  endfacet
  facet normal -0.595702 -0.803206 0
    outer loop
      vertex 0.972248 1.45507 -5
      vertex 1.11019 1.35277 -5
      vertex 0.972248 1.45507 5
    endloop
  endfacet
  facet normal -0.671556 -0.740953 0
    outer loop
      vertex 1.23744 1.23744 -5
      vertex 1.23744 1.23744 5
      vertex 1.11019 1.35277 5
    endloop
  endfacet
  facet normal -0.671556 -0.740953 0
    outer loop
      vertex 1.11019 1.35277 -5
      vertex 1.23744 1.23744 -5
      vertex 1.11019 1.35277 5
    endloop
  endfacet
  facet normal -0.740953 -0.671556 0
    outer loop
      vertex 1.35277 1.11019 5
      vertex 1.23744 1.23744 5
      vertex 1.35277 1.11019 -5
    endloop
  endfacet
  facet normal -0.740953 -0.671556 0
    outer loop
      vertex 1.35277 1.11019 -5
      vertex 1.23744 1.23744 5
      vertex 1.23744 1.23744 -5
    endloop
  endfacet
  facet normal -0.803206 -0.595702 0
    outer loop
      vertex 1.45507 0.972248 5
      vertex 1.35277 1.11019 5
      vertex 1.45507 0.972248 -5
    endloop
  endfacet
  facet normal -0.803206 -0.595702 0
    outer loop
      vertex 1.45507 0.972248 -5
      vertex 1.35277 1.11019 5
      vertex 1.35277 1.11019 -5
    endloop
  endfacet
  facet normal -0.85773 -0.5141 0
    outer loop
      vertex 1.54336 0.824944 5
      vertex 1.45507 0.972248 5
      vertex 1.54336 0.824944 -5
    endloop
  endfacet
  facet normal -0.85773 -0.5141 0
    outer loop
      vertex 1.54336 0.824944 -5
      vertex 1.45507 0.972248 5
      vertex 1.45507 0.972248 -5
    endloop
  endfacet
  facet normal -0.903989 -0.427556 0
    outer loop
      vertex 1.61679 0.669696 5
      vertex 1.54336 0.824944 5
      vertex 1.61679 0.669696 -5
    endloop
  endfacet
  facet normal -0.903989 -0.427556 0
    outer loop
      vertex 1.61679 0.669696 -5
      vertex 1.54336 0.824944 5
      vertex 1.54336 0.824944 -5
    endloop
  endfacet
  facet normal -0.941543 -0.336893 0
    outer loop
      vertex 1.67465 0.507998 5
      vertex 1.61679 0.669696 5
      vertex 1.67465 0.507998 -5
    endloop
  endfacet
  facet normal -0.941543 -0.336893 0
    outer loop
      vertex 1.67465 0.507998 -5
      vertex 1.61679 0.669696 5
      vertex 1.61679 0.669696 -5
    endloop
  endfacet
  facet normal -0.970032 -0.242977 0
    outer loop
      vertex 1.71637 0.341408 5
      vertex 1.67465 0.507998 5
      vertex 1.71637 0.341408 -5
    endloop
  endfacet
  facet normal -0.970032 -0.242977 0
    outer loop
      vertex 1.71637 0.341408 -5
      vertex 1.67465 0.507998 5
      vertex 1.67465 0.507998 -5
    endloop
  endfacet
  facet normal -0.989177 -0.14673 0
    outer loop
      vertex 1.74157 0.17153 5
      vertex 1.71637 0.341408 5
      vertex 1.74157 0.17153 -5
    endloop
  endfacet
  facet normal -0.989177 -0.14673 0
    outer loop
      vertex 1.74157 0.17153 -5
      vertex 1.71637 0.341408 5
      vertex 1.71637 0.341408 -5
    endloop
  endfacet
  facet normal -0.998795 -0.0490693 0
    outer loop
      vertex 1.75 0 5
      vertex 1.74157 0.17153 5
      vertex 1.75 0 -5
    endloop
  endfacet
  facet normal -0.998795 -0.0490693 0
    outer loop
      vertex 1.75 0 -5
      vertex 1.74157 0.17153 5
      vertex 1.74157 0.17153 -5
    endloop
  endfacet
  facet normal -0.998795 0.0490693 0
    outer loop
      vertex 1.75 0 5
      vertex 1.75 0 -5
      vertex 1.74157 -0.17153 5
    endloop
  endfacet
  facet normal -0.998795 0.0490693 0
    outer loop
      vertex 1.74157 -0.17153 5
      vertex 1.75 0 -5
      vertex 1.74157 -0.17153 -5
    endloop
  endfacet
  facet normal -0.989177 0.14673 0
    outer loop
      vertex 1.74157 -0.17153 5
      vertex 1.74157 -0.17153 -5
      vertex 1.71637 -0.341408 5
    endloop
  endfacet
  facet normal -0.989177 0.14673 0
    outer loop
      vertex 1.71637 -0.341408 5
      vertex 1.74157 -0.17153 -5
      vertex 1.71637 -0.341408 -5
    endloop
  endfacet
  facet normal -0.970032 0.242977 0
    outer loop
      vertex 1.71637 -0.341408 5
      vertex 1.71637 -0.341408 -5
      vertex 1.67465 -0.507998 5
    endloop
  endfacet
  facet normal -0.970032 0.242977 0
    outer loop
      vertex 1.67465 -0.507998 5
      vertex 1.71637 -0.341408 -5
      vertex 1.67465 -0.507998 -5
    endloop
  endfacet
  facet normal -0.941543 0.336893 0
    outer loop
      vertex 1.67465 -0.507998 5
      vertex 1.67465 -0.507998 -5
      vertex 1.61679 -0.669696 5
    endloop
  endfacet
  facet normal -0.941543 0.336893 0
    outer loop
      vertex 1.61679 -0.669696 5
      vertex 1.67465 -0.507998 -5
      vertex 1.61679 -0.669696 -5
    endloop
  endfacet
  facet normal -0.903989 0.427556 0
    outer loop
      vertex 1.61679 -0.669696 5
      vertex 1.61679 -0.669696 -5
      vertex 1.54336 -0.824944 5
    endloop
  endfacet
  facet normal -0.903989 0.427556 0
    outer loop
      vertex 1.54336 -0.824944 5
      vertex 1.61679 -0.669696 -5
      vertex 1.54336 -0.824944 -5
    endloop
  endfacet
  facet normal -0.85773 0.5141 0
    outer loop
      vertex 1.54336 -0.824944 5
      vertex 1.54336 -0.824944 -5
      vertex 1.45507 -0.972248 5
    endloop
  endfacet
  facet normal -0.85773 0.5141 0
    outer loop
      vertex 1.45507 -0.972248 5
      vertex 1.54336 -0.824944 -5
      vertex 1.45507 -0.972248 -5
    endloop
  endfacet
  facet normal -0.803206 0.595702 0
    outer loop
      vertex 1.45507 -0.972248 5
      vertex 1.45507 -0.972248 -5
      vertex 1.35277 -1.11019 5
    endloop
  endfacet
  facet normal -0.803206 0.595702 0
    outer loop
      vertex 1.35277 -1.11019 5
      vertex 1.45507 -0.972248 -5
      vertex 1.35277 -1.11019 -5
    endloop
  endfacet
  facet normal -0.740953 0.671556 0
    outer loop
      vertex 1.35277 -1.11019 5
      vertex 1.35277 -1.11019 -5
      vertex 1.23744 -1.23744 5
    endloop
  endfacet
  facet normal -0.740953 0.671556 0
    outer loop
      vertex 1.23744 -1.23744 5
      vertex 1.35277 -1.11019 -5
      vertex 1.23744 -1.23744 -5
    endloop
  endfacet
  facet normal -0.671556 0.740953 0
    outer loop
      vertex 1.23744 -1.23744 5
      vertex 1.23744 -1.23744 -5
      vertex 1.11019 -1.35277 5
    endloop
  endfacet
  facet normal -0.671556 0.740953 0
    outer loop
      vertex 1.11019 -1.35277 5
      vertex 1.23744 -1.23744 -5
      vertex 1.11019 -1.35277 -5
    endloop
  endfacet
  facet normal -0.595702 0.803206 0
    outer loop
      vertex 1.11019 -1.35277 5
      vertex 1.11019 -1.35277 -5
      vertex 0.972248 -1.45507 5
    endloop
  endfacet
  facet normal -0.595702 0.803206 0
    outer loop
      vertex 0.972248 -1.45507 5
      vertex 1.11019 -1.35277 -5
      vertex 0.972248 -1.45507 -5
    endloop
  endfacet
  facet normal -0.5141 0.85773 0
    outer loop
      vertex 0.972248 -1.45507 5
      vertex 0.972248 -1.45507 -5
      vertex 0.824944 -1.54336 5
    endloop
  endfacet
  facet normal -0.5141 0.85773 0
    outer loop
      vertex 0.824944 -1.54336 5
      vertex 0.972248 -1.45507 -5
      vertex 0.824944 -1.54336 -5
    endloop
  endfacet
  facet normal -0.427556 0.903989 0
    outer loop
      vertex 0.824944 -1.54336 5
      vertex 0.824944 -1.54336 -5
      vertex 0.669696 -1.61679 5
    endloop
  endfacet
  facet normal -0.427556 0.903989 0
    outer loop
      vertex 0.669696 -1.61679 5
      vertex 0.824944 -1.54336 -5
      vertex 0.669696 -1.61679 -5
    endloop
  endfacet
  facet normal -0.336893 0.941543 0
    outer loop
      vertex 0.669696 -1.61679 5
      vertex 0.669696 -1.61679 -5
      vertex 0.507998 -1.67465 5
    endloop
  endfacet
  facet normal -0.336893 0.941543 0
    outer loop
      vertex 0.507998 -1.67465 5
      vertex 0.669696 -1.61679 -5
      vertex 0.507998 -1.67465 -5
    endloop
  endfacet
  facet normal -0.242977 0.970032 0
    outer loop
      vertex 0.507998 -1.67465 5
      vertex 0.507998 -1.67465 -5
      vertex 0.341408 -1.71637 5
    endloop
  endfacet
  facet normal -0.242977 0.970032 0
    outer loop
      vertex 0.341408 -1.71637 5
      vertex 0.507998 -1.67465 -5
      vertex 0.341408 -1.71637 -5
    endloop
  endfacet
  facet normal -0.14673 0.989177 0
    outer loop
      vertex 0.341408 -1.71637 5
      vertex 0.341408 -1.71637 -5
      vertex 0.17153 -1.74157 5
    endloop
  endfacet
  facet normal -0.14673 0.989177 0
    outer loop
      vertex 0.17153 -1.74157 5
      vertex 0.341408 -1.71637 -5
      vertex 0.17153 -1.74157 -5
    endloop
  endfacet
  facet normal -0.0490693 0.998795 0
    outer loop
      vertex 0.17153 -1.74157 5
      vertex 0.17153 -1.74157 -5
      vertex 0 -1.75 5
    endloop
  endfacet
  facet normal -0.0490693 0.998795 0
    outer loop
      vertex 0 -1.75 5
      vertex 0.17153 -1.74157 -5
      vertex 0 -1.75 -5
    endloop
  endfacet
  facet normal 0.0490693 0.998795 0
    outer loop
      vertex 0 -1.75 5
      vertex 0 -1.75 -5
      vertex -0.17153 -1.74157 5
    endloop
  endfacet
  facet normal 0.0490693 0.998795 0
    outer loop
      vertex -0.17153 -1.74157 5
      vertex 0 -1.75 -5
      vertex -0.17153 -1.74157 -5
    endloop
  endfacet
  facet normal 0.14673 0.989177 0
    outer loop
      vertex -0.17153 -1.74157 5
      vertex -0.17153 -1.74157 -5
      vertex -0.341408 -1.71637 5
    endloop
  endfacet
  facet normal 0.14673 0.989177 0
    outer loop
      vertex -0.341408 -1.71637 5
      vertex -0.17153 -1.74157 -5
      vertex -0.341408 -1.71637 -5
    endloop
  endfacet
  facet normal 0.242977 0.970032 0
    outer loop
      vertex -0.341408 -1.71637 5
      vertex -0.341408 -1.71637 -5
      vertex -0.507998 -1.67465 5
    endloop
  endfacet
  facet normal 0.242977 0.970032 0
    outer loop
      vertex -0.507998 -1.67465 5
      vertex -0.341408 -1.71637 -5
      vertex -0.507998 -1.67465 -5
    endloop
  endfacet
  facet normal 0.336893 0.941543 0
    outer loop
      vertex -0.507998 -1.67465 5
      vertex -0.507998 -1.67465 -5
      vertex -0.669696 -1.61679 5
    endloop
  endfacet
  facet normal 0.336893 0.941543 0
    outer loop
      vertex -0.669696 -1.61679 5
      vertex -0.507998 -1.67465 -5
      vertex -0.669696 -1.61679 -5
    endloop
  endfacet
  facet normal 0.427556 0.903989 0
    outer loop
      vertex -0.669696 -1.61679 5
      vertex -0.669696 -1.61679 -5
      vertex -0.824944 -1.54336 5
    endloop
  endfacet
  facet normal 0.427556 0.903989 0
    outer loop
      vertex -0.824944 -1.54336 5
      vertex -0.669696 -1.61679 -5
      vertex -0.824944 -1.54336 -5
    endloop
  endfacet
  facet normal 0.5141 0.85773 0
    outer loop
      vertex -0.824944 -1.54336 5
      vertex -0.824944 -1.54336 -5
      vertex -0.972248 -1.45507 5
    endloop
  endfacet
  facet normal 0.5141 0.85773 0
    outer loop
      vertex -0.972248 -1.45507 5
      vertex -0.824944 -1.54336 -5
      vertex -0.972248 -1.45507 -5
    endloop
  endfacet
  facet normal 0.595702 0.803206 0
    outer loop
      vertex -0.972248 -1.45507 5
      vertex -0.972248 -1.45507 -5
      vertex -1.11019 -1.35277 5
    endloop
  endfacet
  facet normal 0.595702 0.803206 0
    outer loop
      vertex -1.11019 -1.35277 5
      vertex -0.972248 -1.45507 -5
      vertex -1.11019 -1.35277 -5
    endloop
  endfacet
  facet normal 0.671556 0.740953 0
    outer loop
      vertex -1.11019 -1.35277 5
      vertex -1.11019 -1.35277 -5
      vertex -1.23744 -1.23744 5
    endloop
  endfacet
  facet normal 0.671556 0.740953 0
    outer loop
      vertex -1.23744 -1.23744 5
      vertex -1.11019 -1.35277 -5
      vertex -1.23744 -1.23744 -5
    endloop
  endfacet
  facet normal 0.740953 0.671556 0
    outer loop
      vertex -1.35277 -1.11019 5
      vertex -1.23744 -1.23744 5
      vertex -1.23744 -1.23744 -5
    endloop
  endfacet
  facet normal 0.740953 0.671556 0
    outer loop
      vertex -1.35277 -1.11019 -5
      vertex -1.35277 -1.11019 5
      vertex -1.23744 -1.23744 -5
    endloop
  endfacet
  facet normal 0.803206 0.595702 0
    outer loop
      vertex -1.45507 -0.972248 5
      vertex -1.35277 -1.11019 5
      vertex -1.35277 -1.11019 -5
    endloop
  endfacet
  facet normal 0.803206 0.595702 0
    outer loop
      vertex -1.45507 -0.972248 -5
      vertex -1.45507 -0.972248 5
      vertex -1.35277 -1.11019 -5
    endloop
  endfacet
  facet normal 0.85773 0.5141 0
    outer loop
      vertex -1.54336 -0.824944 5
      vertex -1.45507 -0.972248 5
      vertex -1.45507 -0.972248 -5
    endloop
  endfacet
  facet normal 0.85773 0.5141 0
    outer loop
      vertex -1.54336 -0.824944 -5
      vertex -1.54336 -0.824944 5
      vertex -1.45507 -0.972248 -5
    endloop
  endfacet
  facet normal 0.903989 0.427556 0
    outer loop
      vertex -1.61679 -0.669696 5
      vertex -1.54336 -0.824944 5
      vertex -1.54336 -0.824944 -5
    endloop
  endfacet
  facet normal 0.903989 0.427556 0
    outer loop
      vertex -1.61679 -0.669696 -5
      vertex -1.61679 -0.669696 5
      vertex -1.54336 -0.824944 -5
    endloop
  endfacet
  facet normal 0.941543 0.336893 0
    outer loop
      vertex -1.67465 -0.507998 5
      vertex -1.61679 -0.669696 5
      vertex -1.61679 -0.669696 -5
    endloop
  endfacet
  facet normal 0.941543 0.336893 0
    outer loop
      vertex -1.67465 -0.507998 -5
      vertex -1.67465 -0.507998 5
      vertex -1.61679 -0.669696 -5
    endloop
  endfacet
  facet normal 0.970032 0.242977 0
    outer loop
      vertex -1.71637 -0.341408 5
      vertex -1.67465 -0.507998 5
      vertex -1.67465 -0.507998 -5
    endloop
  endfacet
  facet normal 0.970032 0.242977 0
    outer loop
      vertex -1.71637 -0.341408 -5
      vertex -1.71637 -0.341408 5
      vertex -1.67465 -0.507998 -5
    endloop
  endfacet
  facet normal 0.989177 0.14673 0
    outer loop
      vertex -1.74157 -0.17153 5
      vertex -1.71637 -0.341408 5
      vertex -1.71637 -0.341408 -5
    endloop
  endfacet
  facet normal 0.989177 0.14673 0
    outer loop
      vertex -1.74157 -0.17153 -5
      vertex -1.74157 -0.17153 5
      vertex -1.71637 -0.341408 -5
    endloop
  endfacet
  facet normal 0 0 1
    outer loop
      vertex -4.47833 0.441077 5
      vertex -4.5 0 5
      vertex -4.47833 -0.441077 5
    endloop
  endfacet
  facet normal 0 0 1
    outer loop
      vertex -4.30623 -1.30628 5
      vertex -4.47833 0.441077 5
      vertex -4.41353 -0.877906 5
    endloop
  endfacet
  facet normal 0 0 1
    outer loop
      vertex -4.41353 -0.877906 5
      vertex -4.47833 0.441077 5
      vertex -4.47833 -0.441077 5
    endloop
  endfacet
  facet normal 0 0 1
    outer loop
      vertex -4.15746 -1.72208 5
      vertex -4.47833 0.441077 5
      vertex -4.30623 -1.30628 5
    endloop
  endfacet
  facet normal 0 0 1
    outer loop
      vertex -3.96865 -2.12128 5
      vertex -4.47833 0.441077 5
      vertex -4.15746 -1.72208 5
    endloop
  endfacet
  facet normal 0 0 1
    outer loop
      vertex -3.74161 -2.50007 5
      vertex -4.47833 0.441077 5
      vertex -3.96865 -2.12128 5
    endloop
  endfacet
  facet normal 0 0 1
    outer loop
      vertex -3.47855 -2.85477 5
      vertex -4.47833 0.441077 5
      vertex -3.74161 -2.50007 5
    endloop
  endfacet
  facet normal 0 0 1
    outer loop
      vertex -3.18198 -3.18198 5
      vertex -4.47833 0.441077 5
      vertex -3.47855 -2.85477 5
    endloop
  endfacet
  facet normal 0 0 1
    outer loop
      vertex -2.85477 -3.47855 5
      vertex -4.47833 0.441077 5
      vertex -3.18198 -3.18198 5
    endloop
  endfacet
  facet normal 0 0 1
    outer loop
      vertex -2.50007 -3.74161 5
      vertex -4.47833 0.441077 5
      vertex -2.85477 -3.47855 5
    endloop
  endfacet
  facet normal 0 0 1
    outer loop
      vertex -2.12128 -3.96865 5
      vertex -4.47833 0.441077 5
      vertex -2.50007 -3.74161 5
    endloop
  endfacet
  facet normal 0 0 1
    outer loop
      vertex -1.72208 -4.15746 5
      vertex -4.47833 0.441077 5
      vertex -2.12128 -3.96865 5
    endloop
  endfacet
  facet normal 0 0 1
    outer loop
      vertex -1.30628 -4.30623 5
      vertex -4.47833 0.441077 5
      vertex -1.72208 -4.15746 5
    endloop
  endfacet
  facet normal 0 0 1
    outer loop
      vertex -0.877906 -4.41353 5
      vertex -4.47833 0.441077 5
      vertex -1.30628 -4.30623 5
    endloop
  endfacet
  facet normal 0 0 1
    outer loop
      vertex -0.441077 -4.47833 5
      vertex -4.47833 0.441077 5
      vertex -0.877906 -4.41353 5
    endloop
  endfacet
  facet normal 0 0 1
    outer loop
      vertex 0 -4.5 5
      vertex -4.47833 0.441077 5
      vertex -0.441077 -4.47833 5
    endloop
  endfacet
  facet normal 0 0 1
    outer loop
      vertex 0.441077 -4.47833 5
      vertex -4.47833 0.441077 5
      vertex 0 -4.5 5
    endloop
  endfacet
  facet normal 0 0 1
    outer loop
      vertex 0.877906 -4.41353 5
      vertex -4.47833 0.441077 5
      vertex 0.441077 -4.47833 5
    endloop
  endfacet
  facet normal 0 0 1
    outer loop
      vertex 1.30628 -4.30623 5
      vertex -4.47833 0.441077 5
      vertex 0.877906 -4.41353 5
    endloop
  endfacet
  facet normal 0 0 1
    outer loop
      vertex 1.72208 -4.15746 5
      vertex -4.47833 0.441077 5
      vertex 1.30628 -4.30623 5
    endloop
  endfacet
  facet normal 0 0 1
    outer loop
      vertex 2.12128 -3.96865 5
      vertex -4.47833 0.441077 5
      vertex 1.72208 -4.15746 5
    endloop
  endfacet
  facet normal 0 0 1
    outer loop
      vertex 2.50007 -3.74161 5
      vertex -4.47833 0.441077 5
      vertex 2.12128 -3.96865 5
    endloop
  endfacet
  facet normal 0 0 1
    outer loop
      vertex -0.824944 -1.54336 5
      vertex -4.47833 0.441077 5
      vertex 2.50007 -3.74161 5
    endloop
  endfacet
  facet normal 0 0 1
    outer loop
      vertex -0.507998 -1.67465 5
      vertex -0.669696 -1.61679 5
      vertex 2.85477 -3.47855 5
    endloop
  endfacet
  facet normal 0 0 1
    outer loop
      vertex 0.17153 -1.74157 5
      vertex 0 -1.75 5
      vertex 3.18198 -3.18198 5
    endloop
  endfacet
  facet normal 0 0 1
    outer loop
      vertex 0.669696 -1.61679 5
      vertex 0.507998 -1.67465 5
      vertex 3.47855 -2.85477 5
    endloop
  endfacet
  facet normal 0 0 1
    outer loop
      vertex 0.972248 -1.45507 5
      vertex 0.824944 -1.54336 5
      vertex 3.74161 -2.50007 5
    endloop
  endfacet
  facet normal 0 0 1
    outer loop
      vertex 1.45507 -0.972248 5
      vertex 1.35277 -1.11019 5
      vertex 4.15746 -1.72208 5
    endloop
  endfacet
  facet normal 0 0 1
    outer loop
      vertex 1.75 0 5
      vertex 1.74157 -0.17153 5
      vertex 4.47833 -0.441077 5
    endloop
  endfacet
  facet normal 0 0 1
    outer loop
      vertex 0.507998 1.67465 5
      vertex 0.669696 1.61679 5
      vertex 3.74161 2.50007 5
    endloop
  endfacet
  facet normal 0 0 1
    outer loop
      vertex -0.17153 1.74157 5
      vertex 0 1.75 5
      vertex 3.47855 2.85477 5
    endloop
  endfacet
  facet normal 0 0 1
    outer loop
      vertex 2.85477 3.47855 5
      vertex -4.47833 0.441077 5
      vertex 3.18198 3.18198 5
    endloop
  endfacet
  facet normal 0 0 1
    outer loop
      vertex 2.50007 3.74161 5
      vertex -4.47833 0.441077 5
      vertex 2.85477 3.47855 5
    endloop
  endfacet
  facet normal 0 0 1
    outer loop
      vertex 2.12128 3.96865 5
      vertex -4.47833 0.441077 5
      vertex 2.50007 3.74161 5
    endloop
  endfacet
  facet normal 0 0 1
    outer loop
      vertex 1.72208 4.15746 5
      vertex -4.47833 0.441077 5
      vertex 2.12128 3.96865 5
    endloop
  endfacet
  facet normal 0 0 1
    outer loop
      vertex 1.30628 4.30623 5
      vertex -4.47833 0.441077 5
      vertex 1.72208 4.15746 5
    endloop
  endfacet
  facet normal 0 0 1
    outer loop
      vertex 0.877906 4.41353 5
      vertex -4.47833 0.441077 5
      vertex 1.30628 4.30623 5
    endloop
  endfacet
  facet normal 0 0 1
    outer loop
      vertex 0.441077 4.47833 5
      vertex -4.47833 0.441077 5
      vertex 0.877906 4.41353 5
    endloop
  endfacet
  facet normal 0 0 1
    outer loop
      vertex 0 4.5 5
      vertex -4.47833 0.441077 5
      vertex 0.441077 4.47833 5
    endloop
  endfacet
  facet normal 0 0 1
    outer loop
      vertex -0.441077 4.47833 5
      vertex -4.47833 0.441077 5
      vertex 0 4.5 5
    endloop
  endfacet
  facet normal 0 0 1
    outer loop
      vertex -0.877906 4.41353 5
      vertex -4.47833 0.441077 5
      vertex -0.441077 4.47833 5
    endloop
  endfacet
  facet normal 0 0 1
    outer loop
      vertex -1.30628 4.30623 5
      vertex -4.47833 0.441077 5
      vertex -0.877906 4.41353 5
    endloop
  endfacet
  facet normal 0 0 1
    outer loop
      vertex -1.72208 4.15746 5
      vertex -4.47833 0.441077 5
      vertex -1.30628 4.30623 5
    endloop
  endfacet
  facet normal 0 0 1
    outer loop
      vertex -2.12128 3.96865 5
      vertex -4.47833 0.441077 5
      vertex -1.72208 4.15746 5
    endloop
  endfacet
  facet normal 0 0 1
    outer loop
      vertex -2.50007 3.74161 5
      vertex -4.47833 0.441077 5
      vertex -2.12128 3.96865 5
    endloop
  endfacet
  facet normal 0 0 1
    outer loop
      vertex -2.85477 3.47855 5
      vertex -4.47833 0.441077 5
      vertex -2.50007 3.74161 5
    endloop
  endfacet
  facet normal 0 0 1
    outer loop
      vertex -3.18198 3.18198 5
      vertex -4.47833 0.441077 5
      vertex -2.85477 3.47855 5
    endloop
  endfacet
  facet normal 0 0 1
    outer loop
      vertex -3.47855 2.85477 5
      vertex -4.47833 0.441077 5
      vertex -3.18198 3.18198 5
    endloop
  endfacet
  facet normal 0 0 1
    outer loop
      vertex -3.74161 2.50007 5
      vertex -4.47833 0.441077 5
      vertex -3.47855 2.85477 5
    endloop
  endfacet
  facet normal 0 0 1
    outer loop
      vertex -3.96865 2.12128 5
      vertex -4.47833 0.441077 5
      vertex -3.74161 2.50007 5
    endloop
  endfacet
  facet normal 0 0 1
    outer loop
      vertex -4.15746 1.72208 5
      vertex -4.47833 0.441077 5
      vertex -3.96865 2.12128 5
    endloop
  endfacet
  facet normal 0 0 1
    outer loop
      vertex -4.30623 1.30628 5
      vertex -4.47833 0.441077 5
      vertex -4.15746 1.72208 5
    endloop
  endfacet
  facet normal 0 0 1
    outer loop
      vertex -4.41353 0.877906 5
      vertex -4.47833 0.441077 5
      vertex -4.30623 1.30628 5
    endloop
  endfacet
  facet normal 0 0 1
    outer loop
      vertex 1.23744 -1.23744 5
      vertex 1.11019 -1.35277 5
      vertex 3.96865 -2.12128 5
    endloop
  endfacet
  facet normal 0 0 1
    outer loop
      vertex -0.972248 -1.45507 5
      vertex -1.11019 -1.35277 5
      vertex -4.47833 0.441077 5
    endloop
  endfacet
  facet normal 0 0 1
    outer loop
      vertex -1.71637 0.341408 5
      vertex -1.67465 0.507998 5
      vertex -4.47833 0.441077 5
    endloop
  endfacet
  facet normal 0 0 1
    outer loop
      vertex 1.71637 -0.341408 5
      vertex 1.67465 -0.507998 5
      vertex 4.41353 -0.877906 5
    endloop
  endfacet
  facet normal 0 0 1
    outer loop
      vertex -1.67465 0.507998 5
      vertex -1.61679 0.669696 5
      vertex -4.47833 0.441077 5
    endloop
  endfacet
  facet normal 0 0 1
    outer loop
      vertex 1.74157 0.17153 5
      vertex 1.75 0 5
      vertex 4.5 0 5
    endloop
  endfacet
  facet normal 0 0 1
    outer loop
      vertex -1.61679 0.669696 5
      vertex -1.54336 0.824944 5
      vertex -4.47833 0.441077 5
    endloop
  endfacet
  facet normal 0 0 1
    outer loop
      vertex 1.67465 0.507998 5
      vertex 1.71637 0.341408 5
      vertex 4.47833 0.441077 5
    endloop
  endfacet
  facet normal 0 0 1
    outer loop
      vertex -1.54336 0.824944 5
      vertex -1.45507 0.972248 5
      vertex -4.47833 0.441077 5
    endloop
  endfacet
  facet normal 0 0 1
    outer loop
      vertex 1.54336 0.824944 5
      vertex 1.61679 0.669696 5
      vertex 4.41353 0.877906 5
    endloop
  endfacet
  facet normal 0 0 1
    outer loop
      vertex -1.45507 0.972248 5
      vertex -1.35277 1.11019 5
      vertex -4.47833 0.441077 5
    endloop
  endfacet
  facet normal 0 0 1
    outer loop
      vertex 1.35277 1.11019 5
      vertex 1.45507 0.972248 5
      vertex 4.30623 1.30628 5
    endloop
  endfacet
  facet normal 0 0 1
    outer loop
      vertex -1.23744 1.23744 5
      vertex -1.11019 1.35277 5
      vertex -4.47833 0.441077 5
    endloop
  endfacet
  facet normal 0 0 1
    outer loop
      vertex 1.11019 1.35277 5
      vertex 1.23744 1.23744 5
      vertex 4.15746 1.72208 5
    endloop
  endfacet
  facet normal 0 0 1
    outer loop
      vertex -1.23744 1.23744 5
      vertex -4.47833 0.441077 5
      vertex -1.35277 1.11019 5
    endloop
  endfacet
  facet normal 0 0 1
    outer loop
      vertex -0.824944 1.54336 5
      vertex -0.669696 1.61679 5
      vertex -4.47833 0.441077 5
    endloop
  endfacet
  facet normal 0 0 1
    outer loop
      vertex 0.824944 1.54336 5
      vertex 0.972248 1.45507 5
      vertex 3.96865 2.12128 5
    endloop
  endfacet
  facet normal 0 0 1
    outer loop
      vertex -0.972248 1.45507 5
      vertex -4.47833 0.441077 5
      vertex -1.11019 1.35277 5
    endloop
  endfacet
  facet normal 0 0 1
    outer loop
      vertex -0.824944 1.54336 5
      vertex -4.47833 0.441077 5
      vertex -0.972248 1.45507 5
    endloop
  endfacet
  facet normal 0 0 1
    outer loop
      vertex 0.341408 1.71637 5
      vertex 0.507998 1.67465 5
      vertex 3.74161 2.50007 5
    endloop
  endfacet
  facet normal 0 0 1
    outer loop
      vertex 3.18198 3.18198 5
      vertex -4.47833 0.441077 5
      vertex -0.669696 1.61679 5
    endloop
  endfacet
  facet normal 0 0 1
    outer loop
      vertex 3.18198 3.18198 5
      vertex -0.507998 1.67465 5
      vertex 3.47855 2.85477 5
    endloop
  endfacet
  facet normal 0 0 1
    outer loop
      vertex 3.18198 3.18198 5
      vertex -0.669696 1.61679 5
      vertex -0.507998 1.67465 5
    endloop
  endfacet
  facet normal 0 0 1
    outer loop
      vertex -0.507998 1.67465 5
      vertex -0.341408 1.71637 5
      vertex 3.47855 2.85477 5
    endloop
  endfacet
  facet normal 0 0 1
    outer loop
      vertex 0 1.75 5
      vertex 0.17153 1.74157 5
      vertex 3.47855 2.85477 5
    endloop
  endfacet
  facet normal 0 0 1
    outer loop
      vertex 3.47855 2.85477 5
      vertex 0.17153 1.74157 5
      vertex 3.74161 2.50007 5
    endloop
  endfacet
  facet normal 0 0 1
    outer loop
      vertex 0.17153 1.74157 5
      vertex 0.341408 1.71637 5
      vertex 3.74161 2.50007 5
    endloop
  endfacet
  facet normal 0 0 1
    outer loop
      vertex 3.74161 2.50007 5
      vertex 0.669696 1.61679 5
      vertex 3.96865 2.12128 5
    endloop
  endfacet
  facet normal 0 0 1
    outer loop
      vertex 0.669696 1.61679 5
      vertex 0.824944 1.54336 5
      vertex 3.96865 2.12128 5
    endloop
  endfacet
  facet normal 0 0 1
    outer loop
      vertex 3.96865 2.12128 5
      vertex 0.972248 1.45507 5
      vertex 4.15746 1.72208 5
    endloop
  endfacet
  facet normal 0 0 1
    outer loop
      vertex 0.972248 1.45507 5
      vertex 1.11019 1.35277 5
      vertex 4.15746 1.72208 5
    endloop
  endfacet
  facet normal 0 0 1
    outer loop
      vertex 4.15746 1.72208 5
      vertex 1.23744 1.23744 5
      vertex 4.30623 1.30628 5
    endloop
  endfacet
  facet normal 0 0 1
    outer loop
      vertex 1.23744 1.23744 5
      vertex 1.35277 1.11019 5
      vertex 4.30623 1.30628 5
    endloop
  endfacet
  facet normal 0 0 1
    outer loop
      vertex 4.30623 1.30628 5
      vertex 1.45507 0.972248 5
      vertex 4.41353 0.877906 5
    endloop
  endfacet
  facet normal 0 0 1
    outer loop
      vertex 1.45507 0.972248 5
      vertex 1.54336 0.824944 5
      vertex 4.41353 0.877906 5
    endloop
  endfacet
  facet normal 0 0 1
    outer loop
      vertex 4.41353 0.877906 5
      vertex 1.61679 0.669696 5
      vertex 4.47833 0.441077 5
    endloop
  endfacet
  facet normal 0 0 1
    outer loop
      vertex 1.61679 0.669696 5
      vertex 1.67465 0.507998 5
      vertex 4.47833 0.441077 5
    endloop
  endfacet
  facet normal 0 0 1
    outer loop
      vertex 4.47833 0.441077 5
      vertex 1.71637 0.341408 5
      vertex 4.5 0 5
    endloop
  endfacet
  facet normal 0 0 1
    outer loop
      vertex 1.71637 0.341408 5
      vertex 1.74157 0.17153 5
      vertex 4.5 0 5
    endloop
  endfacet
  facet normal 0 0 1
    outer loop
      vertex 4.5 0 5
      vertex 1.75 0 5
      vertex 4.47833 -0.441077 5
    endloop
  endfacet
  facet normal 0 0 1
    outer loop
      vertex 4.47833 -0.441077 5
      vertex 1.74157 -0.17153 5
      vertex 4.41353 -0.877906 5
    endloop
  endfacet
  facet normal 0 0 1
    outer loop
      vertex -1.74157 0.17153 5
      vertex -1.71637 0.341408 5
      vertex -4.47833 0.441077 5
    endloop
  endfacet
  facet normal 0 0 1
    outer loop
      vertex 1.74157 -0.17153 5
      vertex 1.71637 -0.341408 5
      vertex 4.41353 -0.877906 5
    endloop
  endfacet
  facet normal 0 0 1
    outer loop
      vertex -0.341408 1.71637 5
      vertex -0.17153 1.74157 5
      vertex 3.47855 2.85477 5
    endloop
  endfacet
  facet normal 0 0 1
    outer loop
      vertex 4.41353 -0.877906 5
      vertex 1.67465 -0.507998 5
      vertex 4.30623 -1.30628 5
    endloop
  endfacet
  facet normal 0 0 1
    outer loop
      vertex 1.67465 -0.507998 5
      vertex 1.61679 -0.669696 5
      vertex 4.30623 -1.30628 5
    endloop
  endfacet
  facet normal 0 0 1
    outer loop
      vertex 4.30623 -1.30628 5
      vertex 1.54336 -0.824944 5
      vertex 4.15746 -1.72208 5
    endloop
  endfacet
  facet normal 0 0 1
    outer loop
      vertex 1.54336 -0.824944 5
      vertex 1.45507 -0.972248 5
      vertex 4.15746 -1.72208 5
    endloop
  endfacet
  facet normal 0 0 1
    outer loop
      vertex 4.15746 -1.72208 5
      vertex 1.35277 -1.11019 5
      vertex 3.96865 -2.12128 5
    endloop
  endfacet
  facet normal 0 0 1
    outer loop
      vertex -1.74157 -0.17153 5
      vertex -1.75 0 5
      vertex -4.47833 0.441077 5
    endloop
  endfacet
  facet normal 0 0 1
    outer loop
      vertex 1.35277 -1.11019 5
      vertex 1.23744 -1.23744 5
      vertex 3.96865 -2.12128 5
    endloop
  endfacet
  facet normal 0 0 1
    outer loop
      vertex 3.96865 -2.12128 5
      vertex 1.11019 -1.35277 5
      vertex 3.74161 -2.50007 5
    endloop
  endfacet
  facet normal 0 0 1
    outer loop
      vertex 1.11019 -1.35277 5
      vertex 0.972248 -1.45507 5
      vertex 3.74161 -2.50007 5
    endloop
  endfacet
  facet normal 0 0 1
    outer loop
      vertex 3.74161 -2.50007 5
      vertex 0.824944 -1.54336 5
      vertex 3.47855 -2.85477 5
    endloop
  endfacet
  facet normal 0 0 1
    outer loop
      vertex 0.824944 -1.54336 5
      vertex 0.669696 -1.61679 5
      vertex 3.47855 -2.85477 5
    endloop
  endfacet
  facet normal 0 0 1
    outer loop
      vertex 3.47855 -2.85477 5
      vertex 0.507998 -1.67465 5
      vertex 3.18198 -3.18198 5
    endloop
  endfacet
  facet normal 0 0 1
    outer loop
      vertex -1.45507 -0.972248 5
      vertex -1.54336 -0.824944 5
      vertex -4.47833 0.441077 5
    endloop
  endfacet
  facet normal 0 0 1
    outer loop
      vertex 0.507998 -1.67465 5
      vertex 0.341408 -1.71637 5
      vertex 3.18198 -3.18198 5
    endloop
  endfacet
  facet normal 0 0 1
    outer loop
      vertex 0.341408 -1.71637 5
      vertex 0.17153 -1.74157 5
      vertex 3.18198 -3.18198 5
    endloop
  endfacet
  facet normal 0 0 1
    outer loop
      vertex 3.18198 -3.18198 5
      vertex 0 -1.75 5
      vertex 2.85477 -3.47855 5
    endloop
  endfacet
  facet normal 0 0 1
    outer loop
      vertex -1.11019 -1.35277 5
      vertex -1.23744 -1.23744 5
      vertex -4.47833 0.441077 5
    endloop
  endfacet
  facet normal 0 0 1
    outer loop
      vertex 0 -1.75 5
      vertex -0.17153 -1.74157 5
      vertex 2.85477 -3.47855 5
    endloop
  endfacet
  facet normal 0 0 1
    outer loop
      vertex -0.17153 -1.74157 5
      vertex -0.341408 -1.71637 5
      vertex 2.85477 -3.47855 5
    endloop
  endfacet
  facet normal 0 0 1
    outer loop
      vertex -0.341408 -1.71637 5
      vertex -0.507998 -1.67465 5
      vertex 2.85477 -3.47855 5
    endloop
  endfacet
  facet normal 0 0 1
    outer loop
      vertex 2.85477 -3.47855 5
      vertex -0.669696 -1.61679 5
      vertex 2.50007 -3.74161 5
    endloop
  endfacet
  facet normal 0 0 1
    outer loop
      vertex -0.669696 -1.61679 5
      vertex -0.824944 -1.54336 5
      vertex 2.50007 -3.74161 5
    endloop
  endfacet
  facet normal 0 0 1
    outer loop
      vertex -0.972248 -1.45507 5
      vertex -4.47833 0.441077 5
      vertex -0.824944 -1.54336 5
    endloop
  endfacet
  facet normal 0 0 1
    outer loop
      vertex -1.35277 -1.11019 5
      vertex -1.45507 -0.972248 5
      vertex -4.47833 0.441077 5
    endloop
  endfacet
  facet normal 0 0 1
    outer loop
      vertex -1.23744 -1.23744 5
      vertex -1.35277 -1.11019 5
      vertex -4.47833 0.441077 5
    endloop
  endfacet
  facet normal 0 0 1
    outer loop
      vertex -1.54336 -0.824944 5
      vertex -1.61679 -0.669696 5
      vertex -4.47833 0.441077 5
    endloop
  endfacet
  facet normal 0 0 1
    outer loop
      vertex -1.61679 -0.669696 5
      vertex -1.67465 -0.507998 5
      vertex -4.47833 0.441077 5
    endloop
  endfacet
  facet normal 0 0 1
    outer loop
      vertex -1.67465 -0.507998 5
      vertex -1.71637 -0.341408 5
      vertex -4.47833 0.441077 5
    endloop
  endfacet
  facet normal 0 0 1
    outer loop
      vertex 1.61679 -0.669696 5
      vertex 1.54336 -0.824944 5
      vertex 4.30623 -1.30628 5
    endloop
  endfacet
  facet normal 0 0 1
    outer loop
      vertex -1.71637 -0.341408 5
      vertex -1.74157 -0.17153 5
      vertex -4.47833 0.441077 5
    endloop
  endfacet
  facet normal 0 0 1
    outer loop
      vertex -1.75 0 5
      vertex -1.74157 0.17153 5
      vertex -4.47833 0.441077 5
    endloop
  endfacet
endsolid OpenSCAD_Model
